<svg width="55" height="41" viewBox="0 0 55 41" fill="none" xmlns="http://www.w3.org/2000/svg">
<path d="M50.6927 36.0088V13.8496C50.0537 14.542 49.3648 15.1768 48.626 15.7539C43.2747 19.7164 39.0216 22.9672 35.8667 25.5063C34.8484 26.3334 34.0197 26.9778 33.3807 27.4394C32.7418 27.9011 31.8782 28.3675 30.7899 28.8388C29.7017 29.3101 28.6783 29.5457 27.7199 29.5457H27.66C26.7015 29.5457 25.6782 29.3101 24.59 28.8388C23.5017 28.3675 22.6381 27.9011 21.9992 27.4394C21.3602 26.9778 20.5315 26.3334 19.5132 25.5063C16.3583 22.9672 12.1052 19.7164 6.75384 15.7539C6.01504 15.1768 5.32615 14.542 4.68719 13.8496V36.0088C4.68719 36.2589 4.78203 36.4753 4.97173 36.658C5.16142 36.8408 5.38605 36.9322 5.64563 36.9322H49.7342C49.9938 36.9322 50.2185 36.8408 50.4082 36.658C50.5979 36.4753 50.6927 36.2589 50.6927 36.0088ZM50.6927 5.68409V4.97718L50.6777 4.60209L50.5879 4.24143L50.4231 3.98175L50.1536 3.76535L49.7342 3.69322H5.64563C5.38605 3.69322 5.16142 3.78458 4.97173 3.96732C4.78203 4.15006 4.68719 4.36646 4.68719 4.61652C4.68719 7.84808 6.15481 10.5795 9.09006 12.8108C12.9438 15.7346 16.9473 18.7835 21.1006 21.9573C21.2204 22.0535 21.5699 22.3372 22.1489 22.8085C22.728 23.2798 23.1872 23.6404 23.5267 23.8905C23.8661 24.1405 24.3104 24.4435 24.8595 24.7994C25.4086 25.1552 25.9128 25.4197 26.3721 25.5928C26.8313 25.7659 27.2606 25.8525 27.66 25.8525H27.7199C28.1192 25.8525 28.5485 25.7659 29.0078 25.5928C29.4671 25.4197 29.9712 25.1552 30.5204 24.7994C31.0695 24.4435 31.5138 24.1405 31.8532 23.8905C32.1926 23.6404 32.6519 23.2798 33.231 22.8085C33.81 22.3372 34.1595 22.0535 34.2793 21.9573C38.4325 18.7835 42.4361 15.7346 46.2898 12.8108C47.3681 11.9837 48.3715 10.8729 49.2999 9.47829C50.2284 8.08372 50.6927 6.81898 50.6927 5.68409ZM54.5265 4.61652V36.0088C54.5265 37.2784 54.0572 38.3652 53.1188 39.2693C52.1803 40.1733 51.0521 40.6254 49.7342 40.6254H5.64563C4.32777 40.6254 3.19959 40.1733 2.26111 39.2693C1.32263 38.3652 0.853394 37.2784 0.853394 36.0088V4.61652C0.853394 3.34698 1.32263 2.26017 2.26111 1.3561C3.19959 0.452034 4.32777 0 5.64563 0H49.7342C51.0521 0 52.1803 0.452034 53.1188 1.3561C54.0572 2.26017 54.5265 3.34698 54.5265 4.61652Z" fill="#424242"/>
</svg>
