<svg width="44" height="41" viewBox="0 0 44 41" fill="none" xmlns="http://www.w3.org/2000/svg">
<path d="M29.0874 20.3127C29.0874 18.4436 28.401 16.8479 27.0282 15.5254C25.6554 14.203 23.9989 13.5418 22.0587 13.5418C20.1186 13.5418 18.4621 14.203 17.0893 15.5254C15.7165 16.8479 15.0301 18.4436 15.0301 20.3127C15.0301 22.1817 15.7165 23.7775 17.0893 25.0999C18.4621 26.4224 20.1186 27.0836 22.0587 27.0836C23.9989 27.0836 25.6554 26.4224 27.0282 25.0999C28.401 23.7775 29.0874 22.1817 29.0874 20.3127ZM32.8762 20.3127C32.8762 23.2044 31.8238 25.6642 29.7188 27.6919C27.6139 29.7196 25.0606 30.7335 22.0587 30.7335C19.0569 30.7335 16.5036 29.7196 14.3987 27.6919C12.2937 25.6642 11.2413 23.2044 11.2413 20.3127C11.2413 17.4209 12.2937 14.9612 14.3987 12.9335C16.5036 10.9057 19.0569 9.89185 22.0587 9.89185C25.0606 9.89185 27.6139 10.9057 29.7188 12.9335C31.8238 14.9612 32.8762 17.4209 32.8762 20.3127ZM35.8414 9.46867C35.8414 10.1387 35.5943 10.7118 35.1001 11.1878C34.6059 11.6639 34.0111 11.902 33.3155 11.902C32.62 11.902 32.0251 11.6639 31.5309 11.1878C31.0367 10.7118 30.7896 10.1387 30.7896 9.46867C30.7896 8.79864 31.0367 8.22558 31.5309 7.7495C32.0251 7.27342 32.62 7.03538 33.3155 7.03538C34.0111 7.03538 34.6059 7.27342 35.1001 7.7495C35.5943 8.22558 35.8414 8.79864 35.8414 9.46867ZM22.0587 3.64994C21.9306 3.64994 21.2305 3.64553 19.9584 3.63671C18.6863 3.62789 17.7208 3.62789 17.0618 3.63671C16.4029 3.64553 15.5198 3.67198 14.4124 3.71606C13.305 3.76014 12.3624 3.8483 11.5845 3.98055C10.8066 4.11279 10.1522 4.27589 9.62139 4.46985C8.70621 4.8225 7.90085 5.33384 7.20531 6.00388C6.50977 6.67392 5.97896 7.44975 5.61288 8.33137C5.41154 8.84272 5.24224 9.47308 5.10496 10.2225C4.96768 10.9718 4.87616 11.8799 4.8304 12.9467C4.78464 14.0135 4.75719 14.8642 4.74804 15.499C4.73888 16.1338 4.73888 17.0639 4.74804 18.2894C4.75719 19.5148 4.76176 20.1893 4.76176 20.3127C4.76176 20.4361 4.75719 21.1106 4.74804 22.336C4.73888 23.5615 4.73888 24.4916 4.74804 25.1264C4.75719 25.7611 4.78464 26.6119 4.8304 27.6787C4.87616 28.7454 4.96768 29.6535 5.10496 30.4029C5.24224 31.1523 5.41154 31.7826 5.61288 32.294C5.97896 33.1756 6.50977 33.9515 7.20531 34.6215C7.90085 35.2915 8.70621 35.8029 9.62139 36.1555C10.1522 36.3495 10.8066 36.5126 11.5845 36.6448C12.3624 36.7771 13.305 36.8652 14.4124 36.9093C15.5198 36.9534 16.4029 36.9798 17.0618 36.9887C17.7208 36.9975 18.6863 36.9975 19.9584 36.9887C21.2305 36.9798 21.9306 36.9754 22.0587 36.9754C22.1869 36.9754 22.887 36.9798 24.1591 36.9887C25.4312 36.9975 26.3967 36.9975 27.0557 36.9887C27.7146 36.9798 28.5977 36.9534 29.7051 36.9093C30.8125 36.8652 31.7551 36.7771 32.533 36.6448C33.3109 36.5126 33.9653 36.3495 34.4961 36.1555C35.4113 35.8029 36.2166 35.2915 36.9122 34.6215C37.6077 33.9515 38.1385 33.1756 38.5046 32.294C38.7059 31.7826 38.8753 31.1523 39.0125 30.4029C39.1498 29.6535 39.2413 28.7454 39.2871 27.6787C39.3329 26.6119 39.3603 25.7611 39.3695 25.1264C39.3786 24.4916 39.3786 23.5615 39.3695 22.336C39.3603 21.1106 39.3557 20.4361 39.3557 20.3127C39.3557 20.1893 39.3603 19.5148 39.3695 18.2894C39.3786 17.0639 39.3786 16.1338 39.3695 15.499C39.3603 14.8642 39.3329 14.0135 39.2871 12.9467C39.2413 11.8799 39.1498 10.9718 39.0125 10.2225C38.8753 9.47308 38.7059 8.84272 38.5046 8.33137C38.1385 7.44975 37.6077 6.67392 36.9122 6.00388C36.2166 5.33384 35.4113 4.8225 34.4961 4.46985C33.9653 4.27589 33.3109 4.11279 32.533 3.98055C31.7551 3.8483 30.8125 3.76014 29.7051 3.71606C28.5977 3.67198 27.7146 3.64553 27.0557 3.63671C26.3967 3.62789 25.4312 3.62789 24.1591 3.63671C22.887 3.64553 22.1869 3.64994 22.0587 3.64994ZM43.1446 20.3127C43.1446 24.3505 43.0988 27.1453 43.0073 28.697C42.8243 32.3645 41.6894 35.2034 39.6028 37.2135C37.5162 39.2236 34.5693 40.3168 30.7621 40.4931C29.1514 40.5813 26.2503 40.6254 22.0587 40.6254C17.8672 40.6254 14.9661 40.5813 13.3553 40.4931C9.54818 40.3168 6.60128 39.2236 4.51466 37.2135C2.42804 35.2034 1.29321 32.3645 1.11018 28.697C1.01866 27.1453 0.9729 24.3505 0.9729 20.3127C0.9729 16.2748 1.01866 13.4801 1.11018 11.9284C1.29321 8.26084 2.42804 5.42201 4.51466 3.4119C6.60128 1.40179 9.54818 0.308569 13.3553 0.132244C14.9661 0.0440813 17.8672 0 22.0587 0C26.2503 0 29.1514 0.0440813 30.7621 0.132244C34.5693 0.308569 37.5162 1.40179 39.6028 3.4119C41.6894 5.42201 42.8243 8.26084 43.0073 11.9284C43.0988 13.4801 43.1446 16.2748 43.1446 20.3127Z" fill="#424242"/>
</svg>
