<svg width="44" height="40" viewBox="0 0 44 40" fill="none" xmlns="http://www.w3.org/2000/svg">
<path d="M9.95431 12.8845V39.653H0.701211V12.8845H9.95431ZM10.5431 4.61898C10.5618 5.93355 10.0898 7.03202 9.12714 7.9144C8.16444 8.79677 6.89798 9.23796 5.32776 9.23796H5.27168C3.73884 9.23796 2.5051 8.79677 1.57044 7.9144C0.635785 7.03202 0.168457 5.93355 0.168457 4.61898C0.168457 3.28641 0.649805 2.18344 1.6125 1.31006C2.5752 0.436687 3.83231 0 5.38384 0C6.93537 0 8.17846 0.436687 9.11312 1.31006C10.0478 2.18344 10.5245 3.28641 10.5431 4.61898ZM43.2374 24.3104V39.653H34.0124V25.3369C34.0124 23.4461 33.6338 21.9649 32.8768 20.8935C32.1197 19.822 30.9373 19.2863 29.3297 19.2863C28.1521 19.2863 27.166 19.5969 26.3716 20.2182C25.5771 20.8394 24.9836 21.6093 24.591 22.5277C24.3854 23.0679 24.2826 23.7972 24.2826 24.7156V39.653H15.0575C15.0949 32.4679 15.1136 26.6424 15.1136 22.1765C15.1136 17.7106 15.1043 15.0455 15.0856 14.1811L15.0575 12.8845H24.2826V16.7742H24.2265C24.6004 16.198 24.9836 15.6937 25.3761 15.2615C25.7687 14.8294 26.2968 14.3612 26.9604 13.8569C27.624 13.3527 28.4371 12.9611 29.3998 12.6819C30.3625 12.4028 31.4327 12.2633 32.6104 12.2633C35.8069 12.2633 38.3772 13.2852 40.3213 15.3291C42.2654 17.373 43.2374 20.3667 43.2374 24.3104Z" fill="#615B5B"/>
</svg>
