<svg width="50" height="41" viewBox="0 0 50 41" fill="none" xmlns="http://www.w3.org/2000/svg">
<path d="M49.5084 9.4148C49.3087 13.9544 45.9941 20.2155 39.5645 28.1983C32.9153 36.4888 27.3044 40.634 22.7318 40.634C19.8964 40.634 17.5003 38.1046 15.5434 33.0456C14.6649 29.9679 13.347 25.3322 11.5898 19.1384C10.1522 14.0986 8.5847 11.5788 6.88745 11.5788C6.52803 11.5788 5.26008 12.3097 3.08361 13.7716L0.777344 10.944C1.25657 10.5401 2.33482 9.61197 4.0121 8.15969C5.68939 6.70741 6.98729 5.59656 7.9058 4.82714C11.0208 2.17264 13.4269 0.768444 15.1241 0.61456C17.021 0.441441 18.5486 0.975226 19.7067 2.21592C20.8648 3.45661 21.6735 5.41382 22.1328 8.08755C23.0113 13.6081 23.6703 17.1956 24.1096 18.8498C25.2078 23.6395 26.4058 26.0343 27.7037 26.0343C28.7221 26.0343 30.2596 24.4858 32.3163 21.3889C34.333 18.292 35.4212 15.926 35.581 14.291C35.8406 11.6173 34.7523 10.2804 32.3163 10.2804C31.1781 10.2804 29.9701 10.5305 28.6921 11.0306C31.0883 3.47103 35.6708 -0.202949 42.4399 0.00864169C47.4517 0.162526 49.8079 3.29791 49.5084 9.4148Z" fill="#343434"/>
</svg>
