<svg width="41" height="40" viewBox="0 0 41 40" fill="none" xmlns="http://www.w3.org/2000/svg">
<path d="M25.9619 22.1724C26.1904 22.1724 27.047 22.5448 28.5318 23.2896C30.0166 24.0344 30.8029 24.4829 30.8907 24.6353C30.9259 24.7199 30.9435 24.8469 30.9435 25.0161C30.9435 25.5747 30.7941 26.218 30.4954 26.9458C30.2142 27.606 29.5905 28.1604 28.624 28.6089C27.6576 29.0575 26.7614 29.2818 25.9356 29.2818C24.934 29.2818 23.2647 28.7571 20.9277 27.7076C19.2057 26.9458 17.7121 25.9471 16.447 24.7114C15.1818 23.4758 13.8815 21.91 12.5461 20.0141C11.2809 18.2029 10.6571 16.561 10.6747 15.0883V14.8852C10.7274 13.3448 11.3776 12.0075 12.6251 10.8734C13.0469 10.501 13.5037 10.3148 13.9957 10.3148C14.1012 10.3148 14.2593 10.3275 14.4702 10.3529C14.681 10.3783 14.8479 10.391 14.9709 10.391C15.3048 10.391 15.5376 10.446 15.6694 10.556C15.8012 10.666 15.9374 10.8988 16.0779 11.2543C16.2185 11.5928 16.5085 12.3376 16.9477 13.4887C17.387 14.6397 17.6067 15.2745 17.6067 15.393C17.6067 15.7485 17.3036 16.2351 16.6973 16.853C16.0911 17.4708 15.788 17.8644 15.788 18.0336C15.788 18.1521 15.8319 18.2791 15.9198 18.4145C16.5172 19.6502 17.4134 20.8097 18.6082 21.8931C19.5923 22.7902 20.9189 23.645 22.5882 24.4575C22.7991 24.576 22.9923 24.6353 23.1681 24.6353C23.4316 24.6353 23.9061 24.2248 24.5914 23.4038C25.2766 22.5828 25.7335 22.1724 25.9619 22.1724ZM20.6114 35.6295C22.843 35.6295 24.9823 35.2063 27.0294 34.36C29.0765 33.5136 30.838 32.3795 32.314 30.9576C33.79 29.5357 34.9673 27.8388 35.8459 25.8667C36.7245 23.8947 37.1638 21.8338 37.1638 19.684C37.1638 17.5343 36.7245 15.4734 35.8459 13.5014C34.9673 11.5293 33.79 9.83238 32.314 8.41049C30.838 6.9886 29.0765 5.85447 27.0294 5.00811C24.9823 4.16174 22.843 3.73856 20.6114 3.73856C18.3798 3.73856 16.2405 4.16174 14.1934 5.00811C12.1463 5.85447 10.3848 6.9886 8.90876 8.41049C7.43276 9.83238 6.25546 11.5293 5.37689 13.5014C4.49831 15.4734 4.05902 17.5343 4.05902 19.684C4.05902 23.1203 5.11331 26.2349 7.2219 29.0279L5.13967 34.944L11.5181 32.9889C14.2944 34.7493 17.3255 35.6295 20.6114 35.6295ZM20.6114 0.539307C23.2998 0.539307 25.8697 1.04712 28.3209 2.06276C30.7721 3.0784 32.8851 4.44104 34.6598 6.1507C36.4346 7.86035 37.8491 9.89585 38.9034 12.2572C39.9577 14.6186 40.4848 17.0942 40.4848 19.684C40.4848 22.2739 39.9577 24.7495 38.9034 27.1109C37.8491 29.4722 36.4346 31.5077 34.6598 33.2174C32.8851 34.927 30.7721 36.2897 28.3209 37.3053C25.8697 38.321 23.2998 38.8288 20.6114 38.8288C17.185 38.8288 13.9782 38.0332 10.991 36.442L0 39.8444L3.58459 29.5611C1.68687 26.5481 0.738004 23.2557 0.738004 19.684C0.738004 17.0942 1.26515 14.6186 2.31944 12.2572C3.37373 9.89585 4.78824 7.86035 6.56297 6.1507C8.33769 4.44104 10.4507 3.0784 12.9019 2.06276C15.3531 1.04712 17.923 0.539307 20.6114 0.539307Z" fill="#343434"/>
</svg>
