<svg width="316" height="280" viewBox="0 0 316 280" fill="none" xmlns="http://www.w3.org/2000/svg">
<path d="M220.381 256.63C215.995 255.82 211.705 254.808 207.32 253.931C202.935 253.054 198.645 252.042 194.259 251.03C176.718 246.982 158.128 242.057 139.919 235.108C130.767 231.667 121.711 227.619 112.94 222.964C108.555 220.67 104.455 218.174 100.642 215.745C96.8287 213.249 93.1107 210.618 89.4881 208.054C86.0561 205.423 82.7194 202.792 79.478 200.093C76.4274 197.394 73.2814 194.763 70.5167 191.997C67.6567 189.298 64.9874 186.532 62.318 183.834C59.744 181.135 57.3607 178.369 54.7867 175.67C58.9814 182.417 54.31 179.246 51.8314 178.301L55.2634 182.417C56.5027 183.834 57.742 185.115 58.9814 186.532C61.5554 189.231 64.1294 192.064 66.894 194.763C72.5187 200.295 78.7154 205.828 85.5794 211.157C92.634 216.487 100.451 221.682 109.222 226.54C117.897 231.33 127.145 235.445 136.392 239.088C154.887 246.24 173.477 251.3 191.018 255.415C199.884 257.507 208.369 259.261 217.044 261.082C225.624 262.904 234.395 264.523 243.07 266.075C267.094 270.393 291.499 273.968 316 276.735V271.81C292.739 269.043 269.573 265.603 246.693 261.555C237.922 260.07 229.056 258.451 220.381 256.63Z" fill="#FBF7BC"/>
<path d="M50.7827 178.166C50.9733 178.166 51.3547 178.234 51.736 178.369C51.3547 178.234 50.9733 178.099 50.7827 178.166Z" fill="#FBF7BC"/>
<path d="M270.812 202.658C266.617 201.916 262.518 201.106 258.419 200.297L246.121 197.733L233.918 195.034C229.914 194.157 226.101 193.145 222.287 192.201C214.756 190.312 207.797 188.423 201.409 186.331C195.117 184.24 189.397 182.148 184.345 179.922C183.201 179.315 181.866 178.775 180.722 178.168C179.578 177.56 178.529 177.021 177.385 176.413C175.193 175.267 173.191 174.052 170.998 172.635C166.803 169.802 162.513 166.631 158.414 162.92C150.215 155.566 141.826 146.189 134.962 137.081C121.139 118.527 111.605 98.7598 107.601 78.7223C104.646 65.0267 104.646 51.0612 107.697 37.433L108.936 32.4405C109.031 31.6309 109.413 30.8213 109.699 29.9442L110.557 27.448L111.415 24.9517L112.463 22.4555C113.226 20.8363 113.893 19.1496 114.656 17.5304C117.421 11.8633 120.757 6.33102 124.475 0.933716H13.126C10.838 5.92622 8.93136 10.9862 7.21536 16.0462C0.637365 36.421 -1.07865 56.9307 1.20935 77.1031C3.49735 97.2081 9.78935 116.908 19.3227 135.664C24.1847 145.042 29.6187 154.285 36.006 163.19C36.7687 164.337 37.5314 165.484 38.294 166.563L40.868 169.869C42.4887 172.096 44.2047 174.322 46.016 176.481L51.45 182.755C53.2613 184.914 55.2634 187.073 57.2654 189.165C65.3687 197.733 74.4253 206.436 85.8653 214.869C91.49 219.052 97.782 223.168 104.551 227.081C111.51 231.061 118.66 234.502 125.81 237.605C140.301 243.812 155.077 248.535 169.377 252.515C176.527 254.472 183.582 256.226 190.541 257.845C197.501 259.464 204.269 260.881 211.038 262.366C245.358 269.584 280.441 275.184 316 279.097V276.736C291.499 273.97 267.094 270.394 243.07 266.076C234.395 264.524 225.624 262.838 217.044 261.084C208.369 259.262 199.884 257.44 191.018 255.417C173.477 251.301 154.887 246.241 136.392 239.09C127.145 235.446 117.897 231.331 109.222 226.541C100.547 221.683 92.634 216.488 85.5793 211.159C78.62 205.829 72.5187 200.297 66.894 194.764C64.034 192.066 61.46 189.232 58.9813 186.533C57.742 185.117 56.5027 183.835 55.2633 182.418L51.8313 178.303C51.45 178.168 51.164 178.1 50.878 178.1C51.0687 178.033 51.45 178.168 51.8313 178.303C54.31 179.18 58.9813 182.418 54.7867 175.671C57.3607 178.37 59.744 181.136 62.318 183.835C64.9873 186.533 67.752 189.3 70.5167 191.998C73.3767 194.697 76.4273 197.328 79.478 200.094C82.7193 202.793 86.056 205.424 89.488 208.055C93.1107 210.619 96.8287 213.25 100.642 215.746C104.455 218.243 108.555 220.671 112.94 222.965C121.615 227.553 130.767 231.601 139.919 235.109C158.128 242.058 176.718 246.983 194.259 251.031C198.645 252.043 202.935 252.988 207.32 253.932C211.705 254.809 215.995 255.821 220.381 256.631C229.056 258.452 237.922 260.072 246.693 261.623C269.573 265.739 292.739 269.18 316 271.878V210.147C300.842 207.988 285.684 205.491 270.812 202.658ZM52.4033 182.081C51.9267 181.406 51.45 180.799 51.164 180.259C51.45 180.799 51.9267 181.339 52.4033 182.081Z" fill="#FBF7BC"/>
<path d="M51.164 180.258C51.45 180.73 51.8314 181.337 52.4034 182.079C51.9267 181.337 51.45 180.798 51.164 180.258Z" fill="#FBF7BC"/>
</svg>
