<svg width="93" height="121" viewBox="0 0 93 121" fill="none" xmlns="http://www.w3.org/2000/svg">
<path d="M60.2749 120.006C59.9633 119.455 59.8854 118.959 59.5737 118.408C56.925 113.721 53.1077 109.476 49.1345 105.066C47.109 102.86 45.0056 100.545 42.98 98.1741C42.0452 96.9612 41.0324 95.6931 40.0976 94.4802C39.708 93.8737 39.1627 93.2673 38.6953 92.5506C38.3058 91.8339 37.8383 91.2274 37.4488 90.5107C35.4233 86.5963 32.4629 82.5717 29.7363 78.4919C29.0351 77.4444 28.334 76.452 27.7107 75.4045C27.0096 74.357 26.3085 73.3646 25.7631 72.3171C24.5166 70.2772 23.426 68.2374 22.4911 66.1975C23.426 68.5681 24.4387 70.9939 25.5294 73.4198C26.7759 75.7904 28.1782 78.2163 29.5025 80.4767C30.9827 82.7922 32.5408 85.1629 34.1768 87.3682L36.6698 90.7313C37.5267 91.889 38.3058 93.0468 39.1627 94.0943C46.0183 102.86 52.796 111.13 56.4576 119.731C52.6402 119.4 48.745 118.518 46.7195 116.478C44.6939 113.942 42.4347 111.185 40.2534 108.539C37.9162 105.782 35.7349 103.136 33.3978 100.435C34.4884 99.9934 36.5919 99.2216 37.5267 98.7805C28.7235 91.9993 23.5039 83.3987 19.6866 74.7429C18.8296 72.5377 18.0506 70.3875 17.0378 68.1822C16.1809 65.9769 15.5576 63.8268 14.5449 61.6215C13.61 59.5264 12.9089 57.2661 11.8182 55.171C11.2729 54.1235 10.7275 53.076 10.1822 51.9182C9.63686 50.8707 9.09153 49.8232 8.5462 48.7206C8.00087 49.4373 6.9102 49.1616 6.05325 49.0513V48.9411V49.0513C5.35211 48.9411 4.80677 49.1616 5.11839 50.2643C4.80677 49.1065 5.43001 49.0513 6.05325 49.0513C8.77991 57.8725 11.8182 66.5282 16.3367 75.1288C20.8551 83.7294 26.5422 91.889 32.6966 99.7729C27.6328 93.8738 22.6469 87.4784 18.2843 80.8626L15.0902 75.9007L12.3635 70.7734C11.974 69.8913 11.4287 69.1194 10.9612 68.2373L9.87058 65.7013L7.68924 60.5739C2.46963 46.7909 0.52202 33.1182 0.366211 19.5005C0.366211 18.3428 0.366212 16.0824 0.522021 14.9246C1.45688 13.7668 2.31383 12.609 2.85916 11.5064C3.5603 10.3486 4.10563 9.30107 4.65097 8.1433C5.58582 5.93801 6.05325 3.62249 6.13115 1.4172C12.2077 2.74037 24.9841 -1.22915 21.79 7.53686C23.0365 7.53686 25.5294 7.64713 26.7759 7.64713C33.6315 -0.898353 51.0821 -3.10363 55.3669 5.27645C56.4576 7.64713 56.8471 10.1281 57.0029 12.7744C57.3145 15.3105 57.1587 18.0671 56.8471 20.8788C56.6913 22.3123 56.6913 23.6354 56.6913 25.0137C56.6913 26.4472 56.6913 27.8255 56.6913 29.1487C56.6913 29.8654 56.6913 30.5821 56.8471 31.2437C57.0029 31.9604 57.1587 32.5669 57.2366 33.2836C57.5482 34.6067 57.9377 35.9299 58.3273 37.2531C58.7168 39.1827 59.5737 40.9469 60.2749 42.8214C60.5865 43.7035 60.976 44.6959 61.2097 45.578C61.5214 46.4601 61.9109 47.3423 62.1446 48.2244C63.2353 51.8631 64.4817 55.2813 64.8713 58.92C65.0271 60.1329 65.2608 61.401 65.5724 62.6139L65.884 63.6062L66.2735 64.4884L67.1305 66.3628C68.0653 68.8438 69.7792 71.3248 71.2594 73.8608C74.5314 78.8779 78.4267 84.0051 81.3091 89.6837C82.5556 91.6134 85.6718 93.8187 88.1647 95.9688C90.8135 98.0638 92.9948 100.104 92.2937 101.703C92.1379 103.632 90.1124 104.625 87.3078 105.507C81.387 99.387 75.2326 93.4878 70.0909 87.5887C64.3259 80.0907 59.8854 72.6479 58.0936 65.0397C58.9505 72.7031 63.6248 80.2561 70.0909 87.5887C74.7651 93.7084 80.1406 99.7729 85.2044 106.168C82.8672 106.885 80.5301 107.602 78.8941 108.815C78.8941 108.815 80.8417 110.689 81.7766 111.571C80.3743 117.415 72.1164 119.51 65.105 119.951C63.7806 120.006 61.9888 120.006 60.2749 120.006Z" fill="#FBF7BC"/>
</svg>
