<svg width="164" height="182" viewBox="0 0 164 182" fill="none" xmlns="http://www.w3.org/2000/svg">
<path d="M10.6687 50.3973C12.4395 50.1275 13.9307 49.183 15.1423 50.06C18.0315 52.8936 13.3715 56.5367 16.2607 59.3703C17.2859 59.3028 18.1247 59.1679 19.1499 59.1004C18.9635 61.7316 18.4975 64.6327 18.2179 67.4663C20.6411 72.2564 23.3439 76.8441 26.4195 81.4318C27.4447 81.162 28.2835 80.892 28.8427 81.2968C30.4271 83.1184 30.6135 86.087 31.5455 88.9206C31.9183 89.2579 32.1979 89.7301 32.5707 90.0675C33.3163 90.2699 34.3415 90.1349 34.9007 90.1349C35.3667 91.4842 35.5531 92.6312 35.8327 93.7106C47.4827 106.529 60.2511 119.415 73.6719 133.246C77.6795 135.945 81.8735 138.576 84.3899 141.477C87.6519 145.795 88.4907 152.069 90.3547 156.522C99.8611 153.823 109.927 163.673 118.781 159.355C119.992 162.391 121.763 166.844 124.745 166.507C133.506 165.427 144.131 165.697 152.892 172.376C155.595 175.142 154.383 180.607 156.62 181.282C160.068 182.361 160.534 176.087 163.983 177.166C155.781 154.025 141.708 133.043 131.456 110.24C127.541 106.799 119.06 92.024 111.325 76.3043C103.589 60.5847 96.6923 43.988 94.9215 37.039C94.7351 36.5667 94.4555 36.2294 94.2691 35.8246C91.8459 28.3358 87.3723 19.4303 81.0347 13.8306C77.5863 11.3343 73.5787 8.90555 69.6643 6.40929C68.5459 8.02849 67.4275 9.58026 66.2159 10.9296C65.1907 7.8936 64.3519 4.92504 62.1151 4.04798C55.4047 -1.61919 51.6767 2.83357 45.8983 6.47674C43.6615 8.7706 38.0695 7.15144 36.2055 10.3898C35.5531 8.36583 35.2735 7.35384 34.6211 5.32985C31.7319 5.53225 38.4423 11.2669 33.3163 10.5923C33.6891 8.43333 31.0795 6.61173 30.4271 4.58774C26.8855 5.93706 31.6387 11.8066 27.7243 12.0765C26.4195 11.1319 30.6135 5.53225 25.8603 6.00451C24.8351 6.07198 25.4875 8.1634 25.8603 9.1754C22.0391 3.23836 16.2607 0.607213 13.1851 7.01651C12.5327 5.05999 13.5579 1.95652 12.0667 0C12.0667 0 12.0667 0 11.9735 0C12.1599 1.01199 11.9735 3.036 12.1599 3.98053C11.7871 2.8336 11.4143 1.61917 11.0415 0.404781C10.4823 0.674646 9.92306 1.01199 9.36386 1.34933C9.17746 2.29385 8.99106 3.23843 9.27066 4.18296C9.08426 3.37336 8.80466 2.56377 8.52506 1.82164C7.22026 2.63123 5.91546 3.57576 4.98346 4.52029C2.93306 7.82614 -0.422138 11.2669 0.0438618 12.8186C2.65346 25.7046 6.00866 38.2534 10.6687 50.3973Z" fill="#A4B8C4"/>
</svg>
