<svg width="85" height="106" viewBox="0 0 85 106" fill="none" xmlns="http://www.w3.org/2000/svg">
<path d="M15.6001 6.20004C15.5001 6.20004 15.3001 6.20004 15.2001 6.10004C15.3001 6.20004 15.4001 6.30004 15.5001 6.40004C15.6001 6.30004 15.6001 6.20004 15.6001 6.20004Z" fill="#29383F"/>
<path d="M15.3001 6.10002C13.9001 5.90002 12.4001 5.80002 11.0001 5.50002C11.0001 5.30002 11.1001 5.00002 11.1001 4.90002C10.4001 4.60002 9.60006 4.70002 8.80006 4.60002C8.80006 4.50002 8.90006 4.20002 8.50006 4.20002C7.90006 4.00002 7.50006 3.90002 7.20006 3.90002C6.80006 4.00002 6.60005 4.10002 6.40005 4.20002C10.7001 5.60002 12.0001 7.40002 15.3001 6.10002Z" fill="#29383F"/>
<path d="M18.3001 7C17.4001 6.8 16.5001 6.6 15.6001 6.5C16.2001 7 16.9001 7.3 18.1001 7.8L18.3001 7Z" fill="#29383F"/>
<path d="M4.60007 37.2C3.90007 38.4 4.80007 39.4 6.20007 40.3C5.80007 39.4 5.50007 38.4 5.20007 37.5C5.00007 37.4 4.80007 37.3 4.60007 37.2Z" fill="#29383F"/>
<path d="M30.3001 78.6C30.0001 78.3 29.6001 78 29.1001 77.8C28.6001 77.6 28.1001 77.4 27.5001 77.3C27.9001 78.3 28.9001 78.6 29.5001 79.4C29.7001 79.3 29.8001 79.2 29.6001 79.6C29.6001 79.5 29.5001 79.5 29.5001 79.4C29.3001 79.5 29.0001 79.7 28.9001 79.7C29.6001 80.1 30.5001 80.5 31.1001 81.1C31.5001 80.9 31.9001 80.7 32.3001 80.5C31.6001 79.9 30.9001 79.1 30.3001 78.6Z" fill="#29383F"/>
<path d="M31.8 66.5V66.9L32.3 67.3V67L31.8 66.5Z" fill="#29383F"/>
<path d="M35.9001 3.10004C35.8001 3.10004 35.6001 3.10004 35.5001 3.10004C35.6001 3.30004 35.7001 3.40004 35.9001 3.50004C35.9001 3.30004 35.9001 3.10004 35.9001 3.10004Z" fill="#29383F"/>
<path d="M40.5001 4.20001C40.4001 4.20001 40.3001 4.20001 40.2001 4.20001C40.3001 4.20001 40.4001 4.30001 40.5001 4.30001V4.20001Z" fill="#29383F"/>
<path d="M35.5001 3.10002C34.1001 3.00002 32.6001 3.10002 31.2001 2.80002C31.2001 2.60002 31.3001 2.10002 31.3001 1.80002C30.5001 1.50002 29.7001 1.70002 29.0001 1.60002C29.0001 1.40002 29.0001 1.10002 28.7001 1.10002C27.7001 0.800022 27.0001 1.10002 26.7001 1.50002C30.9001 2.90002 32.3001 5.60002 35.5001 3.10002Z" fill="#29383F"/>
<path d="M38.6001 3.9C37.7001 3.7 36.8001 3.5 35.9001 3.5C36.5001 4.2 37.2001 4.6 38.5001 5.1L38.6001 3.9Z" fill="#29383F"/>
<path d="M40.7001 98.2C41.1001 99.7 42.1001 100.5 42.9001 102C43.1001 101.9 43.2001 101.9 43.0001 102.3C43.0001 102.2 42.9001 102.1 42.9001 102C42.7001 102.1 42.4001 102.2 42.2001 102.2C43.0001 103 44.0001 104 45.0001 105.2C45.5001 105.1 45.9001 105 46.3001 104.9C44.0001 102.2 43.4001 99.7 40.7001 98.2Z" fill="#29383F"/>
<path d="M48.3 103.6L48.5 103.8C48.6 103.4 48.5 103.5 48.3 103.6Z" fill="#29383F"/>
<path d="M66.4001 85.1C61.7001 84.7 67.1001 86.2 66.4001 85.1V85.1Z" fill="#29383F"/>
<path d="M41.0001 81C41.1001 81.2 41.2001 81.4 41.3001 81.6V81.4L41.0001 81Z" fill="#29383F"/>
<path d="M46.2001 84.1C46.8001 85 47.3001 86 47.9001 86.9C48.5001 87.6 49.1001 88.3 49.8001 88.9C51.1001 90.5 51.8001 92.3 52.4001 93.9C53.0001 95.6 53.7001 97.2 54.6001 97.9C55.6001 97.4 56.6001 96.8 57.7001 96.1C57.9001 95.7 57.8001 95.2 57.5001 94.6C57.3001 94 56.9001 93.3 56.6001 92.5C55.9001 90.9 55.2001 89.1 55.3001 87.1L55.2001 87C52.6001 85.7 53.1001 82.7 51.0001 80.7C48.5001 78.7 47.5001 76.4 45.5001 74.2C45.5001 77.7 46.5001 80.8 46.2001 84.1Z" fill="#29383F"/>
<path d="M45.6001 83.2C45.6001 83.4 45.6001 83.6 45.6001 83.9C45.8001 84.1 45.9001 84.4 46.1001 84.6L46.2001 84.1L45.6001 83.2Z" fill="#29383F"/>
<path d="M55.2001 75.9C54.9001 75.2 54.7001 74.5 54.5001 73.8C53.7001 72.8 53.1001 71.8 52.6001 70.8C53.1001 72.8 53.7001 74.6 55.2001 75.9Z" fill="#29383F"/>
<path d="M82.5001 74.1C81.7001 73.6 81.0001 73.2 80.3001 72.7C79.8001 72.5 79.2001 72.4 78.5001 72.3C78.4001 72.7 78.4001 73 78.5001 73.4C79.7001 73.8 80.2001 74.1 80.4001 74.2C81.0001 74.2 81.7001 74.2 82.5001 74.1Z" fill="#29383F"/>
<path d="M80.5001 74.2C75.7001 74.1 81.1001 74.8 80.5001 74.2V74.2Z" fill="#29383F"/>
<path d="M64.1001 63.9C64.9001 64.1 65.7001 64.4 65.8001 64.8C66.0001 65.3 66.3001 65.8 66.8001 66.3C66.3001 65.3 65.8001 64.2 64.5001 63.4C64.4001 63.6 64.1001 63.8 64.1001 63.9Z" fill="#29383F"/>
<path d="M77.5001 70.1C76.8001 69.4 76.2001 68.8 75.6001 68.1C76.0001 68.3 76.3001 68.4 76.7001 68.6C76.9001 68.7 77.1001 68.7 77.3001 68.8C78.8001 69.4 78.9001 70.4 78.8001 71.4C79.3001 71.9 79.8001 72.3 80.4001 72.7H80.5001C80.4001 72.1 80.6001 71.4 80.7001 70.7C79.5001 69.7 78.5001 68.6 77.5001 67.5C77.9001 67.7 78.2001 67.8 78.6001 68C80.7001 68.6 80.8001 69.6 80.7001 70.8C81.8001 71.8 83.0001 72.7 84.5001 73.5C84.4001 72.8 84.2001 72 83.8001 71.4C82.6001 70.1 81.5001 68.9 80.3001 67.7C79.1001 66.4 77.9001 65.2 76.8001 64C75.9001 63.8 75.1001 63.5 74.8001 63.2C73.9001 62.5 73.9001 61.6 73.4001 60.8C72.6001 61 72.6001 60.6 72.2001 60.6C70.6001 59.9 70.9001 59 70.8001 58.1C70.8001 58 71.2001 57.9 71.5001 57.8C67.8001 56.8 68.1001 55.1 68.2001 53.4C68.1001 53 68.0001 52.6 68.1001 52.1C68.2001 52.5 68.2001 52.9 68.2001 53.4C68.5001 54.3 69.4001 55.2 70.3001 56.1C68.8001 53.9 68.0001 51.8 67.6001 49.6C67.2001 47.5 65.5001 45.5 64.0001 43.5C63.4001 42.7 63.5001 41.8 63.7001 41C63.9001 41.1 64.2001 41.1 64.5001 41.2C64.8001 40.2 64.7001 39.2 64.3001 38.1L64.2001 37.8C63.1001 35.6 62.7001 33.7 62.8001 31.5C62.8001 31 62.5001 30.4 62.5001 29.9C62.1001 29.5 59.8001 30 59.4001 29.3C59.3001 29.3 59.2001 29.4 59.0001 29.4C59.5001 30 60.2001 30.4 59.3001 30.6C57.7001 30.7 56.8001 29.7 55.2001 29C54.9001 29 54.6001 28.9 54.3001 28.9C54.3001 28.9 54.3001 28.8 54.3001 28.7L54.0001 28.6C53.5001 28.6 52.9001 28.5 52.4001 28.5V29.3C52.0001 29.2 51.7001 29.1 51.4001 29C51.5001 28.5 51.5001 28.1 51.6001 27.6C51.8001 27.7 52.1001 27.9 52.3001 28C52.7001 26.3 52.7001 24.6 52.3001 22.8L52.2001 22.3C51.2001 18.6 51.0001 15.4 51.3001 11.7C51.4001 10.8 51.0001 9.8 51.1001 8.9C50.8001 8.2 48.3001 9.2 48.0001 8C47.9001 8.1 47.8001 8.1 47.6001 8.1C48.0001 9 48.7001 9.8 47.9001 10C46.3001 10.2 45.5001 8.5 43.9001 7.3C43.3001 7 43.0001 7 42.7001 6.9C42.7001 6.9 42.7001 6.7 42.7001 6.6L42.4001 6.5C41.9001 6.5 41.3001 6.4 40.8001 6.3L40.7001 7.5C39.5001 7 38.7001 6.6 38.1001 5.9C38.0001 5.8 37.9001 5.6 37.7001 5.5C34.5001 8 33.1001 5.3 28.8001 4C28.7001 4.2 28.6001 4.5 28.7001 4.9C28.3001 4.9 27.5001 4.8 27.5001 4.8C26.6001 6.7 25.1001 8 23.2001 9.6C23.2001 9.6 23.2001 9.6 23.1001 9.6C22.8001 9.5 22.5001 9.5 22.2001 9.4C22.2001 9.4 22.2001 9.3 22.2001 9.2L21.9001 9.1C21.4001 9.1 20.8001 9 20.3001 8.8L20.2001 9.6C19.0001 9.2 18.2001 8.9 17.6001 8.4C17.5001 8.3 17.4001 8.2 17.3001 8.1C14.1001 9.4 12.7001 7.6 8.50006 6.3C8.40006 6.4 8.30006 6.6 8.40006 6.9C8.00006 6.8 7.20007 6.7 7.20007 6.7C6.20007 8 4.60007 8.7 2.50007 9.7C2.10006 10 0.500065 9.8 0.500065 10.2C0.400065 11.4 -0.199935 12.6 0.100065 13.9C1.10006 16.7 1.70007 19.2 2.00007 21.8C2.10006 21.8 2.20007 21.8 2.30007 21.8C2.30007 22.4 2.40007 23 2.40007 23.7C2.40007 24.3 3.50007 24.9 3.50007 25.5C3.20007 29.6 3.90007 33.7 5.30007 37.9C6.00007 38.2 6.60007 38.6 7.20007 38.9C7.20007 38.7 7.30007 38.4 7.40006 38.1C8.20006 38.4 8.90006 38.8 9.50006 39.2C9.50006 40 9.60006 40.7 9.70006 41.5C9.10006 40.6 8.30007 39.7 7.10007 38.9C7.10007 39.9 8.30007 40.8 9.70006 41.6C9.80007 42.2 9.90006 42.7 10.0001 43.3C9.30007 42.4 7.60007 41.6 6.30007 40.7C6.60007 41.3 6.80007 41.9 7.10007 42.6C8.10007 44.3 9.30007 45.8 10.8001 47.4C10.7001 46.8 10.5001 46.2 10.5001 45.7C10.7001 46.3 10.8001 47 11.0001 47.6C10.9001 47.5 10.9001 47.5 10.8001 47.4C10.9001 47.8 11.0001 48.2 11.1001 48.7C11.0001 48.6 10.9001 48.6 10.7001 48.5C10.0001 49.6 10.8001 50.5 12.0001 51.4C12.1001 51.8 12.3001 52.1 12.4001 52.5C12.5001 52.7 12.7001 52.9 12.8001 53.1C12.8001 53.2 12.9001 53.3 12.9001 53.4C13.9001 55.1 15.1001 56.6 16.6001 58.2V58.1C17.3001 58.8 18.0001 59.6 18.8001 60.3C19.1001 60.6 19.3001 60.8 19.5001 61.1C19.3001 59.8 19.1001 58.6 18.9001 57.3C19.0001 57.3 19.0001 57.4 19.1001 57.4C18.9001 56.6 18.9001 55.9 18.8001 55.1C18.7001 54.9 18.5001 54.6 18.3001 54.4C18.1001 53.5 17.7001 52.6 17.3001 51.7C19.3001 53.8 19.7001 56.1 21.7001 57.7C21.9001 58.6 22.0001 59.6 22.2001 60.6C21.5001 59.6 20.6001 58.6 19.4001 57.7C19.3001 57.6 19.2001 57.5 19.1001 57.5C19.5001 59.6 20.2001 61.6 21.1001 63.6C20.1001 62.2 19.1001 60.9 17.9001 59.5C17.5001 59.1 17.0001 58.7 16.6001 58.3C17.0001 60 17.6001 61.7 18.3001 63.4C19.8001 65.4 21.2001 67.5 23.0001 69.4C22.9001 69.5 22.8001 69.5 22.7001 69.5C23.0001 69.6 23.2001 69.8 23.5001 69.9C23.9001 70.3 24.3001 70.7 24.8001 71.1C25.1001 71.4 25.3001 71.6 25.5001 71.9C25.4001 71.5 25.4001 71 25.3001 70.6C25.5001 70.5 25.8001 70.4 26.0001 70.3C25.7001 70 25.4001 69.7 25.1001 69.4C24.7001 66.7 24.2001 64.2 22.9001 61.9C23.8001 63.3 24.4001 64.8 25.7001 66C26.2001 66.2 26.5001 66.6 27.2001 66.5L27.3001 66.6V66.5L27.2001 66.4C27.2001 66.4 27.2001 66.4 27.2001 66.5C28.0001 67.1 28.8001 67.8 29.6001 68.4C30.0001 68.7 30.4001 69.1 30.8001 69.4C30.8001 69.5 30.8001 69.6 30.8001 69.7C30.3001 69.4 29.8001 69 29.3001 68.6C28.6001 68 27.9001 67.3 27.2001 66.6C27.6001 68.2 27.8001 69.9 28.1001 71.7C29.5001 73.3 30.1001 75.2 31.6001 76.7C32.0001 76.9 32.3001 77.2 32.7001 77.2C34.3001 80.9 35.9001 84.7 38.2001 88.3C38.5001 88.8 38.7001 89.2 38.9001 89.7C38.5001 84.7 38.4001 79.9 37.2001 75.5C37.6001 75.3 38.0001 75 38.4001 74.8C37.9001 73.4 36.8001 71.9 35.2001 70.3C35.0001 70 34.9001 69.7 34.7001 69.4C35.0001 69.5 35.3001 69.6 35.6001 69.7C36.9001 70.4 37.5001 71.2 38.1001 72C38.4001 72.4 38.7001 72.8 39.0001 73.1C40.1001 75.9 40.7001 78.8 41.0001 81.8C42.6001 84.1 44.1001 86.5 45.4001 88.8C43.7001 86.7 42.3001 84.5 41.0001 81.9C41.3001 84.5 41.4001 87.2 41.7001 90C43.1001 92.9 43.4001 95.9 45.1001 98.8C45.7001 99.4 46.0001 100.1 46.9001 100.3C48.0001 100.2 49.0001 100.1 50.0001 99.9C49.5001 99.2 48.8001 98.6 48.2001 98C48.4001 98.1 48.7001 97.9 48.9001 97.9C48.4001 96.8 47.6001 96.1 47.2001 94.9C49.6001 96.2 50.2001 98.2 51.3001 99.7C51.8001 99.6 52.2001 99.4 52.7001 99.2C52.5001 98.5 52.2001 97.6 51.8001 96.6C51.5001 95.7 51.1001 94.7 50.6001 93.7C49.7001 91.7 48.7001 89.6 47.5001 87.4C46.9001 86.7 46.3001 85.9 45.8001 85.1C46.0001 85 46.0001 85.5 45.8001 85.9L45.6001 84.5C45.6001 84.3 45.6001 84.1 45.6001 83.8C44.7001 82.4 43.9001 81 43.1001 79.5C43.9001 80.7 44.8001 81.9 45.5001 83.2C45.5001 80.6 45.9001 77.8 44.5001 75.3C43.6001 74.3 43.1001 73 42.3001 71.8C42.5001 71.6 42.8001 71.5 43.0001 71.3C43.9001 72 44.0001 73 44.0001 74C44.8001 73.7 44.4001 74.4 45.2001 74.4C46.8001 75.7 48.5001 77 49.7001 78C51.4001 79.7 50.8001 81.5 53.2001 82.8C53.6001 83 53.7001 83.2 53.8001 83.6C53.7001 83.6 53.7001 83.5 53.6001 83.5C53.7001 83.8 53.8001 84.1 54.0001 84.3C54.0001 84.4 54.1001 84.5 54.2001 84.7C54.3001 84.7 54.3001 84.8 54.4001 84.8C54.6001 85 54.7001 85.2 54.8001 85.5C55.0001 85.5 55.2001 85.4 54.8001 85.6V85.5C54.6001 85.5 54.3001 85.6 54.1001 85.6C54.6001 86 55.1001 86.5 55.4001 87H56.7001C56.4001 86.2 56.2001 85.4 55.6001 84.8C55.6001 84.7 55.7001 84.6 55.7001 84.5C55.9001 84.4 56.6001 85.6 57.6001 86.8C58.5001 88 59.6001 89 60.4001 88.8C60.6001 88.8 60.1001 87.9 59.4001 86.5C59.0001 85.7 58.7001 84.8 58.4001 83.8C58.7001 84.1 58.9001 84.4 59.6001 84.6C60.6001 84.6 61.6001 84.6 62.7001 84.6C62.5001 84.1 62.0001 83.6 61.4001 83.2C61.6001 83.2 61.9001 83.2 62.1001 83.1C61.9001 82.4 61.2001 82 61.0001 81.4C61.2001 81.4 61.4001 81.4 61.5001 81.5C63.2001 82.3 63.5001 83.4 63.9001 84.6C64.4001 84.6 64.9001 84.6 65.3001 84.5C65.9001 84.9 66.2001 85.1 66.3001 85.3C66.8001 85.4 67.5001 85.4 68.4001 85.5V85.4C68.0001 85.1 67.6001 84.7 67.3001 84.3C68.0001 84.2 68.8001 84.1 69.6001 83.9C69.8001 84.1 70.1001 84.4 70.4001 84.6C70.4001 84.3 70.3001 84 70.3001 83.7C70.4001 83.7 70.5001 83.6 70.7001 83.6C71.5001 81 69.0001 78.9 69.3001 76.3H69.2001C66.7001 75.6 67.2001 73.8 65.1001 72.7C64.8001 72.2 64.6001 71.7 64.3001 71.2C65.8001 72.1 65.3001 73.2 67.6001 73.8C68.4001 74 68.1001 74.5 68.5001 74.9C68.9001 75 69.2001 75.1 69.6001 75.3C69.7001 75.1 69.8001 74.9 70.0001 74.7C70.4001 74.5 72.9001 77.6 74.4001 77.2C74.8001 77.1 72.5001 74.7 72.2001 72.7C73.3001 72.2 78.0001 72.3 78.4001 72.5C78.5001 72.5 78.6001 72.5 78.7001 72.5C78.7001 72.2 78.8001 71.9 78.8001 71.6C78.3001 70.9 77.9001 70.5 77.5001 70.1ZM66.0001 51.8C65.7001 53.2 66.6001 54.7 68.3001 56C63.9001 56.7 63.6001 55.1 63.4001 53.1C63.2001 51.1 63.1001 48.9 58.8001 48.4C63.5001 47.7 66.0001 50.7 66.0001 51.8ZM64.6001 80.5C64.6001 80.4 64.5001 80.3 64.5001 80.3C64.1001 79.4 63.5001 78.5 62.8001 77.6C62.7001 77.3 62.5001 77.1 62.4001 76.8C62.8001 77.1 63.2001 77.3 63.6001 77.6C63.9001 77.9 64.2001 78.1 64.4001 78.4C64.7001 79.1 64.7001 79.8 64.6001 80.5ZM34.8001 74.8C34.9001 74.8 34.9001 74.8 34.8001 74.8C34.9001 74.8 34.8001 74.8 34.8001 74.8ZM34.6001 73.8C34.3001 73.6 34.0001 73.4 33.8001 73C34.0001 73 34.2001 73 34.4001 73.1C34.5001 73.3 34.6001 73.6 34.6001 73.8ZM32.3001 67.3C32.2001 67.6 32.2001 67.9 32.1001 68.1L31.9001 67.3C31.9001 67.2 31.9001 67 31.8001 66.9C31.4001 66.6 31.1001 66.3 30.7001 65.9C30.7001 65.8 30.7001 65.7 30.7001 65.6C31.1001 65.9 31.5001 66.2 31.8001 66.5C31.8001 65.7 31.8001 64.9 31.7001 64.1C31.8001 64.1 31.9001 64 32.0001 64C32.3001 65 32.5001 65.9 32.4001 67C32.8001 67.3 33.2001 67.7 33.6001 68V68.1C33.1001 67.9 32.7001 67.6 32.3001 67.3ZM13.7001 32.3C14.4001 33 14.4001 33.7 14.7001 34.5C14.8001 34.6 14.9001 34.7 14.9001 34.8C13.8001 34 13.7001 32.9 12.8001 31.9C13.3001 32 13.7001 32.2 13.7001 32.3ZM26.1001 57.1C26.1001 57.2 26.1001 57.2 26.0001 57.3V57C26.0001 57.1 26.0001 57.1 26.1001 57.1ZM11.6001 30.3C11.7001 30.3 11.8001 30.3 11.9001 30.3C12.0001 30.6 12.0001 30.8 12.1001 31.1C11.9001 31 11.8001 30.8 11.6001 30.7C11.6001 30.5 11.6001 30.4 11.6001 30.3ZM32.9001 62.2C32.8001 62 32.7001 61.9 32.6001 61.7C32.9001 61.8 33.1001 61.9 33.4001 62C33.5001 62.1 33.7001 62.2 33.8001 62.3C33.9001 62.5 34.0001 62.7 34.0001 62.9C33.6001 62.7 33.3001 62.5 32.9001 62.2ZM38.0001 64.8L38.1001 64.9C38.7001 65.7 39.4001 66.4 40.0001 67.1C39.5001 66.9 39.1001 66.5 38.8001 66.2C38.6001 65.9 38.4001 65.7 38.1001 65.4C38.1001 65.1 38.0001 64.9 38.0001 64.8ZM60.0001 62.1C59.8001 62 59.8001 61.8 59.8001 61.6C59.9001 61.8 60.0001 62 60.0001 62.1ZM36.5001 10.9C36.4001 10.9 36.3001 11 36.2001 11C36.0001 10.7 35.8001 10.5 35.7001 10.2C36.2001 10.4 36.5001 10.7 36.5001 10.9ZM34.2001 9.8C34.3001 9.8 34.4001 9.8 34.5001 9.8C35.0001 11.9 35.7001 14.1 35.0001 15.6C34.6001 13.7 33.8001 11.5 34.2001 9.8ZM16.2001 11.2C16.1001 11.2 16.0001 11.2 15.9001 11.2C15.7001 11 15.5001 10.8 15.4001 10.7C15.9001 10.8 16.2001 11 16.2001 11.2ZM13.9001 10.3C14.0001 10.3 14.1001 10.3 14.2001 10.3C14.6001 11.7 15.4001 13.1 14.6001 14C14.2001 12.8 13.4001 11.3 13.9001 10.3ZM6.30007 17.3H6.20007H6.30007ZM5.60007 19.5C5.70007 19.5 5.80007 19.5 5.90007 19.5C6.00007 19.9 6.00007 20.3 6.20007 20.6C6.30007 20.7 6.40007 20.8 6.60007 20.9C6.60007 21.1 6.50007 21.3 6.50007 21.4C6.30007 21.1 6.10007 20.7 5.80007 20.4C5.60007 20.1 5.60007 19.8 5.60007 19.5ZM15.2001 52.3C14.9001 52 14.7001 51.6 14.4001 51.3C14.6001 51.4 14.7001 51.5 14.9001 51.6C15.0001 51.8 15.1001 52 15.2001 52.3ZM14.4001 50.5C14.0001 50.1 13.6001 49.7 13.1001 49.4C13.1001 49.5 13.1001 49.6 13.1001 49.6C13.0001 49.5 12.9001 49.3 12.8001 49.2C12.9001 49.3 13.0001 49.3 13.1001 49.4C13.1001 49.2 13.2001 48.9 13.3001 48.6C13.5001 48.7 13.6001 48.8 13.8001 48.8C14.0001 49.3 14.2001 49.9 14.4001 50.5ZM52.1001 77.1C52.3001 77.3 52.5001 77.4 52.6001 77.6C52.8001 77.8 53.0001 78 53.1001 78.2C52.7001 77.9 52.3001 77.5 52.1001 77.1ZM53.4001 78.4C53.4001 78.4 53.3001 78.4 53.4001 78.4C53.0001 73.8 52.9001 69.4 48.3001 65.9C48.0001 65.3 47.6001 64.6 47.1001 64C47.1001 63.7 47.0001 63.5 47.0001 63.2C47.3001 63.2 47.6001 63.1 47.9001 63.1C48.6001 64.1 49.2001 65 50.3001 65.6C50.3001 65.6 50.4001 65.6 50.4001 65.7C50.4001 65.9 50.0001 66.1 50.0001 66.4C50.8001 66.8 51.6001 67.5 51.6001 68.2C51.8001 69.1 52.1001 70 52.5001 70.8C52.0001 69 51.6001 67.3 50.4001 65.8C52.8001 68.3 53.5001 71.1 54.3001 73.8C54.5001 74 54.7001 74.3 54.9001 74.5C55.2001 75 55.2001 75.5 55.0001 75.9L55.1001 76.1L55.2001 76C54.9001 76.7 54.3001 77.3 54.2001 78.1L54.6001 78.3L53.4001 78.4ZM66.3001 82.8C66.0001 82.6 65.6001 82.4 65.3001 82.3C65.2001 81.8 65.0001 81.2 64.8001 80.7C65.2001 81.5 65.7001 82.2 66.3001 82.8C66.4001 82.7 66.4001 82.5 66.4001 82.4C66.5001 82.7 66.6001 83.1 66.8001 83.4C66.6001 83.2 66.4001 83 66.3001 82.8ZM69.5001 69.3L69.4001 69.2C69.1001 69.6 68.5001 70.1 68.4001 70.6L68.8001 70.7L67.6001 70.8C64.7001 69.9 66.5001 68.2 65.2001 67C64.4001 66.3 63.8001 65.5 63.2001 64.7C62.9001 63.8 62.4001 62.9 61.7001 62C62.7001 62.5 63.7001 62.9 64.4001 63.4C67.0001 64.7 67.8001 66.3 68.6001 67.9C68.8001 68 69.0001 68.2 69.2001 68.3C69.5001 68.6 69.5001 68.8 69.4001 69.1L69.5001 69.3Z" fill="#29383F"/>
<path d="M66.7001 66.4C67.3001 67.5 67.8001 68.6 69.4001 69.3V69.2C69.1001 68.8 68.9001 68.4 68.7001 68C67.9001 67.5 67.2001 67 66.7001 66.4Z" fill="#29383F"/>
<path d="M78.3001 64.7C78.3001 64.6 78.3001 64.3 78.2001 64.2C78.0001 64.1 77.7001 64.1 77.5001 64C77.5001 64.1 77.5001 64.2 77.5001 64.4L78.3001 64.7Z" fill="#29383F"/>
<path d="M71.4001 57.6C73.1001 59.8 74.8001 61.8 76.6001 63.8C76.9001 63.9 77.2001 63.9 77.5001 64C77.6001 62.6 77.0001 61.2 74.7001 60.1C74.3001 59.9 73.1001 59.6 73.1001 59.3C72.6001 58.1 71.3001 57 70.1001 55.9C70.5001 56.5 70.9001 57 71.4001 57.6Z" fill="#29383F"/>
</svg>
