<svg width="146" height="263" viewBox="0 0 146 263" fill="none" xmlns="http://www.w3.org/2000/svg">
<path d="M145.859 260.965C145.382 260.965 144.904 261.072 144.332 261.072C142.232 261.394 140.228 261.394 138.129 261.501C136.125 261.501 134.025 261.608 131.925 261.715C130.971 261.822 129.826 261.715 128.681 261.715L125.341 261.608C124.768 261.608 124.195 261.608 123.623 261.501L122 261.287L118.66 260.858C114.27 260.323 109.88 259.359 105.586 258.288C105.109 258.395 105.013 258.502 106.063 258.824C107.208 259.145 109.403 259.895 113.984 260.644C109.498 260.002 107.113 259.145 106.063 258.824C104.918 258.395 105.109 258.288 105.586 258.288C106.731 258.074 109.689 258.288 104.918 256.682C113.602 258.824 122.478 259.895 131.448 259.68C133.548 259.573 135.647 259.466 137.747 259.359C139.751 259.252 141.851 259.252 143.95 258.931C144.618 258.824 145.286 258.824 145.954 258.717V230.66C142.805 230.982 139.656 231.41 136.411 231.41L130.78 231.624L125.722 231.41C118.851 230.875 111.98 229.375 105.109 226.912C91.4615 222.094 78.4824 213.848 67.2212 203.568L64.3582 200.784C63.8811 200.248 63.4039 199.927 62.9267 199.392L61.5907 197.893L58.9185 195.001L56.3418 192.003L55.0057 190.504L53.7651 188.897L51.2838 185.792L48.9934 182.579L47.5619 181.294L46.5121 179.581L44.4126 176.261L42.5039 172.835L41.5496 171.121L40.6906 169.408L38.8774 165.874L37.3504 162.233L36.587 160.413L35.9189 158.592L34.5829 154.844L33.4377 151.096C33.2468 150.561 33.0559 149.811 32.865 149.276L32.3879 147.456C32.1016 146.171 31.8153 144.886 31.529 143.601C31.1473 141.031 30.5746 138.461 30.3838 135.998C29.7157 130.858 29.7157 125.717 30.002 120.684L30.3838 116.936C30.4792 116.401 30.5746 115.651 30.6701 115.116L30.9564 113.296C31.2427 110.726 31.9107 108.37 32.4833 105.907C32.5788 105.371 32.7696 104.729 32.9605 104.193L33.5331 102.48L34.1057 100.767C34.2012 100.231 34.392 99.5888 34.6783 99.0534C35.6326 96.8046 36.4915 94.4487 37.6367 92.307C38.2093 91.2362 38.6865 90.1653 39.2591 89.0945C39.9272 88.0236 40.5952 87.0599 41.1678 85.989C41.4541 85.4536 41.7404 84.9182 42.1221 84.3827L43.1719 82.8836C43.9354 81.9198 44.6034 80.8489 45.2714 79.8852C46.0349 79.0285 46.7984 78.0648 47.5619 76.9939L48.7071 75.4947L49.9477 74.1026C50.8066 73.2459 51.5701 72.2822 52.429 71.3184C53.2879 70.4617 54.1468 69.605 55.0057 68.6413C62.1633 61.6808 70.2752 55.8982 78.7688 50.8652C87.2624 45.8323 96.2332 41.6559 105.109 38.1221C114.079 34.5883 122.955 31.6971 131.639 29.2341C136.983 27.7349 141.66 26.4499 145.859 25.3791V14.4564C145.573 14.4564 145.382 14.4564 145.095 14.4564C134.311 14.9919 120.092 16.9194 103.772 21.8453C103.582 21.3099 103.104 20.0248 102.914 19.3823C111.121 16.7052 117.706 14.7777 123.241 13.2785C128.681 11.7793 132.88 10.6014 136.029 9.74471C139.178 8.88804 141.278 8.13844 142.805 7.49593C144.236 6.96051 144.904 6.31801 145.095 5.78258C145.859 3.74797 138.988 2.46295 142.996 0C125.627 3.10546 108.449 7.49594 91.6524 13.8139C74.856 20.1319 58.2505 28.1633 42.9811 39.4072C42.1222 40.0497 41.0724 41.0134 40.0226 41.9772C38.9728 42.941 37.8276 44.0118 36.587 45.0826C35.4418 46.2606 34.2011 47.4385 32.9605 48.7236C32.2925 49.259 31.6244 49.9015 31.0518 50.544C30.4792 51.1865 29.8112 51.9361 29.2386 52.5786C28.666 53.2211 27.998 53.9707 27.4254 54.6132C26.8527 55.2557 26.2801 56.0053 25.7075 56.6478C24.5623 58.0399 23.5126 59.5391 22.4628 60.717C22.1765 61.0383 21.9856 61.3595 21.6993 61.6808C21.5084 62.002 21.2221 62.3233 21.0313 62.6446C20.5541 63.2871 20.0769 64.0367 19.6952 64.5721C18.8363 65.8571 18.0728 67.035 17.4048 67.9988C9.67464 80.3135 4.13944 94.2345 2.0399 108.691L1.6582 111.475L1.46732 112.867L1.37185 114.259L0.894679 119.614C0.703811 121.327 0.799291 123.254 0.703857 124.968V127.752C0.703857 128.716 0.799268 129.572 0.799268 130.536L1.08556 135.89L1.6582 141.138C1.84906 142.851 2.23076 144.671 2.51707 146.385C2.8988 148.098 3.18514 149.919 3.56687 151.525L4.8075 156.665C4.99837 157.522 5.18925 158.378 5.47555 159.235L6.23901 161.805C7.19335 165.232 8.5294 168.444 9.67461 171.657C10.2472 173.37 11.0107 174.869 11.6788 176.476L12.7285 178.831C13.1102 179.581 13.492 180.438 13.8737 181.187L16.1641 185.792L18.6454 190.289C19.0272 191.039 19.4089 191.896 19.886 192.538L21.2221 194.68C22.1765 196.179 23.0354 197.571 23.9897 198.963C25.9938 201.748 27.8071 204.532 29.9066 207.209C33.9148 212.563 38.4957 217.596 43.1719 222.415C45.5578 224.771 47.8482 227.127 50.5203 229.268C52.9062 231.517 55.5783 233.659 58.2505 235.693C59.5866 236.764 60.9227 237.728 62.2587 238.692C63.5948 239.656 64.9309 240.619 66.3624 241.583L70.5614 244.367C71.9929 245.224 73.4244 246.081 74.856 246.937L77.051 248.222L79.246 249.4C80.7729 250.043 82.2044 251.007 83.7314 251.649C86.8807 253.041 89.9345 254.54 93.1793 255.611C96.3286 256.896 99.5734 257.753 102.914 258.824C104.536 259.359 106.254 259.68 107.876 260.109C108.735 260.323 109.498 260.537 110.357 260.644L112.934 261.18L115.511 261.715L116.751 261.929L118.088 262.143L123.241 262.679C124.959 262.786 126.772 262.786 128.49 262.893C129.349 263 130.303 263 131.067 263L133.452 262.893L138.32 262.679L140.705 262.572H141.946L143.187 262.465L145.573 262.25V260.965H145.859Z" fill="#E3B49C"/>
</svg>
