<svg width="153" height="172" viewBox="0 0 153 172" fill="none" xmlns="http://www.w3.org/2000/svg">
<path d="M0.209119 5.31253C0.67511 5.30457 1.13676 5.22884 1.69597 5.21929C3.73341 4.98097 5.69058 4.94756 7.73665 4.84478C9.69383 4.81136 11.7399 4.70855 13.786 4.60578C14.7136 4.5221 15.8363 4.57076 16.9547 4.55166L20.221 4.56372C20.7802 4.55417 21.3394 4.54464 21.9029 4.60287L23.4959 4.71132L26.775 4.9267C31.0837 5.19233 35.4096 5.72902 39.6466 6.33507C40.1083 6.25934 40.1972 6.18998 39.1591 6.00419C38.0278 5.81998 35.8541 5.38222 31.3504 4.98424C35.7566 5.31605 38.121 5.81839 39.1591 6.00419C40.2947 6.25616 40.1126 6.32712 39.6466 6.33507C38.5368 6.4897 35.6391 6.40351 40.3636 7.34045C31.7964 6.12993 23.0858 5.60026 14.3338 5.88539C12.2877 5.98817 10.2417 6.09097 8.19559 6.19375C6.24273 6.29494 4.19236 6.32995 2.1549 6.56827C1.50682 6.64717 0.854436 6.65833 0.206355 6.73725L1.33443 24.4923C4.39706 24.2364 7.45541 23.9129 10.6242 23.8588L16.1142 23.6293L21.0624 23.6805C27.7942 23.9047 34.5648 24.7389 41.3741 26.1829C54.8953 29.0049 67.9018 34.0065 79.3126 40.3244L82.2205 42.0386C82.7081 42.3695 83.187 42.5648 83.6745 42.8957L85.0395 43.8221L87.7653 45.6073L90.4022 47.4618L91.7673 48.3883L93.0435 49.3841L95.5915 51.308L97.9574 53.3028L99.4071 54.0921L100.501 55.1589L102.685 57.2247L104.687 59.3614L105.688 60.4298L106.595 61.4997L108.508 63.7058L110.146 65.9844L110.965 67.1237L111.69 68.2646L113.146 70.6142L114.415 72.967C114.623 73.3026 114.839 73.7738 115.047 74.1095L115.586 75.2536C115.918 76.062 116.249 76.8704 116.58 77.6789C117.056 79.2989 117.719 80.9158 118.004 82.4712C118.863 85.7129 119.07 88.9658 118.993 92.1556L118.771 94.5338C118.699 94.8742 118.636 95.3502 118.564 95.6906L118.358 96.8475C118.181 98.4787 117.624 99.9807 117.164 101.549C117.092 101.889 116.931 102.299 116.767 102.641L116.276 103.735L115.786 104.829C115.714 105.169 115.554 105.579 115.296 105.923C114.454 107.362 113.71 108.867 112.678 110.241C112.162 110.928 111.739 111.614 111.223 112.301C110.613 112.99 110 113.611 109.483 114.298C109.225 114.642 108.967 114.986 108.616 115.331L107.651 116.297C106.944 116.92 106.335 117.609 105.721 118.23C105.01 118.784 104.303 119.407 103.601 120.098L102.543 121.065L101.387 121.967C100.583 122.523 99.8759 123.146 99.0759 123.77C98.2715 124.327 97.4672 124.883 96.6671 125.508C89.9571 130.032 82.2677 133.826 74.1754 137.153C66.0831 140.48 57.4903 143.272 48.965 145.657C40.3464 148.043 31.7952 150.02 23.4131 151.724C18.2543 152.762 13.7392 153.653 9.6815 154.401L10.1207 161.313C10.4003 161.308 10.5867 161.305 10.8663 161.3C21.3762 160.782 35.1853 159.325 50.9242 155.935C51.1321 156.271 51.6498 157.076 51.862 157.479C43.9546 159.31 37.6014 160.64 32.2561 161.681C27.0041 162.721 22.9507 163.536 19.9096 164.131C16.8685 164.725 14.8482 165.235 13.3829 165.667C12.0065 166.03 11.3799 166.447 11.215 166.789C10.5512 168.09 17.3132 168.788 13.4979 170.414C30.3352 168.159 46.9344 165.094 63.0833 160.816C79.2323 156.537 95.1259 151.178 109.586 143.807C110.399 143.387 111.385 142.759 112.371 142.132C113.358 141.504 114.433 140.808 115.602 140.109C116.673 139.345 117.837 138.578 118.997 137.745C119.628 137.395 120.254 136.977 120.788 136.561C121.321 136.145 121.943 135.659 122.477 135.243C123.01 134.827 123.632 134.341 124.166 133.925C124.699 133.509 125.228 133.025 125.761 132.609C126.824 131.709 127.789 130.743 128.766 129.98C129.033 129.772 129.207 129.565 129.473 129.357C129.647 129.15 129.913 128.942 130.087 128.736C130.527 128.321 130.963 127.839 131.314 127.494C132.101 126.666 132.8 125.908 133.413 125.287C140.467 117.365 145.313 108.463 146.782 99.2792L147.043 97.5109L147.173 96.6267L147.211 95.7442L147.461 92.3479C147.579 91.2604 147.408 90.0422 147.432 88.9563L147.32 87.1943C147.282 86.5844 147.154 86.0439 147.115 85.434L146.62 82.0504L145.85 78.7394C145.595 77.6583 145.149 76.5126 144.8 75.4331C144.359 74.3552 144.006 73.2079 143.569 72.1977L142.15 68.9656C141.93 68.4266 141.709 67.8877 141.395 67.3503L140.546 65.7366C139.476 63.584 138.042 61.5733 136.794 59.5593C136.166 58.4846 135.36 57.5486 134.644 56.5432L133.524 55.0699C133.121 54.6018 132.713 54.0661 132.311 53.5981L129.889 50.7223L127.285 47.9174C126.882 47.4494 126.474 46.9137 125.983 46.515L124.592 45.1819C123.599 44.2491 122.705 43.3825 121.717 42.5174C119.648 40.7889 117.765 39.0571 115.607 37.398C111.477 34.0765 106.801 30.9678 102.041 27.9963C99.6162 26.5452 97.2847 25.0925 94.589 23.7817C92.1687 22.3984 89.4729 21.0876 86.7816 19.8446C85.4337 19.1892 84.0902 18.6015 82.7467 18.0139C81.4031 17.4263 80.0596 16.8387 78.6229 16.2527L74.4102 14.5607C72.9778 14.0425 71.5454 13.5242 70.113 13.0059L67.9177 12.2293L65.7268 11.5205C64.2098 11.1394 62.773 10.5533 61.256 10.1722C58.1245 9.34371 55.0819 8.44591 51.8701 7.82235C48.7428 7.06167 45.5396 6.57364 42.2346 5.95167C40.6287 5.63989 38.9382 5.46522 37.3366 5.22121C36.4892 5.10001 35.735 4.9772 34.8919 4.92376L32.354 4.6279L29.8161 4.33203L28.596 4.21721L27.2825 4.10394L22.2283 3.85105C20.5464 3.81193 18.7757 3.84216 17.0938 3.80303C16.2507 3.74959 15.3187 3.76552 14.5731 3.77825L12.2474 3.88579L7.50294 4.10251L5.17728 4.21007L3.96566 4.23076L2.75839 4.31922L0.437045 4.49454L0.488713 5.30775L0.209119 5.31253Z" fill="#A4B8C4"/>
</svg>
