<svg width="157" height="270" viewBox="0 0 157 270" fill="none" xmlns="http://www.w3.org/2000/svg">
<path d="M125.799 241.271C131.996 248.288 139.337 254.967 147.345 261.376V260.769C139.623 254.495 132.473 248.018 125.799 241.271Z" fill="#D7D1A0"/>
<path d="M138.193 244.172C141.148 246.804 144.199 249.367 147.345 251.931V246.804C146.01 246.466 144.771 246.062 143.436 245.724C141.72 245.185 140.004 244.645 138.193 244.172Z" fill="#D7D1A0"/>
<path d="M88.8101 243.633C103.587 258.138 121.128 272.036 140.004 285.125C142.483 286.811 144.961 288.498 147.44 290.185V289.577C142.673 286.474 138.002 283.168 133.521 279.66C119.221 267.921 101.871 255.507 88.8101 243.633Z" fill="#D7D1A0"/>
<path d="M128.181 164.9C106.159 159.03 104.443 170.634 121.412 182.103C120.745 182.778 119.601 183.925 118.933 184.6C100.057 174.952 103.775 185.342 98.2459 187.298C108.351 191.481 117.98 196.271 126.56 202.343C129.039 203.288 134.473 205.379 136.951 206.324C143.339 208.82 149.726 211.181 156.113 213.543V174.682C153.063 173.468 150.012 172.321 147.057 171.174C140.669 168.678 134.282 166.586 128.181 164.9Z" fill="#D7D1A0"/>
<path d="M146.854 79.3589C142.469 77.7397 138.084 76.2555 133.889 74.8387C129.694 73.4219 125.5 72.3424 121.305 71.6003C112.82 70.251 107.863 72.9496 107.005 76.9976C102.238 72.4099 97.4715 67.7548 92.8002 63.0321C73.8288 44.8837 60.9588 21.9451 44.1801 6.90013C28.7361 -6.25579 18.7261 3.6618 25.0181 19.8537C23.9695 20.191 21.9675 20.7982 21.0141 21.1355C11.5761 5.88812 7.19082 16.4804 0.612809 16.278C6.33281 23.4968 10.9088 31.188 13.7688 39.5538C15.2941 41.3754 18.1542 45.0861 19.6795 46.9077C37.0302 68.4294 55.5249 89.074 76.4029 108.842C86.7942 118.759 97.9482 128.407 109.77 137.785C121.591 147.162 134.175 156.27 147.617 165.109C130.648 153.572 115.68 141.63 101.476 129.419C87.3662 117.207 74.2102 104.659 61.2449 91.7053C61.9122 91.5703 63.2468 91.9077 62.9608 90.7607C78.1189 103.107 90.5122 116.061 104.145 128.609C111.009 135.019 118.159 141.158 125.976 147.095C133.889 153.032 142.469 158.632 152.098 163.827C151.24 164.231 149.714 165.311 148.856 165.851C151.049 167.267 153.337 168.684 155.625 170.101V162.342C153.146 160.656 150.668 158.969 148.189 157.282C129.313 144.194 111.867 130.228 96.9949 115.791C110.151 127.665 127.406 140.146 141.611 151.818C146.187 155.326 150.858 158.632 155.53 161.735V133.669C147.522 127.26 140.276 120.581 133.984 113.564C140.658 120.311 147.808 126.788 155.53 133.062V124.224C152.384 121.66 149.333 119.097 146.378 116.465C148.094 117.005 149.905 117.477 151.621 118.017C152.956 118.354 154.195 118.759 155.53 119.097V82.5298C152.67 81.4503 149.714 80.4384 146.854 79.3589Z" fill="#D7D1A0"/>
</svg>
