<svg width="217" height="217" viewBox="0 0 217 217" fill="none" xmlns="http://www.w3.org/2000/svg">
<path d="M95.3021 4.8437C96.513 4.23824 98.0266 4.8437 97.4212 5.14643C100.146 3.9355 100.146 4.8437 100.448 3.02731C101.962 1.81639 104.081 2.72458 102.265 3.63277L107.109 1.81639L104.081 2.11912C104.687 0.605462 109.228 1.51366 109.833 0L104.384 1.21092L104.687 0.605462C103.476 1.21092 101.054 1.51366 100.146 1.51366C100.146 1.21092 100.146 0.908193 101.054 0.605462C94.0911 1.81639 99.5403 3.33004 94.0911 4.8437C94.3939 5.14643 94.6966 4.8437 95.3021 4.8437Z" fill="#A9CCE0"/>
<path d="M88.9448 3.02742L87.1284 5.14654C85.9175 5.44927 84.4038 5.44927 83.1929 5.752C83.1929 6.35746 80.771 7.87112 82.5874 7.56839C82.5874 7.56839 83.4956 7.26566 84.1011 6.96293C84.1011 8.47658 79.2574 9.38478 80.771 9.99024C83.7983 8.77931 84.1011 8.77931 85.9175 7.26566C88.642 6.6602 90.7612 6.35746 92.2748 6.6602C93.183 6.35746 92.8803 5.44927 94.0912 5.14654C93.7885 5.14654 93.7885 5.14654 93.4857 5.44927L92.8803 3.63288C91.6694 4.23835 90.7612 4.23835 89.853 4.54108L94.0912 1.21104C92.2748 -0.302621 87.7338 2.11923 85.9175 1.8165C88.3393 2.72469 84.1011 3.02742 88.9448 3.02742Z" fill="#A9CCE0"/>
<path d="M155.546 170.74C156.151 170.135 156.151 169.529 156.151 169.227C153.729 171.648 151.005 173.768 148.28 175.887C148.885 176.189 151.61 174.676 150.096 176.189C151.005 176.189 153.124 174.07 152.821 173.162V174.373C154.032 172.254 156.454 172.557 155.848 174.07C156.757 171.648 157.665 169.227 158.27 166.805C156.151 168.016 157.665 168.621 155.546 170.74Z" fill="#A9CCE0"/>
<path d="M109.531 25.7323C111.044 25.7323 111.044 25.4296 111.044 25.1268C110.439 25.4296 109.833 25.7323 109.531 25.7323Z" fill="#A9CCE0"/>
<path d="M158.573 164.686L159.178 162.264C158.876 163.475 158.573 164.08 158.573 164.686Z" fill="#A9CCE0"/>
<path d="M159.178 188.602L159.784 187.693C159.481 187.996 159.178 188.299 159.178 188.602Z" fill="#A9CCE0"/>
<path d="M180.067 124.725C180.067 124.422 180.067 124.422 180.37 124.12C180.067 124.12 180.067 124.422 180.067 124.725Z" fill="#A9CCE0"/>
<path d="M132.841 210.701L137.684 207.371C137.079 208.279 139.803 207.068 138.895 207.976C139.198 207.673 141.014 206.765 140.409 206.765L139.501 207.371C141.62 204.646 139.803 204.949 143.436 201.619C140.409 201.922 139.501 203.435 138.29 204.646C137.987 204.949 137.382 205.252 137.079 205.554L133.446 209.49L132.841 210.701Z" fill="#A9CCE0"/>
<path d="M177.948 34.8141L177.342 35.1168C177.645 35.1168 178.856 35.4195 177.948 34.8141Z" fill="#A9CCE0"/>
<path d="M158.876 166.199C158.573 165.897 158.573 165.594 158.573 164.988L158.27 166.805C158.27 166.502 158.573 166.199 158.876 166.199Z" fill="#A9CCE0"/>
<path d="M158.573 171.043L155.848 173.768C155.546 174.373 155.546 174.676 155.243 175.281C156.151 174.373 157.362 172.859 158.573 171.043Z" fill="#A9CCE0"/>
<path d="M176.737 129.569C179.764 122.606 177.645 131.991 179.461 128.964C180.067 126.844 179.764 125.936 179.764 124.423C177.948 130.175 177.342 122.606 175.526 128.358C174.315 126.844 175.829 123.817 176.737 122.001C179.159 120.487 177.039 124.423 178.25 125.331C178.856 122.909 178.553 123.212 177.948 122.001C178.856 120.184 179.159 118.368 179.461 116.552C179.764 114.735 180.37 113.222 181.58 112.616C181.883 109.892 181.278 109.892 180.975 108.075C179.461 107.47 179.159 111.708 177.645 112.313C177.948 112.011 178.25 112.011 178.25 112.011C177.948 112.616 177.645 113.524 177.342 114.13C178.553 112.313 178.856 115.038 178.553 115.946C178.25 116.854 177.948 118.368 177.342 118.065V116.854C176.434 118.368 177.342 120.79 175.829 122.001C175.526 122.001 175.526 121.395 175.223 121.093C175.526 123.212 174.618 125.028 174.315 128.055L173.407 125.936C174.012 128.964 171.288 133.505 168.563 136.229C168.866 135.926 169.471 135.624 169.471 135.926C168.563 138.046 167.049 138.954 166.747 137.44C166.747 139.862 161.6 143.495 161.297 146.825C160.995 149.549 160.692 151.971 160.389 154.696C159.784 157.118 159.481 159.842 158.876 162.567C159.178 161.961 159.481 161.659 159.784 161.053C161.6 161.053 161.903 160.448 161.6 163.172C162.508 161.053 160.995 160.75 163.417 158.329C163.114 159.842 164.022 161.053 166.444 158.934C170.682 151.668 170.077 145.008 171.893 137.743C173.104 138.046 175.526 132.899 176.737 130.78C177.342 132.294 176.737 134.11 175.829 136.229C176.434 135.018 177.645 132.899 178.553 131.385L176.737 129.569Z" fill="#A9CCE0"/>
<path d="M170.985 147.127C171.288 147.127 171.288 146.825 171.59 146.825C171.288 146.825 171.288 146.825 170.985 147.127Z" fill="#A9CCE0"/>
<path d="M175.526 136.532C175.526 136.532 175.829 136.532 175.526 136.532L175.829 135.926C175.829 136.229 175.829 136.229 175.526 136.532Z" fill="#A9CCE0"/>
<path d="M161.903 166.502C161.903 167.108 161.6 167.41 161.6 168.016C161.6 167.713 161.903 167.41 162.206 167.108C162.206 166.502 162.206 166.502 161.903 166.502Z" fill="#A9CCE0"/>
<path d="M159.178 166.199V165.594C158.876 165.594 158.876 165.896 158.876 165.896C158.876 166.199 159.178 166.502 159.178 166.199Z" fill="#A9CCE0"/>
<path d="M181.883 122.303C180.975 124.725 183.397 123.211 181.883 126.844L182.489 125.936C182.186 128.661 179.764 133.202 178.25 135.926C177.948 135.321 176.737 137.44 175.829 136.532C174.92 138.651 174.012 140.467 174.315 142.284C173.407 143.192 172.801 145.614 171.59 146.825C172.499 146.522 171.893 150.155 173.71 145.916C173.71 146.219 173.71 146.219 173.71 146.522C176.131 144.705 175.223 142.889 176.434 140.77C177.645 139.862 176.131 143.192 177.04 142.284C178.25 139.559 182.186 134.11 180.067 133.504C180.975 131.385 181.581 131.385 182.186 131.083C181.581 127.147 187.938 119.579 184.911 118.368C184.608 119.579 184.002 121.395 184.002 123.514L181.883 122.303Z" fill="#A9CCE0"/>
<path d="M164.93 162.869L165.233 162.566C165.233 162.566 165.233 162.869 164.93 162.869Z" fill="#A9CCE0"/>
<path d="M132.841 177.098V174.676C137.684 171.346 139.803 170.438 144.042 167.41C144.647 167.41 144.042 168.016 144.042 168.319C146.766 165.897 151.307 162.567 152.518 159.842C153.426 158.934 156.151 157.118 155.545 158.631C155.848 158.026 156.151 157.42 156.756 157.118C157.362 157.42 155.848 158.328 156.454 158.934C156.756 158.631 157.059 158.631 157.059 158.328C156.756 159.539 159.481 159.237 156.454 162.264C154.032 162.264 158.27 160.145 156.454 159.539C155.545 160.448 156.151 161.053 156.151 161.053C154.94 162.264 154.637 161.961 154.335 161.659C154.335 162.567 152.215 163.475 151.913 164.686C149.491 167.108 151.005 163.475 149.491 164.989L149.794 167.41L146.766 169.53C142.831 173.465 149.491 171.649 144.95 176.492C144.95 175.281 141.923 175.281 139.198 176.492C139.803 175.887 140.712 174.979 141.62 174.07C142.528 173.162 143.436 172.254 144.647 171.649C142.831 171.951 143.739 171.346 144.647 170.438C145.555 169.53 146.766 168.621 145.555 168.319C144.95 170.135 142.831 171.649 141.014 172.254L141.317 171.649C139.501 172.86 139.198 175.281 136.171 176.19C134.96 176.795 134.96 176.19 134.96 175.887C134.052 176.492 133.143 177.401 132.841 177.098ZM135.565 175.281C136.171 174.979 136.776 174.676 137.382 174.373C136.776 174.373 136.171 174.676 135.565 175.281Z" fill="#A9CCE0"/>
<path d="M57.7634 15.1367C58.0661 15.1367 58.3688 15.1367 58.3688 14.8339C58.3688 14.8339 58.0661 14.8339 57.7634 15.1367Z" fill="#A9CCE0"/>
<path d="M56.2498 195.261L55.0389 194.353C55.6444 194.959 55.9471 195.261 56.2498 195.261Z" fill="#A9CCE0"/>
<path d="M27.4903 178.006L25.674 176.492C26.5821 177.098 26.8849 177.703 27.4903 178.006Z" fill="#A9CCE0"/>
<path d="M43.535 23.6132L43.2323 23.9159L43.535 23.6132Z" fill="#A9CCE0"/>
<path d="M4.48276 117.157C4.48276 116.854 4.78549 116.552 4.78549 115.946C4.78549 116.249 4.48276 116.552 4.48276 117.157Z" fill="#A9CCE0"/>
<path d="M28.0958 178.309C27.7931 178.006 27.7931 178.006 28.0958 178.309L27.7931 178.006L28.0958 178.309Z" fill="#A9CCE0"/>
<path d="M66.8453 207.371C67.148 207.371 67.4507 207.371 67.7535 207.674C67.4507 207.371 67.148 207.371 66.8453 207.371Z" fill="#A9CCE0"/>
<path d="M67.1481 201.316C67.4509 201.316 67.7536 201.619 68.0563 201.619L67.1481 201.316Z" fill="#A9CCE0"/>
<path d="M117.401 211.004C118.007 210.701 118.612 210.701 119.218 210.398C118.31 210.398 118.007 210.701 117.401 211.004Z" fill="#A9CCE0"/>
<path d="M71.3863 204.646H71.689C71.689 204.344 71.3863 204.344 71.3863 204.646Z" fill="#A9CCE0"/>
<path d="M73.8081 11.201C74.4136 10.8983 74.7163 10.8983 75.3218 10.5956C74.7163 10.5956 74.1108 10.8983 73.8081 11.201Z" fill="#A9CCE0"/>
<path d="M6.29907 89.3055C6.60181 88.7001 7.20727 87.7919 7.20727 88.3973C7.20727 87.1864 5.99634 87.1864 6.29907 89.3055Z" fill="#A9CCE0"/>
<path d="M68.0562 29.6677C68.0562 29.3649 68.3589 29.0622 68.6617 28.7595C68.3589 29.3649 67.7535 29.6677 68.0562 29.6677Z" fill="#A9CCE0"/>
<path d="M68.6618 28.7593C68.9645 28.4566 68.9645 28.1539 69.2673 27.8511C68.9645 28.1539 68.6618 28.4566 68.6618 28.7593Z" fill="#A9CCE0"/>
<path d="M22.0412 101.415C22.0412 101.415 21.7385 101.718 21.7385 102.02C22.0412 102.02 22.0412 101.718 22.0412 101.415Z" fill="#A9CCE0"/>
<path d="M76.5328 10.2927C76.5328 9.68727 82.8902 6.65996 77.441 8.17362C77.1383 6.65996 80.771 6.35723 82.2847 5.44904C81.0738 5.44904 82.5874 4.54085 81.982 3.93538C81.3765 4.23811 80.4683 5.14631 79.2574 5.44904C78.3492 5.14631 80.1656 3.93538 81.6792 3.63265C79.5601 3.63265 83.7984 1.81626 80.771 2.119C75.3219 4.54084 71.6891 6.0545 68.6618 9.68727C70.1755 8.77908 71.6891 7.87089 73.2028 7.26542C74.7164 6.65996 76.2301 6.0545 77.7437 6.0545L77.1383 7.56816C75.6246 7.56816 74.4137 7.87089 73.2028 8.17362C71.9918 9.08181 71.0837 9.68727 69.57 10.2927C71.6891 9.68727 73.8082 9.08181 75.9273 8.47635C79.2574 8.47635 77.441 9.38454 75.0192 10.2927C75.9274 10.2927 76.2301 9.99001 76.5328 10.2927Z" fill="#A9CCE0"/>
<path d="M112.558 186.482L112.861 185.877C112.558 186.18 112.558 186.18 112.558 186.482Z" fill="#A9CCE0"/>
<path d="M101.357 187.391C101.357 187.391 101.659 187.088 101.962 187.088C101.357 187.088 101.357 187.088 101.357 187.391Z" fill="#A9CCE0"/>
<path d="M29.6095 149.549C29.9122 149.549 29.9122 149.852 30.2149 149.852C29.3067 148.944 28.7013 147.43 27.7931 146.219C27.1876 145.008 26.2794 143.797 25.674 144.1C25.9767 144.705 27.1876 148.944 26.2794 148.641C27.4903 149.852 27.7931 152.576 28.3985 153.182C27.7931 150.457 29.3067 152.274 30.5176 153.787C31.1231 155.301 29.3067 154.09 29.9122 155.301L32.0313 158.631L30.2149 155.604L31.7286 155.907C31.7286 155.907 31.4258 155.907 31.4258 155.604C28.3985 151.063 33.2422 154.09 29.6095 149.549Z" fill="#A9CCE0"/>
<path d="M30.2149 149.852C30.5176 150.155 30.8204 150.457 30.8204 150.457C30.5176 149.852 30.5176 149.852 30.2149 149.852Z" fill="#A9CCE0"/>
<path d="M23.2521 127.753C23.2521 127.45 22.9494 127.147 22.6466 126.844C22.6466 127.147 22.9494 127.45 23.2521 127.753Z" fill="#A9CCE0"/>
<path d="M152.821 177.098C152.518 176.795 149.491 178.309 150.096 178.914C151.005 178.309 151.913 178.006 152.518 177.4L152.821 177.098Z" fill="#A9CCE0"/>
<path d="M19.3166 65.3898C19.0139 65.6926 19.0139 65.9953 18.7112 66.298V66.6008C19.0139 66.298 19.0139 65.6926 19.3166 65.3898Z" fill="#A9CCE0"/>
<path d="M25.3711 147.733C25.6738 148.338 25.9766 148.338 26.2793 148.338C25.9766 148.036 25.6738 147.733 25.3711 147.733Z" fill="#A9CCE0"/>
<path d="M21.4356 65.9953C21.7384 65.6925 22.6466 65.0871 22.9493 65.3898C23.252 64.4816 23.252 63.5734 23.252 62.6652C22.9493 63.5734 22.3438 64.7843 21.4356 65.9953Z" fill="#A9CCE0"/>
<path d="M154.637 176.189L155.243 175.584L154.94 176.189C155.546 175.887 156.151 175.281 156.757 174.979C157.059 174.676 157.059 174.373 157.362 174.373V174.676L157.967 174.373C158.27 173.465 159.178 171.951 160.087 170.74C160.995 169.529 161.6 168.016 161.903 167.41C162.811 165.897 164.022 164.383 164.93 163.172C164.022 164.08 163.114 165.291 164.022 165.291C166.141 163.777 168.26 164.08 169.774 159.842L168.26 161.658L170.077 155.906C171.893 154.998 169.168 158.631 169.168 159.842C170.985 155.906 175.526 154.393 175.223 151.668C176.434 151.971 177.948 152.576 179.764 150.155C177.645 151.365 180.067 148.338 177.948 148.944C177.948 147.733 180.067 146.522 179.461 145.916L179.764 146.522C183.7 143.192 182.186 140.467 182.489 138.045C183.7 135.321 184.608 133.504 185.516 131.688C186.424 129.872 187.332 128.358 188.241 125.936C188.846 125.936 191.268 125.633 191.873 123.817C191.268 122.606 192.176 118.368 190.965 117.46C189.451 120.487 190.965 120.487 190.662 122.606C188.846 123.817 189.451 122.303 187.938 124.12C189.149 122.606 190.057 115.946 191.873 114.432V115.038C193.387 112.01 196.717 112.313 196.112 106.561C196.112 105.653 195.809 104.745 195.809 103.837L196.112 104.139C197.02 99.9012 198.231 101.415 197.625 96.2684C197.625 96.5712 197.928 96.5712 197.928 96.8739C199.139 94.1493 197.625 91.4247 197.625 89.3056C198.836 88.0947 198.533 89.6083 199.442 90.5165C199.744 89.3056 199.744 88.0947 199.442 86.8838C199.139 85.6728 199.139 84.4619 198.836 83.251C198.231 81.1319 197.322 79.0127 196.414 77.8018C196.414 76.8936 196.717 75.6827 196.717 74.7745C197.322 76.2882 198.836 78.4073 199.442 77.8018C198.836 76.2882 198.533 76.5909 198.533 74.1691C199.442 74.4718 200.047 75.38 200.955 76.2882C201.258 73.5636 200.35 73.5636 200.047 73.5636C199.442 73.5636 199.139 73.8663 199.744 71.7472C199.442 70.2335 198.231 69.6281 197.322 69.6281C197.322 68.7199 197.322 67.509 197.322 66.6008C196.717 66.6008 196.112 65.6926 195.506 64.7844C194.901 63.8762 194.295 62.6653 193.69 61.4544C193.084 61.4544 193.387 63.5735 194.295 64.1789C193.387 64.4817 192.176 62.3625 191.571 61.1516C192.479 60.2434 190.965 58.427 189.754 56.6106C188.543 54.7943 187.332 53.2806 188.846 53.2806C186.424 50.8588 183.094 48.1342 180.067 45.7123C178.553 44.5014 176.737 43.5932 175.526 42.9878C174.012 42.3823 172.801 41.7768 171.59 41.1714C170.682 39.9604 167.958 38.4468 170.077 38.4468C164.93 35.7222 161.6 36.6304 156.454 34.2085C156.151 33.9058 158.876 35.1167 158.876 34.2085C155.243 33.6031 152.821 30.8785 147.372 29.9703C148.28 30.273 148.583 29.9703 148.885 29.6676C148.885 29.9703 146.464 29.6676 144.95 29.6676C144.345 29.3649 146.161 29.6676 145.858 29.3649C140.712 27.5485 135.868 26.943 130.722 26.6403C125.878 26.3375 121.034 26.6403 115.585 26.0348C118.612 26.3375 120.126 25.1266 120.126 24.5212L117.099 24.2184C115.888 24.8239 113.466 24.5212 111.65 25.1266C111.347 24.8239 110.439 24.5212 111.347 24.2184C105.292 22.402 101.659 26.3375 94.3939 25.7321C97.1185 24.5212 100.449 23.613 103.476 22.7048L101.357 21.4938L105.292 20.2829C102.87 19.3747 100.751 21.1911 100.449 19.9802C101.054 19.6775 102.265 19.6775 102.265 19.072C99.2376 19.072 99.2376 19.9802 97.4212 20.2829C101.962 17.8611 111.044 18.4665 116.191 18.4665C117.099 18.4665 115.585 19.072 115.282 19.072C117.401 19.072 118.31 19.9802 121.034 19.9802C122.548 19.072 119.823 19.072 118.612 18.7693C118.915 17.8611 119.521 18.1638 120.731 18.1638C121.034 19.3747 128.3 19.3747 129.813 21.1911C137.079 22.0993 129.208 18.1638 136.171 19.9802L137.987 21.4938C142.225 21.4938 147.977 21.7966 152.518 23.613L151.61 23.3102C150.702 23.613 151.913 24.2184 152.216 24.8239C155.546 26.3375 159.178 26.0348 160.692 28.1539C165.233 28.4567 171.893 30.5758 176.737 32.3922C177.039 34.5113 170.379 30.273 167.958 30.5758C169.168 31.1812 170.682 31.7867 171.893 32.6949C169.471 31.484 168.26 31.484 166.444 31.7867C169.774 33.6031 171.59 32.9976 174.92 34.5113C174.315 34.814 174.618 35.1167 176.131 36.0249L177.039 35.4195C177.039 35.4195 177.039 35.7222 177.645 36.0249C179.764 36.9331 181.58 38.1441 183.397 39.355C182.489 38.1441 183.094 37.2359 181.58 36.3277C181.58 37.2359 180.37 36.3277 178.856 35.4195C180.672 35.7222 177.645 33.9058 177.948 33.6031C179.461 34.5113 180.975 35.4195 182.489 36.6304C184.002 37.5386 185.516 38.4468 186.424 39.355V40.5659C188.846 42.9878 191.873 45.1069 193.084 47.226L192.176 46.9233C193.387 48.4369 194.598 50.2533 196.112 51.767C197.322 53.2806 198.231 55.097 198.836 56.9134C200.35 58.1243 201.561 59.9407 203.074 61.4544C204.285 63.2707 205.496 64.7844 206.707 65.9953C207.615 66.6008 207.918 69.6281 208.221 72.6554C208.524 75.6827 208.524 79.3155 209.734 81.4346C209.734 81.7373 208.524 78.71 207.918 77.1964C207.918 78.71 208.524 79.9209 208.826 80.8291C209.129 81.7373 209.129 82.6455 208.524 82.9483C208.826 76.5909 207.313 83.251 207.01 80.5264C207.01 83.251 207.313 86.2783 207.918 87.792C207.918 83.251 209.734 89.6083 209.129 84.7646C209.432 85.6728 209.734 86.581 210.037 87.792C210.037 88.7002 210.34 89.9111 210.34 91.122C210.34 93.2411 210.34 95.663 209.734 97.7821C209.129 97.7821 208.826 98.0848 208.524 99.5985L209.129 101.112C208.826 102.929 208.524 97.1766 207.918 101.112C208.524 103.231 207.615 106.259 207.01 108.983C206.404 111.708 205.799 114.13 207.01 115.34C205.193 118.065 207.313 109.286 204.891 113.524C204.588 110.8 206.404 107.469 205.193 106.259C205.193 108.983 203.983 106.864 203.68 108.68L203.983 111.708L204.285 111.102C204.588 116.249 201.561 123.514 199.744 129.266C199.139 134.715 199.442 138.954 196.414 144.705C196.717 142.586 193.387 148.944 193.69 144.705C191.873 147.127 190.965 149.852 191.571 150.155C193.084 148.035 192.176 149.549 193.69 147.733C193.69 149.246 191.873 152.274 190.662 153.182C190.965 152.576 190.662 152.879 190.662 152.576C188.543 154.998 190.36 154.09 189.451 156.209C188.241 156.209 186.424 160.145 184.91 161.658L184.305 164.988C184.608 163.172 182.186 167.108 181.278 166.805C180.37 168.924 180.37 171.043 177.948 173.465C178.553 172.254 175.526 175.281 174.618 174.676C172.499 176.492 171.288 178.611 170.077 180.428C168.866 182.547 167.352 184.363 164.93 185.574C164.93 185.271 165.233 184.06 164.022 184.969C163.114 185.877 161.6 187.088 160.389 188.299C159.784 188.601 159.784 189.207 159.784 189.207C158.573 191.326 158.27 192.84 154.637 196.17C155.546 197.078 158.573 194.353 159.784 193.142L160.389 191.326C162.508 191.931 163.417 188.601 164.628 188.299C163.719 191.629 157.059 196.17 153.426 199.5C156.757 199.197 162.508 195.867 166.747 191.931L164.325 192.84L166.747 191.023L163.719 191.931C165.838 190.418 167.655 188.601 169.471 187.088C167.352 189.207 165.536 188.601 166.747 187.693C169.774 186.482 168.866 184.969 170.682 183.455C169.471 184.363 168.26 185.574 168.563 184.363C173.104 182.244 173.407 180.428 177.342 178.309C175.526 177.4 180.975 174.07 180.067 172.557L178.553 174.07C179.159 172.859 179.764 171.346 180.37 170.135C184.002 168.016 179.461 173.768 184.002 169.832C187.635 165.594 185.819 164.383 188.241 161.053C188.241 162.869 187.03 166.199 184.91 168.924C185.516 168.621 186.121 168.016 186.727 167.41C186.424 168.621 183.397 172.557 181.58 174.373C183.397 170.438 180.067 175.584 177.948 176.189C178.553 177.098 180.067 174.979 178.553 178.006C180.37 175.887 180.672 175.584 183.397 172.859C177.948 178.611 181.278 180.73 175.829 185.271C177.948 182.547 174.012 184.969 173.407 184.969C172.499 186.18 170.077 188.299 169.471 189.51L171.288 189.812C168.563 193.142 165.233 191.629 162.508 195.564C162.508 196.775 166.141 193.142 165.536 193.748C160.995 198.592 157.362 197.986 151.913 200.105C151.913 200.711 152.518 201.619 151.005 203.132C151.005 201.922 149.491 202.527 151.307 200.711C149.491 201.316 147.675 203.133 146.464 204.343C150.399 202.83 145.555 206.463 145.253 207.068C143.134 207.976 145.555 205.857 146.464 205.252C144.95 205.857 142.225 205.554 142.225 207.068C141.923 206.16 145.555 202.83 147.977 201.013H145.555C146.464 199.802 146.766 199.802 148.885 198.894C146.766 199.197 146.464 198.289 146.464 197.683C146.766 197.683 146.464 197.986 146.766 197.986C148.28 197.381 149.188 196.472 148.583 196.17C149.188 194.353 146.161 196.472 144.95 196.472C144.345 197.078 143.739 197.381 142.831 197.986C141.014 200.408 138.895 203.133 136.776 205.554C133.446 207.371 131.63 207.068 128.603 207.371L128.3 208.582C125.272 209.49 121.942 209.793 123.759 207.976C124.062 208.279 124.364 208.279 124.97 207.976C124.97 207.673 125.272 207.673 125.272 207.371V207.068C121.942 208.279 119.823 208.884 119.823 209.187C125.272 206.16 119.521 207.068 120.126 204.949C118.31 205.554 116.493 206.16 114.677 206.765C118.31 206.765 114.98 207.673 113.769 208.279C113.466 207.673 112.255 207.976 111.044 208.279C109.53 208.582 108.017 208.884 107.109 208.884V208.582C105.292 208.582 101.962 208.582 99.5403 208.884C99.5403 209.187 96.513 211.004 94.9993 211.912C99.2376 212.517 96.8157 212.82 97.1185 213.728C96.8157 213.728 95.9075 213.425 95.9075 213.728C95.3021 214.031 96.8157 214.334 96.8157 214.636C101.357 214.334 106.2 214.031 108.017 212.214C106.503 211.609 105.595 213.123 104.081 212.517C106.2 211.306 109.228 211.306 112.86 211.004L114.071 211.609L117.704 210.398C116.191 211.004 117.401 211.912 113.466 212.82C114.071 213.728 117.401 211.912 119.823 211.912L120.731 210.398C120.429 211.306 125.575 210.095 122.245 211.912C120.429 212.82 118.31 213.425 116.493 214.031L118.31 214.636L112.86 216.15L114.071 215.242C109.833 216.15 109.228 215.544 108.622 215.242C108.017 214.636 107.411 214.636 103.173 215.242C101.962 216.15 100.449 216.453 98.6321 216.453C96.8157 216.453 94.6966 216.453 92.2748 215.847C96.2103 215.847 92.8802 214.939 94.3939 214.031C90.7611 213.123 89.2475 214.031 87.1283 214.334C86.2201 213.425 85.6147 212.517 88.9447 213.425C89.5502 211.912 84.4038 213.123 84.4038 211.306C78.9546 210.095 76.5327 210.701 73.8082 211.004C72.2945 211.004 71.0836 211.306 69.2672 210.701C67.4508 210.095 65.3317 209.187 62.6071 207.371L62.9098 207.068C54.7361 204.041 51.1033 200.711 44.746 196.472C43.5351 194.656 42.3241 193.142 41.1132 191.326C42.3241 191.931 45.9569 193.142 45.0487 191.629C46.2596 194.656 48.9842 196.17 51.1033 198.592C51.7088 198.289 50.8006 197.381 50.4979 196.775C52.0115 197.683 52.3143 198.894 54.7361 200.105C54.7361 199.802 52.9197 197.986 54.7361 198.894C55.6443 199.802 56.2498 200.711 57.158 201.619C61.3962 203.435 60.488 200.408 64.7262 203.132C63.5153 203.738 61.0935 204.041 58.9743 203.132C61.0935 204.646 55.6443 201.922 57.4607 203.738C61.3962 204.041 62.3044 206.16 67.1481 207.068C66.5426 207.068 66.2399 207.371 65.3317 206.765C67.4508 207.673 69.2672 208.884 71.3863 209.793C70.1754 208.582 77.1382 210.701 76.8355 209.187C70.1754 206.463 71.689 207.976 64.7262 204.041C66.8454 204.646 70.1754 204.646 71.689 204.041C71.689 204.041 71.689 204.041 71.9918 204.343C73.5054 203.435 72.5972 202.83 73.2027 200.711C71.3863 200.711 69.8727 200.408 68.6617 199.802C67.1481 199.197 65.9372 198.592 63.818 197.986C62.6071 198.592 65.3317 200.711 67.4508 201.013C66.2399 200.711 65.029 200.408 63.818 200.105H64.7262C62.0017 198.592 59.2771 197.078 56.5525 194.959C58.0661 195.867 58.9743 195.564 59.8825 195.564C58.9743 194.959 58.0662 194.051 57.158 193.142C56.8552 194.353 56.2498 194.959 55.3416 194.051C52.9197 192.234 51.1033 190.721 50.1951 189.207C48.9842 187.693 48.3788 186.482 48.076 185.271C47.7733 185.271 47.7733 184.969 47.4706 184.969C47.4706 186.482 42.9296 183.758 40.8105 183.455C41.7187 182.547 39.2968 180.73 38.3886 179.217C36.875 179.519 36.2695 181.639 36.875 184.06C40.5077 186.18 39.2968 184.666 42.0214 184.969C43.8378 186.18 45.6542 187.39 47.4706 188.299C46.8651 188.299 46.2596 188.299 45.6542 188.299C47.7733 190.721 51.1033 191.629 50.1951 192.537C48.3787 192.234 46.2596 190.115 44.4432 189.51C44.746 190.115 45.3514 190.721 45.6542 191.326C41.7187 189.812 45.0487 188.904 40.8105 186.785C41.1132 188.904 40.5077 186.482 38.3886 185.877C38.9941 187.693 44.746 191.023 42.3241 191.931C41.1132 191.326 39.9023 189.51 38.6914 187.693C37.4804 185.877 36.2695 184.06 34.1504 183.455H34.4531C31.4258 179.822 29.6094 179.217 27.793 178.309C27.4903 177.4 26.5821 176.492 25.6739 175.584C24.7657 174.676 23.8575 173.768 23.2521 172.859L23.8575 172.557L21.7384 170.135C23.5548 170.74 23.8575 173.162 25.6739 175.281L26.2794 174.373C27.1876 177.703 29.9122 178.006 32.334 178.914C30.8203 178.006 29.3067 175.887 28.0958 174.373C26.8848 172.859 25.6739 171.346 24.463 171.951L24.1603 169.529L23.2521 168.924C22.9493 167.108 25.0685 167.713 26.8848 170.135C26.8848 170.74 26.8848 171.043 26.5821 171.043C27.793 171.951 29.3067 172.557 31.1231 175.281L29.6094 173.768C32.334 177.098 35.0586 179.822 36.875 179.822C32.9395 174.979 29.6094 170.438 26.2794 165.897C23.2521 165.897 21.133 164.988 18.7111 165.594C16.2893 162.567 13.2619 158.026 12.3538 154.696H12.9592C12.3538 153.182 11.7483 151.668 10.8401 150.76C10.5374 148.944 12.3538 151.365 12.3538 150.155C11.4456 148.641 10.2346 147.127 9.32644 145.311C10.2346 145.311 12.3538 149.549 13.2619 151.365C12.9592 151.063 12.3538 150.457 12.3538 150.76C12.9592 153.485 16.8947 156.512 15.9865 158.328C16.8947 159.236 13.8674 156.512 15.6838 160.447C16.592 163.172 18.4084 163.172 19.0138 163.172C19.6193 162.869 17.5002 158.934 18.7111 159.842C17.5002 158.026 16.592 157.42 15.6838 154.696C16.8947 156.512 19.3166 158.631 19.0138 160.145C22.3439 163.172 24.1603 161.053 23.2521 159.539C22.6466 160.447 18.4084 153.485 20.2248 158.934C18.1056 157.42 15.6838 153.485 13.8674 150.76H14.1701L12.051 147.127C12.6565 147.43 13.2619 148.641 13.8674 148.338C12.6565 146.825 11.1428 145.311 10.2346 143.797C12.3538 146.219 10.2346 141.678 10.2346 140.164C9.02371 139.862 7.81278 138.045 8.11551 140.164C8.41825 142.586 9.02371 141.375 9.9319 143.192L7.51005 140.77V140.467L5.69367 139.256C4.48274 135.018 8.72098 140.164 5.9964 135.321L4.78547 136.532C3.87728 133.504 3.27182 129.872 2.96909 126.239C2.66635 124.422 2.36362 122.909 2.36362 121.395C2.06089 119.881 2.06089 118.671 1.45543 117.46C2.66635 118.671 4.18001 118.671 4.78547 116.854C4.78547 117.762 5.0882 119.276 5.39093 120.79C5.69367 122.303 6.29913 123.817 6.60186 125.028C6.60186 125.633 3.87728 122.303 3.57455 119.276C1.1527 121.395 6.90459 126.239 4.18001 127.147C4.48274 131.082 5.69367 131.991 6.60186 133.202C7.51005 134.11 8.11551 135.321 8.72098 138.348C9.9319 138.045 9.9319 139.862 11.1428 139.862C12.051 137.44 8.11552 131.991 7.81278 127.752C8.11552 128.055 8.41825 128.963 8.72098 128.963C8.41825 125.936 7.81278 125.028 6.90459 122.909V123.211C4.78547 119.881 7.20732 120.79 7.51005 118.671C7.20732 117.762 6.90459 115.038 6.29913 115.643C6.60186 114.432 6.60186 112.919 6.90459 111.708L5.69367 112.01C5.39093 109.891 6.29913 109.286 5.0882 107.469H3.87728L4.18001 112.919C3.57455 110.194 2.96909 112.313 2.36362 109.286C3.87728 112.616 2.66635 106.864 3.87728 106.259L2.96909 104.139C2.96909 104.442 3.27182 104.442 3.27182 104.745C3.87728 102.929 2.66635 102.626 2.96909 100.507C2.36362 102.929 1.45543 104.745 2.66635 107.772C1.75816 105.653 0.849967 101.112 0.849967 99.9012C-0.663688 98.0848 0.244505 96.2684 0.547236 94.1493C0.849967 98.3875 3.87728 92.9384 3.27182 101.112C2.96908 101.112 2.96908 100.204 3.27182 99.9012C1.75816 101.112 3.27182 105.048 4.18001 106.864C5.0882 106.259 5.39093 108.075 5.69367 105.048C5.0882 106.259 3.57455 102.323 4.18001 99.2957L5.9964 99.9012C5.9964 98.3875 5.9964 96.8739 6.29913 95.663V95.9657C7.51005 94.452 6.29913 91.4247 7.20732 88.3974C6.90459 86.2783 8.41825 77.8018 5.9964 81.1319C7.51005 78.71 6.90459 75.9854 7.20732 72.9581L5.69367 76.5909C5.39093 71.7472 5.69367 73.2609 4.78547 69.3254C5.39093 69.0226 5.9964 68.4172 6.29913 69.3254C7.20732 66.298 8.72098 62.968 9.9319 59.638C10.5374 58.1243 11.1428 56.6106 11.7483 55.097C12.3538 53.8861 12.6565 52.6751 12.6565 51.4642C14.4729 49.6478 15.3811 48.7396 16.592 47.5287C17.8029 46.6205 19.0138 45.4096 20.5275 42.685C21.133 41.4741 18.4084 42.3823 21.4357 39.355C21.7384 39.355 20.2248 43.2905 22.9493 39.6577C23.5548 38.1441 24.7657 36.6304 26.2794 35.4195C26.8848 34.814 27.793 33.9058 28.3985 33.3004C29.004 32.6949 29.9122 31.7867 30.2149 30.8785C32.0313 29.6676 34.7559 26.943 35.0586 28.4567C32.334 30.5758 29.004 33.9058 29.004 35.1167C28.7012 34.2085 26.8848 36.6304 28.0958 34.2085C23.8575 37.5386 26.2794 37.2359 22.9493 40.2632C23.2521 40.8686 25.3712 39.355 25.9767 38.1441C26.5821 38.7495 25.0685 40.5659 24.1603 42.0796C23.2521 43.5932 22.9493 44.8041 24.7657 43.5932C27.793 39.9604 26.5821 36.6304 30.5176 34.5113C29.9122 36.3277 27.793 37.8413 27.4903 40.5659L30.2149 38.4468L31.1231 35.7222V36.0249C36.5722 32.9976 33.8477 30.8785 37.4804 26.6403C34.1504 27.8512 36.2695 24.2184 33.8477 25.1266C36.5722 22.7048 38.9941 21.1911 39.9023 22.402C35.3613 27.5485 40.5077 23.9157 36.5722 29.0621C37.7832 28.7594 36.875 31.7867 39.9023 29.6676C42.3241 26.3375 38.0859 29.3649 41.1132 26.3375C41.4159 26.3375 41.7187 26.3375 41.7187 26.6403C42.6269 24.8239 43.5351 25.4293 45.0487 23.3102L44.746 24.2184C47.4706 23.3102 46.8651 21.4938 49.2869 21.1911C47.7733 20.8884 50.1951 19.3747 51.1033 18.1638C48.6815 19.072 46.5624 18.4665 42.6269 21.1911C42.6269 22.402 43.2323 22.402 42.0214 24.2184C42.9296 23.613 43.5351 22.7048 44.4432 22.0993C43.8378 22.7048 43.5351 23.0075 43.2323 23.613L40.5077 25.1266C43.2323 22.0993 41.1132 22.402 42.0214 20.5856C45.3514 18.7693 44.4433 18.7693 46.5624 17.5583C47.1678 18.7693 53.5252 15.742 57.7634 14.8338C57.158 15.1365 56.5525 15.4392 55.947 15.742C53.8279 17.8611 58.3689 15.742 58.6716 16.0447L60.1853 14.531C59.8825 14.8338 59.5798 15.4392 60.488 15.1365C62.9099 13.6228 62.3044 12.4119 64.7262 11.201C65.3317 11.8064 63.5153 13.6228 65.3317 13.3201C66.2399 13.6228 68.6617 14.531 71.689 12.4119C71.689 12.1092 72.5972 11.5037 73.8082 10.8983L73.5054 11.201C74.4136 11.201 75.3218 11.201 76.23 11.201C74.7164 13.0174 71.9918 12.1092 70.4781 14.2283L70.7809 15.4392C69.2672 16.0447 67.4508 17.2556 66.8454 18.4665C69.2672 17.5583 69.5699 17.2556 71.9918 16.0447C72.5972 16.6501 71.0836 17.8611 70.7809 18.1638V17.2556C67.4508 17.5583 66.5426 19.9802 62.9098 21.7966C62.3044 22.0993 62.6071 21.7966 62.6071 21.4938C60.1853 23.9157 56.5525 23.9157 54.7361 27.2457L55.3416 26.0348C53.8279 27.8512 50.8006 30.5758 48.3788 34.2085L48.6815 34.5113C49.2869 34.5113 48.076 35.4195 47.1678 35.7222C46.5624 36.6304 45.9569 37.5386 45.3514 38.1441C44.746 39.0522 44.4433 39.6577 43.8378 40.5659C44.4433 40.5659 45.0487 40.2632 45.6542 39.6577C45.6542 38.7495 48.9842 36.9331 47.7733 36.3277C49.5897 36.0249 51.1033 33.3004 52.3143 32.9976C49.8924 33.6031 52.9197 31.1812 52.9197 30.273C54.1306 30.5758 55.947 28.4567 56.2498 29.3649C56.8552 29.3649 55.0388 29.3649 54.4334 30.5758C52.9197 32.6949 58.6716 29.0621 56.5525 31.484C59.2771 28.7594 64.1208 26.943 67.1481 23.9157L65.029 24.5212C66.5426 23.613 70.4781 21.7966 70.7809 22.402C69.5699 23.0075 68.0563 23.613 66.8454 24.5212C67.1481 25.4293 70.4781 22.7048 71.0836 23.613L74.7164 19.3747L72.5972 20.2829C73.2027 19.6775 74.4136 19.072 76.23 18.7693C77.7437 18.1638 79.8628 17.8611 81.3764 17.5583C80.1655 19.6775 76.5327 19.072 73.5054 21.1911C71.3863 22.7048 75.6246 22.0993 73.5054 23.3102C74.1109 23.3102 75.6245 22.7048 76.23 22.0993H77.1382C75.6246 24.2184 71.3863 25.7321 68.9645 28.1539C69.2672 27.8512 69.2672 27.5485 69.2672 27.5485C66.8454 28.1539 64.7262 29.3649 62.9098 30.5758C64.1208 30.5758 64.4235 29.9703 65.029 29.3649C65.3317 29.6676 63.5153 30.8785 62.9098 31.484C65.029 30.8785 63.818 32.0894 65.029 31.7867C64.1208 32.6949 62.9098 32.9976 61.3962 33.9058C60.488 33.9058 61.6989 32.9976 61.0935 32.3922C59.8825 33.6031 58.3689 32.6949 56.5525 34.814C59.5798 33.3004 56.5525 36.6304 55.947 37.5386L56.5525 37.2359C56.2498 38.4468 55.3416 39.0522 54.4334 38.7495C55.3416 37.5386 56.5525 37.2359 55.6443 36.6304C54.7361 37.2359 54.1306 37.5386 53.5252 38.4468L53.8279 37.2359L50.4979 40.2632C50.4979 41.1714 50.1951 42.9878 50.4979 44.1987C49.2869 44.1987 48.6815 45.7123 48.076 46.6205V46.0151C46.2596 46.9233 43.5351 49.9506 43.8378 50.8588C42.3241 51.4642 47.4706 40.8686 41.1132 48.4369C38.6914 51.1615 41.1132 51.767 40.5077 53.5833C40.5077 53.5833 40.5077 53.2806 40.205 53.2806C38.9941 54.4915 39.5996 55.097 39.2968 56.3079C40.205 55.7025 40.8105 54.7943 40.8105 54.1888C41.1132 55.097 38.6914 56.6106 38.6914 58.1243C38.3886 56.0052 36.5722 60.2434 36.5722 58.7298C34.1504 60.8489 33.5449 64.4817 33.5449 66.298C31.1231 67.509 32.334 69.6281 30.2149 72.3527C30.5176 71.7472 30.5176 70.839 31.1231 70.2335C30.8203 68.1144 29.004 73.2609 29.3067 70.2335C29.3067 70.839 29.9122 70.5363 29.9122 69.9308C30.2149 68.7199 30.2149 67.509 29.6094 67.8117L27.4903 69.9308L27.793 69.0226C26.5821 70.2336 25.6739 71.4445 25.0685 72.6554C25.3712 72.9581 25.6739 72.6554 25.9767 72.3527C25.3712 73.5636 25.0685 74.7745 24.463 75.9854C23.8575 77.1964 23.8575 78.71 23.5548 79.9209C23.2521 81.1319 22.9493 82.6455 22.9493 83.8564C22.9493 85.0674 22.6466 86.2783 22.3439 87.4892C25.0685 88.7001 22.6466 98.6903 25.0685 102.323C24.1603 101.415 22.6466 100.809 21.7384 101.415C21.4357 100.507 20.2248 98.993 20.5275 96.8739C21.133 96.5712 21.7384 94.1493 22.3439 95.663C22.3439 90.5165 20.8302 96.2684 19.922 94.7548C20.2248 100.809 22.0411 104.139 23.2521 107.469H22.9493C23.2521 108.378 23.5548 109.286 23.8575 110.194C23.8575 108.075 25.6739 107.772 25.3712 110.8V110.497C25.0685 112.313 26.2794 115.34 26.8848 117.762L28.3985 119.276C29.004 121.698 27.1876 122.303 25.9767 123.514C27.1876 127.45 29.3067 129.266 31.1231 131.688C30.8203 133.202 32.9395 138.954 30.8203 136.229C32.9395 139.256 36.5722 136.834 37.1777 143.192L35.664 142.586C38.6914 147.733 44.4433 154.09 45.3514 156.512C43.5351 156.512 44.1405 158.328 44.746 160.75C45.6542 162.869 46.8651 165.594 45.9569 166.805C46.2596 166.199 48.076 167.713 48.3788 167.713C48.3788 168.318 48.6815 169.227 49.8924 169.227C48.6815 167.107 53.2225 168.318 49.2869 165.897C52.3143 166.199 55.3416 167.108 58.6716 170.438L57.7634 171.346L55.3416 168.621C55.0388 169.529 53.5252 168.016 52.9197 167.713C57.4607 173.162 50.1951 169.227 55.6443 174.07C56.5525 174.07 56.2498 174.07 57.7634 174.979C57.158 174.373 56.2498 174.979 57.4607 175.887H59.2771C60.1853 178.914 55.0388 174.373 55.947 176.795C53.2225 175.584 48.9842 172.254 48.6815 174.07C50.1951 175.887 51.7088 176.189 52.9197 176.492C54.1306 176.795 55.3416 177.098 57.158 178.914V179.822C58.9743 180.428 59.5798 179.822 60.7907 180.125C60.488 180.428 60.7907 181.033 61.6989 181.639C65.029 181.941 66.8454 182.85 69.8727 182.547C66.5426 181.639 65.3317 180.125 64.4235 179.217C63.2126 178.309 62.3044 177.098 58.9743 175.281C60.1853 175.584 64.4235 178.309 65.6344 177.098L65.029 178.006C66.2399 178.309 67.1481 178.611 68.359 179.217C69.5699 179.822 70.4781 180.125 71.689 181.033L69.8727 180.73C71.689 181.336 72.9 182.547 74.1109 183.152C75.3218 184.06 76.5327 184.666 78.3491 184.363C77.4409 183.758 76.5327 183.455 75.9273 183.455C76.8355 183.455 78.0464 184.06 78.9546 184.363C79.8628 184.666 81.0737 185.271 81.9819 185.574C83.4956 185.574 85.0092 185.271 86.5229 184.666C86.2201 185.271 88.9447 185.877 87.4311 186.482C90.1556 187.996 91.972 186.482 93.7884 186.482C95.3021 187.088 94.6966 187.39 93.4857 187.39C92.2748 187.39 90.7611 187.39 90.4584 188.299C94.6966 189.812 99.5403 189.207 101.962 187.996C101.054 187.693 100.751 187.693 100.751 187.39C100.751 187.693 102.568 187.693 103.476 187.693L104.081 186.785C105.595 187.088 105.595 187.693 104.081 188.299C105.595 188.299 107.411 186.785 109.228 187.693C106.806 188.904 103.173 188.601 101.659 188.904C107.109 187.996 107.714 191.023 114.677 188.601C114.98 188.904 113.769 189.812 115.282 189.51C118.31 188.601 115.888 187.693 116.493 186.785C114.071 187.693 112.86 187.693 111.347 186.785L111.952 186.18C112.255 186.482 113.466 186.18 114.071 186.482V185.271C114.071 186.785 116.796 187.088 118.612 186.18C116.493 185.877 117.099 185.574 116.191 184.06C118.31 181.941 119.521 184.666 121.942 182.244C121.942 182.85 119.521 183.758 121.64 183.455C123.456 182.85 122.851 181.941 123.759 181.033C122.851 182.547 123.456 183.455 122.548 185.271C119.218 186.482 121.337 185.574 118.007 187.088H121.034C118.31 188.299 119.218 189.207 119.218 189.51C124.667 188.904 122.548 186.785 125.575 185.877C126.786 184.666 122.548 186.785 124.667 185.271C127.694 184.363 124.97 184.363 127.997 182.547L127.694 183.152C128.905 183.455 129.511 182.244 130.419 181.336C131.327 180.428 127.392 178.309 131.933 175.887C131.933 176.189 131.933 176.492 131.933 176.795C131.933 180.73 131.933 184.363 131.63 187.996C137.079 185.574 143.134 182.244 149.188 178.611C151.61 179.217 146.161 182.85 146.766 183.455L143.739 184.969C143.739 184.666 144.95 183.455 146.161 182.85C147.069 181.941 147.675 181.336 146.161 181.639C141.62 185.271 139.198 185.877 134.96 189.812C136.171 190.418 137.684 189.51 139.501 188.299C141.317 187.088 143.134 185.877 144.95 185.574C143.739 186.18 142.528 187.088 141.62 187.996C144.647 186.482 147.977 184.666 151.005 182.547L151.307 181.639C149.188 182.85 147.372 183.758 147.372 184.06C150.399 182.244 151.913 179.519 151.307 178.309L150.702 178.611L151.307 177.4L154.637 176.189ZM116.493 24.5212C116.796 24.5212 116.796 24.2184 117.099 24.2184C116.796 24.2184 117.099 24.5212 116.493 24.5212ZM93.7884 201.619C96.2103 201.922 98.6321 202.224 100.751 202.224C101.962 202.224 103.173 202.224 104.384 202.527C105.595 202.527 106.806 202.527 107.714 202.527C103.476 201.619 100.146 200.105 99.2376 199.197C98.9349 198.894 99.2376 198.289 100.449 198.289C101.659 197.986 103.779 197.986 106.806 197.683L107.714 197.381C105.898 197.078 103.173 197.381 100.449 197.683C99.843 197.986 98.9348 198.289 98.0267 198.894C97.1185 199.197 95.9075 199.802 94.6966 200.105C92.5775 201.013 90.4584 201.922 90.4584 201.922C91.0638 202.83 92.5775 202.224 94.0911 202.527L93.7884 201.619ZM91.3666 196.472C88.9447 195.867 89.5502 196.472 88.9447 197.078C89.8529 197.078 90.7611 197.078 91.6693 197.381C91.0638 197.078 91.0639 196.775 91.3666 196.472ZM88.9447 197.381C89.2475 197.381 89.5502 197.381 89.5502 197.683L88.9447 197.381ZM137.684 190.115C137.382 190.115 137.382 190.115 137.684 190.115C137.987 190.115 138.593 189.812 139.198 189.51C138.895 189.51 138.29 189.812 137.684 190.115ZM132.235 191.023V192.234C132.841 191.931 133.446 191.931 133.749 191.629C133.446 191.326 133.143 191.023 132.235 191.023ZM115.888 192.84C115.282 194.353 111.952 194.959 111.952 196.472C111.65 196.775 112.558 196.775 113.466 196.775C114.374 196.775 115.282 196.472 116.493 196.472C116.493 196.17 116.796 196.17 116.796 195.867C115.888 195.867 114.98 195.564 115.282 194.656C118.31 195.867 117.099 192.84 120.126 192.537C120.429 191.326 116.493 192.234 115.888 192.84ZM36.2695 42.9878C36.2695 42.9878 36.875 42.9878 37.4804 42.9878L36.5722 45.1069C35.3613 46.3178 33.8477 47.226 32.6367 48.1342C31.4258 49.0424 30.5176 50.556 30.2149 52.3724C29.004 53.2806 27.793 53.5833 26.5821 53.5833C27.1876 52.9779 27.4903 52.3724 28.0958 52.0697C29.6094 47.5287 31.1231 46.9233 32.334 46.6205C33.2422 46.3178 34.4531 46.3178 36.2695 42.9878ZM14.7756 78.71C14.7756 78.4073 14.4729 78.1046 14.4729 78.1046C14.4729 80.2237 14.7756 82.3428 15.0783 84.1592C15.3811 85.9756 15.3811 87.792 15.3811 89.3056C15.6838 92.6357 15.6838 95.3602 15.6838 97.4793C16.592 96.5712 17.8029 92.9384 18.1056 91.122L19.3166 92.9384L18.4084 93.8466L19.3166 96.5712C20.2248 95.9657 20.2248 93.5438 20.8302 92.3329C20.8302 92.3329 20.5275 91.122 19.922 89.6083C19.6193 88.0947 19.3166 86.581 19.0138 85.9756L17.5002 89.6083C18.1056 88.7001 18.4084 83.5537 18.4084 81.4346C17.8029 81.1319 16.2893 84.7646 17.5002 85.3701C16.592 85.6728 17.1974 81.7373 15.9865 84.1592C15.6838 82.6455 15.9865 80.5264 16.592 78.71C17.5002 76.8936 18.1056 75.0773 18.7111 74.1691H20.2248C21.4357 72.0499 19.0138 72.0499 20.8302 69.6281C19.922 73.2609 22.6466 69.6281 21.7384 72.3527C22.6466 71.7472 23.2521 72.9581 23.8575 70.2335C22.9493 67.2062 26.2794 68.1144 25.3712 65.3899C26.5821 64.1789 25.6739 67.2062 27.1876 64.7844C27.4903 61.4543 27.1876 61.1516 25.9767 60.2434C25.0685 61.4543 25.0685 62.6653 25.0685 63.5735C25.0685 64.4817 25.3712 65.3899 24.7657 66.6008C24.7657 64.7844 24.463 62.6653 24.7657 60.8489C23.8575 61.4543 23.5548 62.0598 23.5548 62.6653C23.8575 61.7571 23.8575 60.5462 23.8575 59.638C23.8575 59.0325 23.8575 58.7298 23.8575 58.1243C22.3439 60.8489 21.4357 63.2707 20.5275 63.2707L19.922 62.6653C19.0138 63.2707 18.7111 65.3899 18.7111 66.298C17.8029 69.0226 17.8029 71.7472 16.8947 72.0499L16.592 70.839C15.6838 74.1691 15.6838 74.4718 14.7756 78.71ZM47.1678 180.428C47.1678 178.914 47.1678 177.4 46.5624 175.281C45.9569 173.162 44.1405 171.043 41.1132 167.41L41.7187 167.713C40.8105 165.291 38.9941 164.08 37.1777 162.264C36.2695 161.356 35.3613 160.447 34.4531 159.539C33.5449 158.631 32.9395 157.42 32.6367 155.906C35.0586 157.723 34.7559 157.723 38.3886 158.934C37.4804 158.328 36.875 157.723 36.2695 156.815C37.7832 156.815 35.664 154.696 34.7559 152.879L37.1777 153.485C37.4804 154.696 38.9941 157.723 39.2968 157.42C38.6914 156.815 40.205 162.264 42.3241 164.08C42.9296 163.172 39.2968 158.934 42.3241 159.842C40.5077 158.328 41.1132 157.723 39.5996 155.906C41.4159 157.42 41.1132 155.604 42.9296 156.512C42.0214 155.604 41.1132 154.696 40.5077 153.485C40.5077 153.485 41.4159 154.393 42.3241 154.998C43.2323 155.604 43.8378 155.906 43.5351 154.09C42.3241 153.182 40.8105 149.549 39.5996 149.852L39.9023 149.549C38.6914 147.127 37.7832 149.246 36.5722 145.916C35.9668 146.219 35.9668 146.825 36.5722 148.035C37.1777 148.944 38.0859 148.641 39.2968 150.155C38.9941 151.365 38.0859 148.035 37.4804 149.852C37.1777 150.76 41.1132 154.393 38.6914 154.09L37.4804 151.668C36.5722 152.274 35.3613 150.457 34.4531 151.063C33.2422 149.852 33.5449 147.43 31.7285 146.522C30.8203 146.219 29.9122 148.035 29.004 145.008C29.3067 143.494 28.7012 141.375 27.793 138.954C26.8848 136.834 25.9767 134.413 25.3712 133.504C24.7657 132.899 24.463 132.293 23.8575 131.688C23.2521 131.991 25.6739 135.623 24.1603 134.715C23.5548 133.504 22.9493 132.596 22.6466 131.385H23.2521C22.9493 130.174 22.0411 129.266 21.4357 128.358C22.6466 129.266 22.9493 131.688 24.1603 130.78C23.8575 128.963 24.1603 128.661 23.5548 127.45C23.2521 128.055 23.5548 128.358 23.5548 128.055C22.9493 124.725 21.133 125.331 20.5275 124.725C19.3166 123.211 19.3166 124.12 19.0138 125.633C19.0138 126.844 19.3166 128.661 18.7111 128.661C18.1056 127.147 17.5002 125.331 16.8947 123.817C16.2893 122.303 15.6838 120.487 15.3811 118.973C15.9865 119.881 16.592 120.487 16.8947 120.184C16.8947 117.762 17.8029 119.881 17.1974 116.551C15.6838 117.157 15.3811 112.313 14.1701 109.891C14.7756 108.68 14.7756 108.378 15.0783 110.8C16.2893 110.497 15.3811 107.167 15.3811 105.956C15.0783 105.35 14.7756 104.139 14.4729 103.231C13.8674 104.139 13.2619 103.837 12.6565 101.718H12.3538C12.3538 102.626 12.051 103.837 12.051 104.745C12.051 105.956 12.051 106.864 12.051 108.075C12.051 110.194 12.051 112.313 12.9592 113.524L12.3538 112.919C12.3538 115.038 13.2619 117.46 13.8674 119.276C14.7756 121.092 15.3811 122.909 14.4729 124.12C13.5647 124.12 14.4729 125.028 13.2619 125.331C13.8674 126.239 14.4729 127.147 15.0783 128.055L14.4729 127.45L16.2893 132.596H15.9865C17.8029 134.715 19.3166 136.229 20.5275 137.44C21.133 137.137 21.133 137.137 21.7384 137.743C22.3439 138.348 22.6466 138.954 22.6466 139.559C22.9493 140.77 22.6466 141.981 22.9493 143.494C22.0411 141.981 21.4357 140.467 20.8302 138.954C19.922 138.954 19.0138 139.559 19.6193 142.284C19.3166 141.375 18.4084 141.375 18.7111 142.586C19.0138 142.586 20.5275 145.311 20.8302 144.1C22.9493 148.338 24.463 156.512 30.2149 161.658C26.5821 157.723 31.4258 165.897 28.0958 161.053C29.004 165.291 31.1231 163.172 33.5449 166.805C33.2422 167.41 32.334 164.988 30.8203 164.686C32.6367 167.713 34.7559 169.832 37.1777 171.648C39.2968 173.465 41.7187 175.281 43.8378 177.703L43.2323 178.611C44.746 178.611 45.9569 179.519 47.1678 180.428ZM58.3689 187.39C59.5798 187.996 60.7907 188.601 61.6989 189.207L61.3962 188.904C62.6071 189.51 63.818 189.812 65.029 190.115C63.2126 188.601 62.6071 186.785 65.6344 187.996C65.029 188.299 65.6344 189.207 64.7262 188.904C66.2399 190.418 70.1754 193.445 69.8727 191.326C65.6344 190.721 69.8727 188.904 66.5426 188.601C68.6617 188.299 69.8727 189.812 71.3863 189.812C69.5699 190.115 70.7809 191.931 73.2027 193.142C74.4136 193.445 77.1382 194.656 78.9546 194.656C78.6519 193.445 80.4683 193.445 77.7437 192.234C78.9546 192.234 80.4682 192.537 81.9819 193.748C81.0737 193.748 79.8628 193.445 79.8628 193.748C80.771 194.959 82.2846 195.262 82.8901 195.867C83.4956 195.867 84.101 196.17 84.7065 196.17C84.4038 196.17 84.4038 195.867 84.4038 195.867L86.5229 195.564C83.7983 195.261 85.312 194.656 85.6147 194.353C85.312 195.564 87.4311 194.959 88.3393 194.959C87.7338 194.353 87.1283 193.748 86.5229 193.445C87.4311 193.142 89.8529 194.959 89.5502 193.748C87.4311 193.142 86.2201 192.84 84.7065 192.537C83.1928 192.234 81.9819 192.234 80.1655 191.629L81.3764 193.142C79.2573 192.84 78.6519 192.234 78.0464 191.326C77.4409 190.721 76.8355 189.812 74.7164 188.904C73.5054 188.904 71.9918 188.299 70.4781 187.693C68.9645 187.088 67.7535 186.785 67.1481 187.39C68.0563 187.088 65.3317 184.666 63.5153 184.363C62.3044 184.666 60.488 184.06 58.9743 183.455C57.7634 182.85 56.5525 182.547 57.158 183.152C58.3689 184.06 60.488 184.666 61.0935 186.18L58.3689 184.666L59.5798 186.482C58.9743 185.271 58.6716 186.18 58.3689 187.39ZM129.208 206.463C129.208 206.463 129.208 206.16 129.208 206.463V206.463Z" fill="#A9CCE0"/>
<path d="M72.5973 14.8337C73.2028 14.2282 75.3219 13.32 74.7164 12.7145C75.0192 13.6227 71.0837 14.2282 72.5973 14.8337Z" fill="#A9CCE0"/>
<path d="M75.3218 14.5311C75.3218 14.2284 75.019 13.9257 76.23 13.6229C75.3218 13.9257 74.4136 14.5311 73.8081 14.8338L75.3218 14.5311Z" fill="#A9CCE0"/>
<path d="M80.1655 19.98C81.0737 18.7691 81.9819 18.1637 84.101 17.5582C85.6146 19.6773 81.0737 19.3746 80.7709 21.7964C84.4037 20.8882 85.0092 18.4664 88.0365 17.2555C86.2201 16.65 79.56 18.1637 80.1655 19.98Z" fill="#A9CCE0"/>
<path d="M79.5601 23.3105L81.3765 22.0995H81.0738L79.2574 23.3105H79.5601Z" fill="#A9CCE0"/>
<path d="M26.8848 32.9975C26.2794 32.6948 25.6739 34.5112 25.0685 35.1166C25.6739 34.5112 26.5821 33.9057 26.8848 32.9975Z" fill="#A9CCE0"/>
<path d="M170.985 22.7048C164.93 20.283 158.876 18.1639 152.821 16.6502C158.27 17.8611 163.114 19.3748 170.985 22.7048Z" fill="#A9CCE0"/>
<path d="M6.60181 92.3331C5.99635 87.1867 5.39088 84.7648 5.69362 79.6184C4.48269 82.9485 4.78542 85.3703 5.08815 87.4894C5.39089 89.6085 5.99635 91.7277 5.08815 94.4522L6.60181 92.3331Z" fill="#A9CCE0"/>
<path d="M0.547302 90.214C2.06096 89.6086 2.06096 94.4523 2.96915 93.5441C2.96915 89.9113 1.75823 91.7277 2.06096 88.7004L0.547302 90.214Z" fill="#A9CCE0"/>
<path d="M27.1876 73.8665L27.4903 75.0774V74.1692L27.1876 73.8665Z" fill="#A9CCE0"/>
<path d="M2.66635 113.827L2.36362 113.221V115.946L2.66635 113.827Z" fill="#A9CCE0"/>
<path d="M1.75812 112.616L2.36358 113.221L1.75812 112.616Z" fill="#A9CCE0"/>
<path d="M29.6094 75.9857L30.5176 74.472L30.2149 73.5638L29.6094 75.9857Z" fill="#A9CCE0"/>
<path d="M19.0139 90.8194C19.0139 90.214 18.7112 89.6085 18.7112 89.0031C18.7112 89.3058 18.1057 91.7276 19.0139 90.8194Z" fill="#A9CCE0"/>
<path d="M5.39093 129.266C5.69366 130.174 6.29912 130.78 6.60185 131.385V131.082C6.29912 130.477 5.69366 129.872 5.39093 129.266Z" fill="#A9CCE0"/>
<path d="M22.9493 104.14C23.8575 102.929 23.5547 107.47 24.1602 105.048C23.8575 102.929 23.252 103.837 22.9493 104.14Z" fill="#A9CCE0"/>
<path d="M20.8301 131.083C20.8301 131.385 21.1329 131.688 21.1329 131.991C21.1329 131.385 21.1329 131.385 20.8301 131.083Z" fill="#A9CCE0"/>
<path d="M20.8303 131.083C20.5276 130.174 20.5276 128.963 20.2248 128.661C20.2248 129.872 20.5276 130.174 20.8303 131.083Z" fill="#A9CCE0"/>
<path d="M25.0685 141.375L24.7658 140.467C25.674 141.073 25.3713 140.77 24.7658 140.164C24.4631 139.256 24.1603 139.559 23.8576 139.559C23.5549 139.559 23.5549 139.256 23.2521 139.256C23.5549 139.559 23.5549 139.559 23.8576 139.862C24.4631 141.073 24.7658 141.678 25.0685 141.375Z" fill="#A9CCE0"/>
<path d="M35.664 187.996C33.2421 184.969 32.6367 184.061 33.5449 183.758C31.123 181.033 30.5176 182.244 29.0039 181.033C31.7285 183.758 32.0312 184.666 35.664 187.996Z" fill="#A9CCE0"/>
<path d="M29.004 180.731C28.7012 180.428 28.3985 180.125 28.0958 179.822C28.3985 180.125 28.7012 180.428 29.004 180.731Z" fill="#A9CCE0"/>
<path d="M29.3068 126.542L31.1232 127.753L30.8204 127.147L29.3068 126.542Z" fill="#A9CCE0"/>
<path d="M39.5996 192.234C38.9941 191.629 38.0859 191.023 38.0859 190.418C37.4805 190.721 40.2051 192.537 39.5996 192.234Z" fill="#A9CCE0"/>
<path d="M41.4159 171.043C41.7186 170.438 39.9022 168.924 39.5995 168.318C40.2049 169.227 39.9022 170.74 41.4159 171.043Z" fill="#A9CCE0"/>
<path d="M50.4979 196.473C49.8924 196.17 49.2869 194.959 50.1951 194.656C48.9842 194.353 47.1678 194.656 50.4979 196.473Z" fill="#A9CCE0"/>
<path d="M45.3514 175.281V174.979L43.535 173.465L45.3514 175.281Z" fill="#A9CCE0"/>
<path d="M49.2869 161.658C47.1677 160.448 49.8923 165.897 46.5623 163.475C48.9841 168.016 47.4705 162.264 49.5896 165.291C48.6814 163.172 48.9841 161.658 49.2869 161.658Z" fill="#A9CCE0"/>
<path d="M49.8924 165.291C50.1952 165.594 50.1952 165.897 50.4979 166.199C50.1952 165.594 50.1952 165.291 49.8924 165.291Z" fill="#A9CCE0"/>
<path d="M58.9743 172.859L55.3416 171.648C56.5525 171.951 58.0661 173.162 59.5798 174.07C61.0934 174.978 62.3044 175.281 62.6071 174.676C61.3962 173.465 59.2771 172.254 58.3689 172.254L58.9743 172.859Z" fill="#A9CCE0"/>
<path d="M89.2474 214.939L87.1283 215.242L89.5501 215.847C88.9447 215.242 90.1556 214.636 89.2474 214.939Z" fill="#A9CCE0"/>
<path d="M65.937 187.391C65.0288 186.785 64.1207 186.18 63.2125 185.877C63.2125 186.18 64.1207 186.785 64.7261 187.088C65.0289 187.391 65.937 187.693 65.937 187.391Z" fill="#A9CCE0"/>
<path d="M103.173 213.425L99.8431 213.728H103.476L103.173 213.425Z" fill="#A9CCE0"/>
<path d="M118.612 214.334L119.218 214.636L121.64 213.425H121.034C120.429 213.728 119.521 214.031 118.612 214.334Z" fill="#A9CCE0"/>
<path d="M99.2375 187.088C97.7239 186.785 96.513 187.996 96.8157 188.299C97.7239 188.299 98.9348 188.601 99.843 188.299C99.2375 187.088 98.9348 188.299 97.4211 187.996C98.0266 187.693 98.6321 187.39 99.2375 187.088Z" fill="#A9CCE0"/>
<path d="M198.836 147.733C199.139 148.944 196.717 152.576 195.809 152.274C195.809 151.668 196.717 149.549 195.506 150.457V154.393C192.176 157.723 195.203 150.155 195.506 148.035C193.084 151.971 193.387 153.787 190.662 157.723C191.571 156.512 192.479 156.209 193.387 155.604C194.598 156.209 191.571 159.842 189.754 162.567C191.571 161.053 191.268 162.567 190.662 164.08C190.662 164.383 190.36 164.383 190.36 164.686L190.057 165.291L190.36 164.988C190.36 164.988 190.662 164.988 190.965 164.988C192.479 162.567 194.295 161.356 195.506 159.842C193.993 160.145 194.901 158.631 196.112 156.815C197.323 154.998 198.836 152.879 199.139 151.971C199.442 151.063 199.744 150.457 200.35 149.549L200.653 148.641C200.955 148.641 200.955 148.944 200.653 150.457C200.955 149.246 202.772 145.614 202.166 145.614C203.68 142.889 204.891 139.862 206.102 137.137C206.404 136.834 206.404 136.532 206.707 136.532C206.707 136.229 206.707 136.229 206.404 135.926C209.129 129.569 211.248 122.909 212.762 116.249C214.275 109.589 215.486 102.626 216.092 95.663C215.789 97.7821 214.881 99.2957 214.578 101.415C213.67 98.0848 213.973 104.745 212.459 103.534C212.156 102.02 212.762 100.204 213.065 98.993C212.459 98.3875 211.551 100.204 210.945 99.9012C210.34 102.323 210.643 103.837 210.945 105.35C211.248 106.864 211.854 108.378 210.945 110.8C210.037 110.497 209.735 108.68 209.129 112.01V111.102C208.826 116.551 206.404 114.432 207.615 118.368L206.404 118.065C206.404 119.276 206.404 121.092 205.799 122.909C205.194 124.725 204.891 126.239 204.588 127.45L205.194 127.147C204.588 130.78 204.285 131.688 203.983 132.899C203.377 133.807 203.074 135.018 201.561 138.954C201.561 137.743 201.864 136.229 201.864 135.018C200.35 137.44 201.258 138.651 200.35 140.164C200.35 139.862 199.139 139.862 199.744 138.045C199.139 141.375 198.231 144.403 197.323 147.733C197.02 150.457 198.231 147.733 198.836 147.733Z" fill="#A9CCE0"/>
<path d="M190.965 157.723C190.662 158.026 190.36 158.631 190.057 159.236C190.36 158.631 190.662 158.026 190.965 157.723Z" fill="#A9CCE0"/>
<path d="M217 92.6356C217 93.5438 217 94.452 216.697 95.6629C217 94.7547 217 93.8465 217 92.6356Z" fill="#A9CCE0"/>
<path d="M184.608 170.74C186.121 169.832 184.305 172.254 184.608 172.859C185.819 171.346 187.332 169.529 188.543 168.016C188.241 167.713 188.241 166.805 187.635 166.805C186.727 168.016 185.819 169.529 184.608 170.74Z" fill="#A9CCE0"/>
<path d="M190.36 166.805C190.36 166.502 190.36 165.594 190.662 164.988L188.543 167.713C188.846 168.016 189.451 168.016 190.36 166.805Z" fill="#A9CCE0"/>
<path d="M170.077 152.879L170.682 151.971L171.288 150.76L170.077 152.879Z" fill="#A9CCE0"/>
<path d="M180.067 141.678C178.856 142.284 178.25 144.403 177.948 145.008C179.159 142.889 178.856 143.797 180.067 141.678Z" fill="#A9CCE0"/>
<path d="M171.893 140.467L172.801 138.348H172.499L171.893 140.467Z" fill="#A9CCE0"/>
<path d="M210.945 69.9308C210.945 69.3254 210.643 69.0226 210.643 68.4172C210.643 69.3254 210.643 69.6281 210.945 69.9308Z" fill="#A9CCE0"/>
<path d="M213.367 95.0577C214.275 91.7276 214.578 92.9385 214.578 94.4522C214.881 96.2686 214.881 98.3877 215.789 97.4795C215.789 96.2686 215.789 95.0576 215.486 93.8467L215.789 94.1495V89.6085C214.881 90.5167 214.881 91.1222 213.973 90.8194C214.578 84.7648 215.184 89.003 216.092 84.4621C216.092 82.0402 216.092 79.6184 215.486 77.1965L215.789 77.802C215.789 77.1965 215.486 76.8938 215.486 76.5911C214.275 68.1146 211.853 59.6381 207.313 52.0698C204.285 48.4371 207.313 55.0971 204.588 52.6753C205.799 55.0971 207.313 58.1245 208.221 60.5463C209.129 62.9682 210.037 64.7845 210.945 64.7845C210.643 64.7845 210.037 64.4818 210.34 65.6927L212.459 68.4173L212.156 65.39C213.064 66.6009 214.275 69.931 214.881 72.9583C215.184 75.9856 215.486 79.0129 214.881 79.9211C214.275 77.1965 213.67 76.5911 213.367 75.6829C212.762 74.7747 212.762 73.5637 212.156 69.6282C211.853 69.931 211.551 71.4446 210.945 69.931C213.367 78.7102 212.459 86.8839 213.367 95.0577Z" fill="#A9CCE0"/>
<path d="M174.012 25.7323L178.25 26.3377C176.434 25.4295 174.315 24.2186 172.499 23.6132L171.893 24.2186C172.499 24.2186 174.618 24.5214 175.223 25.4295L174.012 25.7323Z" fill="#A9CCE0"/>
<path d="M183.094 27.8514C180.067 26.3377 179.461 27.8514 180.672 29.0623C177.645 28.1541 180.067 26.9432 177.645 27.2459C177.342 28.1541 180.672 29.6677 181.58 29.9705L183.094 27.8514Z" fill="#A9CCE0"/>
<path d="M201.863 45.7124L200.652 45.4097L202.166 47.5288L201.863 45.7124Z" fill="#A9CCE0"/>
<path d="M200.653 45.4098L199.139 43.2907C198.836 43.5934 198.836 44.1989 198.836 44.5016L200.653 45.4098Z" fill="#A9CCE0"/>
<path d="M195.203 38.4469C194.598 37.5387 193.69 36.9333 192.782 36.0251C193.69 36.6305 194.598 37.5387 195.203 38.4469Z" fill="#A9CCE0"/>
<path d="M197.02 40.5658L195.203 38.4467C195.809 39.0522 196.414 39.9604 197.02 40.5658Z" fill="#A9CCE0"/>
<path d="M199.441 43.2907C200.047 42.3825 200.35 41.1716 197.625 38.7498L197.02 40.5661C197.928 41.4743 198.533 42.3825 199.441 43.2907Z" fill="#A9CCE0"/>
<path d="M180.672 126.239L180.975 124.422L180.672 126.542V126.239Z" fill="#A9CCE0"/>
<path d="M185.819 115.643C185.819 115.038 185.819 114.735 185.516 114.432C185.516 114.735 185.516 115.341 185.819 115.643Z" fill="#A9CCE0"/>
<path d="M181.58 105.653C183.094 103.534 182.186 108.983 183.397 105.048C184.305 104.745 184.91 107.167 184.002 108.983C183.094 108.68 184.002 106.864 182.791 108.075C183.397 109.589 182.489 109.891 184.002 109.891C184.002 112.313 184.91 112.919 185.213 114.432C185.516 111.708 188.241 105.956 187.332 102.323C186.121 100.204 184.002 101.112 181.883 100.507C181.58 100.507 181.278 101.718 180.975 102.928C180.975 104.139 180.975 105.35 181.58 105.653Z" fill="#A9CCE0"/>
<path d="M178.856 108.681C178.553 109.589 178.553 109.891 178.553 110.497C179.159 110.497 178.553 109.286 178.856 108.681Z" fill="#A9CCE0"/>
<path d="M198.231 85.6731C197.928 85.3703 197.625 83.2512 197.02 83.8567L197.625 86.884C197.625 85.9758 197.928 85.9758 198.231 85.6731Z" fill="#A9CCE0"/>
<path d="M197.625 88.3973V86.8837C197.322 87.1864 197.322 87.7919 197.625 88.3973Z" fill="#A9CCE0"/>
<path d="M198.533 85.37C198.231 85.6727 198.533 85.6727 198.533 85.37V85.37Z" fill="#A9CCE0"/>
<path d="M187.938 31.4841C188.24 31.1814 186.727 30.2732 185.819 29.9705C186.424 30.2732 187.03 31.1814 187.938 31.4841Z" fill="#A9CCE0"/>
<path d="M128.905 12.1094L127.694 11.5039C127.997 11.8066 128.3 11.8066 128.905 12.1094Z" fill="#A9CCE0"/>
<path d="M106.503 26.3375C105.595 26.6402 102.87 26.0347 101.962 26.6402V26.3375L100.146 26.6402C101.659 26.9429 105.292 26.9429 106.503 26.3375Z" fill="#A9CCE0"/>
</svg>
