<svg width="134" height="111" viewBox="0 0 134 111" fill="none" xmlns="http://www.w3.org/2000/svg">
<path d="M110.691 68.0069C108.548 67.1299 105.938 64.6337 103.142 61.058C101.837 59.2364 100.346 57.1449 98.8549 54.9185C97.5501 52.6247 96.0589 50.1284 94.9405 47.6996C89.8145 37.5122 86.0865 26.3128 85.9001 21.4552L85.4341 20.5782C84.4089 15.3833 81.3334 9.31136 74.2502 5.73565C70.1494 4.25139 65.2098 2.83459 60.4566 1.4178C58.313 2.69966 56.1694 3.91406 54.0258 5.06099C53.653 3.037 53.187 0.878067 50.391 0.405803C42.469 -3.03497 20.5064 18.3518 11 21.4553C8.29717 22.6697 29.9998 25.5 10.9999 25.5L6.49998 33.5C18.5 41 0 42 0 42C4.9396 43.4843 12 44.9931 32 74.5C42.5 110.46 38.275 102.685 38.8342 104.641C39.4866 106.598 39.8594 108.622 40.7914 110.241C47.5018 107.947 53.9326 108.217 60.0838 108.082C66.3282 108.082 72.3861 107.677 78.6305 104.709C79.7489 106.53 81.2402 109.229 85.2477 108.082C96.8046 104.439 110.878 100.863 120.477 101.403C123.273 101.808 120.664 105.721 123.273 105.181C124.392 105.046 125.231 104.506 125.883 103.966C126.535 103.427 127.374 102.752 128.213 102.145C129.704 100.931 131.195 99.7836 133.153 99.2438C131.009 94.5887 127.188 90.4732 122.994 85.4133C118.427 80.4208 113.86 74.6861 110.691 68.0069Z" fill="#A4B8C4"/>
</svg>
