<svg width="40" height="107" viewBox="0 0 40 107" fill="none" xmlns="http://www.w3.org/2000/svg">
<path d="M18.6 91C17.1 94.8 14.6 98.3 12 101.5C12.6 100.9 13 100.2 13.5 99.6C14 99 14.5 98.3 14.9 97.7C13.6 99.7 12.1 101.1 10 102.6C10.1 101.7 11.5 100.8 11.2 100C14.9 95.6 18.4 91.4 21.4 87C22.1 89.7 19.3 89.7 18.6 91Z" fill="#A9CCE0"/>
<path d="M4.20001 106.2C4.70001 105.8 5.20001 105.5 5.70001 105.1C5.20001 105.5 4.70001 106 4.20001 106.2Z" fill="#A9CCE0"/>
<path d="M22.7 57.3C22.7 56.7 22.8 56.2 22.9 55.6C22.9 56.2 22.8 56.7 22.7 57.3Z" fill="#A9CCE0"/>
<path d="M17.8 83C17.8 82.7 17.8 82.3 17.9 82C19 80 20 77.9 21.1 75.7C20 78.1 19.7 81 17.8 83Z" fill="#A9CCE0"/>
<path d="M15.3 84.6C14.4 86.7 13 88.7 11.2 90.2C12.8 88.6 14.1 86.7 15.3 84.6Z" fill="#A9CCE0"/>
<path d="M17 39.1C16.8 39.1 16.7 39 16.7 38.9C16.7 38.8 16.6 38.8 16.5 38.7L17.6 36.2C17.6 36.4 17.9 36.7 17.9 36.9C17.4 37.8 16.7 37.9 17 39.1Z" fill="#A9CCE0"/>
<path d="M22.6 57.9C22.7 58.2 22.7 58.4 22.6 58.6C22.6 58.6 22.6 58.6 22.5 58.7C22.6 58.4 22.6 58.1 22.6 57.9Z" fill="#A9CCE0"/>
<path d="M16.7 40.2C16.4 40.2 16.1 40.1 15.9 40.2L16.5 38.8C16.6 38.9 16.6 38.9 16.7 39C16.8 39.3 16.4 39.8 16.7 40.2Z" fill="#A9CCE0"/>
<path d="M12.4 50.9C12.3 51.2 12.9 51.6 13 51.8C12.4 52.5 11.9 53.2 11.4 54.1C11.5 54.3 11.5 54.6 11.7 54.9C11.4 55 11.2 55.2 11 55.3C11.6 53.3 12.1 51.2 12.8 49C12.7 49.7 12.6 50.3 12.4 50.9Z" fill="#A9CCE0"/>
<path d="M27.6 0C27.8 3 25.9 6.2 27.2 9.3C28.5 6 29.3 1.4 31.8 1.1C34.3 0.8 31.6 5.7 31.5 8.4C31.8 8.1 31.8 8.1 32.1 7.8C31.8 8.1 31.5 8.4 31.8 8.8C32.4 8.2 33 6.8 33.9 6.5L34.4 7.1C36.5 5.5 37.2 2.2 39.2 0.6C32.4 8.8 33.7 21.1 32.7 31.8C32.7 37.9 34 43.7 35.5 49.5C35.6 50.6 35 52.9 34.4 54.6C34.2 57.7 33.9 60.8 34.1 64.1C33.6 70.9 30.4 76.7 27.9 83.8C27.6 84.5 26.8 85.1 26 85.1C25.3 85.1 24.7 84.4 25 82.6C25.3 79.5 26 76.7 26.9 73.9C27.5 74.5 26.7 75.6 27 76.4C27.6 75.4 28 74.6 28.4 73.6C28.8 72.7 29.1 71.8 29.3 70.7C28.9 72.1 28.6 73.4 28.2 74.8C29.1 71.4 30.3 67.7 30.8 63.8C31.1 62.4 33.8 61.8 32.5 59.5C30.5 64.1 28.3 68.8 26.8 73.7C26.5 74.8 26.2 75.9 25.8 76.9C25.4 77.9 25.1 78.9 24.7 80C24.8 79.3 24.9 78.6 25.3 78.1C23.6 80.9 22.2 83.9 20.7 86.8C21.4 82.1 22.9 77.6 24.3 73.2C25.7 68.7 27.1 64.3 27.7 59.9C25.9 62 26.8 65.6 24.7 67.3C25.8 63.4 26.9 59.5 28.2 55.6C28.2 55.9 28.3 56.2 28.3 56.6C29.8 54.3 29.6 51.5 30.2 49L30.4 48.3C30.3 48.5 30.3 48.7 30.2 49C29.5 51.3 28.8 53.5 28.1 55.6C28 54.5 28.3 53.4 28.7 52.2C28 52.8 27.6 53.8 27.2 54.7C26.9 56 26.6 57.3 26.2 58.6C26.6 56.6 26.7 54.5 26.5 52.5C25.4 55.1 24.7 57.9 23.8 60.6L24.6 56C25.4 53.5 26.2 51.1 26.8 48.5V48.8L26.9 48.2C27.1 47.2 27.4 46.2 27.6 45.2C27.7 44.3 27.6 43.3 27.3 42.4L27.4 41.9C27.6 42.2 27.8 42.4 28 41.9C29.1 39.7 28.3 36.9 29.7 34.3C30.1 33.6 30.1 32.6 30 31.6C30.2 31.3 30.1 31.2 30 31C30 30.8 30 30.5 30 30.3C30 29.7 30.1 29.2 30 28.6C30 29.1 30 29.7 30 30.3C30 30.5 30 30.7 30 30.9C29.8 30.7 29.6 30.5 29.6 30.2C28.9 34 28 37.9 27.5 41.8C27.3 41.5 27.2 41.2 27.1 41C27.2 41.4 27.3 41.8 27.4 42.3C27.2 43.6 27.1 44.9 27 46.2C26.9 45.8 26.8 45.4 26.6 45C25.8 48.6 25.3 52.3 24.7 55.9C23.6 59.2 22.4 62.5 21.2 65.7C22.4 64.1 23.2 62.3 23.9 60.5C23 65.7 21.7 70.9 19.2 75.6C18.7 74.4 18.5 73 17.6 72.1C17.1 72 16.3 73.5 16.3 72.4C16.1 70.5 16.5 69.1 16.6 67.8C16.7 66.6 16.6 65.5 15.2 64.4C14.8 64.2 13.7 64.8 12.5 65.2C11.4 65.7 10.3 66 10.2 65.3C10.2 64.3 10.4 62.4 10.8 60.5C11 60 11.2 59.4 11.4 58.8C11.5 58.7 11.3 58.6 11.2 58.4C11.6 56.3 12 54.3 12.5 53.3C12.7 52.9 12.8 52.5 13 52.1C13.2 51.9 13.5 51.8 13.8 51.7C13.6 51.4 13.5 51.1 13.5 50.8C13.9 49.7 14.2 48.7 14.5 47.6C14.9 47.1 15.3 46.5 15.7 46C15.5 46 15.2 46 15 45.9C15.3 44.6 15.7 43.2 16 41.9C16.4 41.4 16.8 41 17.4 40.6C15.9 38.8 17.6 35.6 17.7 33.2H17.6C17.8 32 18 30.8 18.2 29.6C18.4 29.4 18.6 29.3 18.9 29.1C18.4 28.6 18.4 28.3 18.3 28.1C18.7 27.1 19.2 26.4 19.6 25.6C19.5 25.4 18.9 25.1 19 24.7C19.1 24.1 19.2 23.4 19.2 22.8C19.4 22.1 19.5 21.4 19.7 20.7C20.3 18.3 21 15.9 21.8 13.5C22 13.4 22.3 13.5 22.6 13.5C22.3 13.1 22.6 12.6 22.5 12.2C22.6 12.3 22.7 12.3 22.8 12.3C22.4 11.1 23.2 11 23.5 10C23.5 9.8 23.3 9.5 23.2 9.3L23.3 9C24.7 8 24.4 6.8 24.5 5.6L25.8 1.9C26.2 0.9 27.1 0.6 27.6 0Z" fill="#A9CCE0"/>
<path d="M17.7 35.9L19.1 32.6C18.9 33.8 19.1 34.9 17.7 35.9Z" fill="#A9CCE0"/>
<path d="M9.10001 65.9C8.50001 66.2 8.00001 66.5 7.60001 67C8.50001 64.4 9.30001 61.7 10.1 58.9H10.2C9.80001 61.2 7.80001 64 9.10001 65.9Z" fill="#A9CCE0"/>
<path d="M16.7 38.9C16.6 38.8 16.6 38.8 16.5 38.7C16.6 38.8 16.6 38.8 16.7 38.9Z" fill="#A9CCE0"/>
<path d="M17.7 74.6L17.6 74.9C17.7 74.2 17.9 73.4 18 72.7C18 73.3 17.9 73.9 17.7 74.6Z" fill="#A9CCE0"/>
<path d="M14.1 81.8C13.6 83.2 13 84.6 12.4 86C11.8 86.8 11.3 87.6 10.6 88.3C9.9 89 9.2 89.7 8.5 90.2C10.5 87.6 12.4 84.8 14.1 81.8Z" fill="#A9CCE0"/>
<path d="M6.69999 70.8C6.29999 71.2 5.89999 71.7 5.39999 72.1C5.59999 71.6 5.89999 71.1 6.09999 70.5C6.29999 70.7 6.59999 70.7 6.69999 70.8Z" fill="#A9CCE0"/>
<path d="M19 68.4L18.9 68.8C18.8 68.4 18.8 68 18.7 67.5C18.8 67.8 18.9 68.2 19 68.4Z" fill="#A9CCE0"/>
<path d="M3.29999 75.9C3.49999 75.6 3.69999 75.2 3.89999 74.9C3.89999 75.2 3.99999 75.5 4.09999 75.8C3.79999 75.7 3.49999 75.8 3.29999 75.9Z" fill="#A9CCE0"/>
<path d="M0.8 81.4C0.5 81.8 0.3 82.3 0 82.6C0.2 82.1 0.5 81.5 0.7 81C0.7 81.2 0.8 81.3 0.8 81.4Z" fill="#A9CCE0"/>
</svg>
