<svg width="36" height="36" fill="none" xmlns="http://www.w3.org/2000/svg"><path d="M15.81.804c.201-.1.452 0 .352.05.452-.201.452-.05.502-.352.251-.2.603-.05.302.1l.803-.3-.502.05c.1-.252.854-.1.954-.352l-.904.2.05-.1c-.2.1-.602.151-.753.151 0-.05 0-.1.15-.15-1.154.2-.25.451-1.154.703.05.05.1 0 .2 0zM14.756.502l-.302.352c-.2.05-.452.05-.652.1 0 .1-.402.352-.101.302 0 0 .15-.05.251-.1 0 .25-.803.4-.552.501.502-.2.552-.2.854-.452.452-.1.803-.15 1.054-.1.15-.05.1-.201.302-.251-.05 0-.05 0-.101.05l-.1-.301c-.201.1-.352.1-.503.15l.704-.552c-.302-.251-1.055.15-1.356.1.401.151-.302.201.502.201zM25.805 28.326c.1-.1.1-.201.1-.252-.402.402-.854.754-1.306 1.105.1.05.553-.2.302.05.15 0 .502-.351.452-.502v.201c.2-.351.602-.301.502-.05.15-.402.301-.803.402-1.205-.352.2-.1.301-.452.653zM18.17 4.269c.252 0 .252-.05.252-.1-.1.05-.2.1-.251.1zM26.307 27.321l.1-.402c-.05.201-.1.302-.1.402zM26.407 31.289l.1-.15c-.05.05-.1.1-.1.15zM29.873 20.692c0-.05 0-.05.05-.1-.05 0-.05.05-.05.1zM22.038 34.955l.804-.552c-.1.15.351-.05.2.1.05-.05.352-.2.252-.2l-.151.1c.351-.453.05-.402.653-.955-.502.05-.653.302-.854.502-.05.05-.15.101-.2.151l-.604.653-.1.201zM29.521 5.776l-.1.05c.05 0 .251.05.1-.05zM26.357 27.572c-.05-.05-.05-.1-.05-.2l-.05.3c0-.05.05-.1.1-.1z" fill="#A9CCE0"/><path d="M26.307 28.376l-.452.452c-.05.1-.05.15-.1.25.15-.15.351-.4.552-.702zM29.32 21.495c.503-1.155.151.402.452-.1.1-.352.05-.502.05-.753-.3.954-.401-.302-.703.652-.2-.25.05-.753.201-1.054.402-.251.05.402.251.552.1-.402.05-.351-.05-.552.15-.302.201-.603.251-.904.05-.302.151-.553.352-.653.05-.452-.05-.452-.1-.753-.252-.1-.302.602-.553.703.05-.05.1-.05.1-.05-.05.1-.1.25-.15.351.2-.301.25.15.2.301-.05.151-.1.402-.2.352v-.201c-.15.251 0 .653-.251.854-.05 0-.05-.1-.1-.15.05.35-.101.652-.151 1.154l-.151-.351c.1.502-.352 1.255-.804 1.707.05-.05.151-.1.151-.05-.15.351-.402.502-.452.251 0 .402-.854 1.005-.904 1.557-.05.452-.1.854-.15 1.306-.101.402-.151.854-.252 1.306.05-.1.1-.151.15-.252.302 0 .352-.1.302.352.15-.352-.1-.402.301-.803-.05.25.101.451.503.1.703-1.205.602-2.31.904-3.516.2.05.602-.803.803-1.155.1.251 0 .553-.15.904.1-.2.301-.552.452-.803l-.302-.302z" fill="#A9CCE0"/><path d="M28.366 24.408c.05 0 .05-.05.1-.05-.05 0-.05 0-.1.05zM29.12 22.65s.05 0 0 0l.05-.1c0 .05 0 .05-.05.1zM26.86 27.622c0 .1-.05.151-.05.252 0-.05.05-.1.1-.151 0-.1 0-.1-.05-.1zM26.407 27.572v-.1c-.05 0-.05.05-.05.05 0 .05.05.1.05.05zM30.174 20.29c-.15.402.251.15 0 .753l.1-.15c-.05.452-.451 1.205-.703 1.657-.05-.1-.25.251-.401.1-.151.352-.302.653-.251.955-.151.15-.252.552-.452.753.15-.05.05.552.351-.15v.1c.402-.302.251-.603.452-.954.201-.151-.05.401.1.25.201-.451.854-1.355.503-1.456.15-.351.25-.351.351-.402-.1-.652.955-1.908.452-2.109-.05.2-.15.502-.15.854l-.352-.201zM27.362 27.02l.05-.05s0 .05-.05.05zM22.038 29.38v-.401c.804-.553 1.155-.704 1.858-1.206.1 0 0 .1 0 .15.452-.401 1.206-.953 1.407-1.405.15-.151.602-.452.502-.201.05-.1.1-.201.2-.251.101.05-.15.2-.05.3.05-.05.1-.05.1-.1-.05.201.403.151-.1.653-.401 0 .302-.351 0-.452-.15.151-.05.251-.05.251-.2.201-.25.151-.301.1 0 .152-.352.302-.402.503-.402.402-.15-.2-.402.05l.05.402-.502.352c-.653.653.452.351-.301 1.155 0-.201-.502-.201-.954 0l.401-.402c.151-.15.302-.301.503-.402-.302.05-.15-.05 0-.2.15-.151.351-.302.15-.352-.1.301-.452.552-.753.653l.05-.1c-.301.2-.351.602-.854.753-.2.1-.2 0-.2-.05-.151.1-.302.25-.352.2zm.452-.301l.301-.15c-.1 0-.2.05-.3.15zM9.583 2.511c.05 0 .1 0 .1-.05 0 0-.05 0-.1.05zM9.332 32.394l-.201-.151c.1.1.15.15.2.15zM4.56 29.53l-.3-.25c.15.1.2.2.3.25zM7.222 3.917l-.05.05.05-.05zM.744 19.436c0-.05.05-.1.05-.2 0 .05-.05.1-.05.2zM4.661 29.581c-.05-.05-.05-.05 0 0l-.05-.05.05.05zM11.09 34.403c.05 0 .1 0 .15.05-.05-.05-.1-.05-.15-.05zM11.14 33.398c.05 0 .1.05.15.05l-.15-.05zM19.477 35.005c.1-.05.2-.05.301-.1-.15 0-.2.05-.301.1zM11.843 33.95h.05c0-.05-.05-.05-.05 0zM12.245 1.858c.1-.05.15-.05.25-.1-.1 0-.2.05-.25.1zM1.045 14.816c.05-.1.15-.251.15-.151 0-.2-.2-.2-.15.15zM11.29 4.922c0-.05.05-.1.101-.15-.05.1-.15.15-.1.15zM11.39 4.771c.051-.05.051-.1.101-.15-.05.05-.1.1-.1.15zM3.657 16.825s-.05.05-.05.1c.05 0 .05-.05.05-.1zM12.697 1.708c0-.1 1.054-.603.15-.352-.05-.251.553-.301.804-.452-.201 0 .05-.15-.05-.251-.1.05-.251.2-.452.251-.151-.05.15-.251.401-.301-.351 0 .352-.302-.15-.251-.904.401-1.507.652-2.01 1.255.252-.15.503-.301.754-.402.251-.1.502-.2.754-.2l-.1.25c-.252 0-.453.05-.654.101-.2.15-.351.251-.603.352l1.055-.302c.553 0 .251.15-.15.302.15 0 .2-.05.25 0zM18.673 30.937l.05-.1c-.05.05-.05.05-.05.1zM16.815 31.088s.05-.05.1-.05c-.1 0-.1 0-.1.05zM4.912 24.81c.05 0 .05.05.1.05-.15-.15-.25-.402-.401-.602-.1-.201-.251-.402-.352-.352.05.1.251.804.1.753.202.201.252.653.352.754-.1-.452.15-.151.352.1.1.251-.201.05-.1.251l.351.553-.301-.503.25.05s-.05 0-.05-.05c-.502-.753.302-.25-.3-1.004zM5.013 24.86l.1.1c-.05-.1-.05-.1-.1-.1zM3.858 21.194c0-.05-.05-.1-.1-.15 0 .05.05.1.1.15zM25.353 29.38c-.05-.05-.553.201-.452.302.15-.1.301-.151.401-.252l.05-.05zM3.205 10.848c-.05.05-.05.1-.1.15v.051c.05-.05.05-.15.1-.2z" fill="#A9CCE0"/><path d="M4.209 24.509c.05.1.1.1.15.1-.05-.05-.1-.1-.15-.1zM3.556 10.948c.05-.05.201-.15.251-.1.05-.15.05-.301.05-.452-.05.15-.15.352-.3.552z" fill="#A9CCE0"/><path d="M25.654 29.23l.1-.1-.05.1c.1-.05.201-.151.302-.201.05-.05.05-.1.1-.1v.05l.1-.05c.05-.151.201-.402.352-.603.15-.201.251-.452.302-.553.15-.251.351-.502.502-.703-.151.15-.302.352-.151.352.352-.252.703-.201.954-.904l-.25.3.3-.953c.302-.151-.15.452-.15.653.301-.653 1.054-.904 1.004-1.356.201.05.452.15.754-.252-.352.201.05-.3-.302-.2 0-.201.352-.402.251-.503l.05.1c.654-.552.402-1.004.453-1.405.2-.453.351-.754.502-1.055.15-.302.301-.553.452-.954.1 0 .502-.05.602-.352-.1-.2.05-.904-.15-1.055-.251.503 0 .503-.05.854-.302.201-.201-.05-.452.251.2-.25.351-1.356.652-1.607v.1c.252-.502.804-.451.704-1.406 0-.15-.05-.301-.05-.452l.05.05c.15-.703.351-.451.25-1.305 0 .05.051.05.051.1.2-.452-.05-.904-.05-1.255.2-.201.15.05.301.2.05-.2.05-.401 0-.602-.05-.201-.05-.402-.1-.603-.1-.351-.252-.703-.402-.904 0-.15.05-.351.05-.502.1.251.352.603.452.502-.1-.25-.15-.2-.15-.602.15.05.25.2.401.351.05-.452-.1-.452-.15-.452-.1 0-.151.05-.05-.301a.416.416 0 00-.402-.352v-.502c-.1 0-.201-.15-.302-.301-.1-.151-.2-.352-.301-.553-.1 0-.05.352.1.452-.15.05-.351-.301-.452-.502.151-.15-.1-.452-.301-.753-.2-.302-.402-.553-.15-.553-.402-.402-.955-.854-1.457-1.255a4.25 4.25 0 00-.754-.452c-.25-.1-.451-.201-.652-.302-.151-.2-.603-.452-.252-.452-.853-.452-1.406-.301-2.26-.703-.05-.05.402.15.402 0-.602-.1-1.004-.552-1.908-.703.15.05.2 0 .25-.05 0 .05-.4 0-.652 0-.1-.05.2 0 .15-.05-.853-.302-1.657-.402-2.51-.452-.804-.05-1.608 0-2.512-.1.503.05.754-.152.754-.252l-.502-.05c-.201.1-.603.05-.904.15-.05-.05-.201-.1-.05-.15-1.005-.302-1.608.351-2.813.25.452-.2 1.004-.35 1.506-.501l-.351-.201.653-.201c-.402-.15-.753.15-.804-.05.1-.05.302-.05.302-.151-.503 0-.503.15-.804.2.753-.4 2.26-.3 3.114-.3.15 0-.1.1-.15.1.35 0 .501.15.953.15.252-.15-.2-.15-.401-.2.05-.15.15-.1.351-.1.05.2 1.256.2 1.507.502 1.205.15-.1-.503 1.054-.201l.302.25c.703 0 1.657.051 2.41.352l-.15-.05c-.15.05.05.15.1.251.553.251 1.155.201 1.407.553.753.05 1.858.401 2.661.703.05.351-1.054-.352-1.456-.302.2.1.452.201.653.352-.402-.2-.603-.2-.904-.15.552.3.854.2 1.406.451-.1.05-.05.1.2.252l.152-.101s0 .05.1.1c.352.151.653.352.954.553-.15-.2-.05-.352-.301-.502 0 .15-.2 0-.452-.15.301.05-.2-.252-.15-.302.25.15.502.301.753.502.25.15.502.301.652.452v.2c.402.403.904.754 1.105 1.106l-.15-.05c.2.25.401.552.653.803.2.251.351.553.452.854.25.2.452.502.703.753.2.301.402.553.602.753.151.101.201.603.252 1.105.05.503.05 1.105.25 1.457 0 .05-.2-.452-.3-.703 0 .25.1.452.15.602.05.151.05.302-.05.352.05-1.055-.201.05-.251-.402 0 .452.05.954.15 1.206 0-.754.302.3.201-.503.05.151.1.302.15.503 0 .15.051.351.051.552 0 .352 0 .753-.1 1.105-.1 0-.151.05-.201.301l.1.251c-.05.302-.1-.652-.2 0 .1.352-.05.854-.151 1.306-.1.452-.201.854 0 1.055-.302.452.05-1.005-.352-.302-.05-.451.251-1.004.05-1.205 0 .452-.2.1-.25.402l.05.502.05-.1c.05.854-.452 2.059-.754 3.013-.1.904-.05 1.607-.552 2.561.05-.351-.502.704-.452 0-.302.402-.452.854-.352.904.251-.351.1-.1.352-.401 0 .25-.302.753-.502.904.05-.1 0-.05 0-.1-.352.401-.05.25-.201.602-.201 0-.503.653-.754.904l-.1.552c.05-.301-.352.352-.502.302-.15.351-.15.703-.553 1.105.1-.201-.402.3-.552.2-.352.302-.553.653-.754.955-.2.351-.451.653-.853.854 0-.05.05-.252-.151-.101-.15.15-.402.352-.603.552-.1.05-.1.151-.1.151-.201.352-.251.603-.854 1.155.15.151.653-.301.854-.502l.1-.301c.352.1.503-.452.703-.503-.15.553-1.255 1.306-1.858 1.859.553-.05 1.507-.603 2.21-1.256l-.402.15.402-.3-.502.15c.351-.25.653-.552.954-.803-.351.351-.653.25-.452.1.502-.2.352-.452.653-.703-.201.15-.402.352-.352.15.754-.351.804-.652 1.457-1.004-.302-.15.602-.703.452-.954l-.251.251c.1-.2.2-.452.301-.653.603-.351-.15.603.603-.05.602-.703.301-.904.703-1.457 0 .302-.201.854-.553 1.306.1-.05.201-.15.302-.25-.05.2-.553.853-.854 1.154.301-.653-.251.201-.603.302.1.15.352-.201.1.3.302-.35.352-.4.804-.853-.904.954-.351 1.306-1.255 2.06.351-.453-.302-.051-.402-.051-.15.2-.553.552-.653.753l.301.05c-.452.553-1.004.302-1.456.955 0 .2.603-.402.502-.302-.753.804-1.356.704-2.26 1.055 0 .1.1.251-.15.502 0-.2-.252-.1.05-.401-.302.1-.603.401-.804.602.653-.25-.15.352-.2.452-.352.151.05-.2.2-.301-.251.1-.703.05-.703.301-.05-.15.552-.703.954-1.004h-.402c.151-.201.201-.201.553-.352-.352.05-.402-.1-.402-.2.05 0 0 .05.05.05.252-.1.402-.252.302-.302.1-.301-.402.05-.603.05-.1.101-.2.151-.352.252-.3.401-.652.853-1.004 1.255-.552.302-.854.251-1.356.302l-.05.2c-.503.151-1.055.201-.754-.1.05.05.1.05.201 0 0-.05.05-.05.05-.1v-.05c-.552.2-.904.3-.904.35.904-.501-.05-.35.05-.702l-.903.301c.602 0 .05.15-.15.251-.051-.1-.252-.05-.453 0-.251.05-.502.1-.653.1v-.05c-.301 0-.854 0-1.255.05 0 .05-.503.352-.754.503.703.1.302.15.352.301-.05 0-.201-.05-.201 0-.1.05.15.1.15.15.754-.05 1.558-.1 1.859-.4-.251-.101-.402.15-.653.05.352-.202.854-.202 1.456-.252l.201.1.603-.2c-.251.1-.05.25-.703.401.1.151.653-.15 1.054-.15l.151-.251c-.05.15.804-.05.251.25-.301.151-.653.252-.954.352l.301.1-.904.252.201-.15c-.703.15-.803.05-.904 0-.1-.101-.2-.101-.904 0-.2.15-.452.2-.753.2s-.653 0-1.055-.1c.653 0 .1-.15.352-.302-.603-.15-.854 0-1.206.05-.15-.15-.25-.3.302-.15.1-.251-.754-.05-.754-.352-.904-.2-1.305-.1-1.757-.05-.251 0-.452.05-.754-.05a4.468 4.468 0 01-1.105-.552l.05-.05c-1.355-.503-1.958-1.055-3.013-1.759-.2-.3-.401-.552-.602-.853.2.1.803.301.653.05.2.502.652.753 1.004 1.155.1-.05-.05-.2-.1-.301.25.15.3.351.703.552 0-.05-.302-.351 0-.2.15.15.25.3.401.451.704.302.553-.2 1.256.251-.2.1-.603.151-.954 0 .351.252-.553-.2-.251.1.652.051.803.403 1.607.553-.1 0-.15.05-.302-.05.352.15.653.352 1.005.502-.201-.2.954.151.904-.1-1.105-.452-.854-.201-2.009-.854.352.1.904.1 1.155 0l.05.05c.252-.15.1-.25.201-.602-.301 0-.552-.05-.753-.151-.251-.1-.452-.2-.804-.301-.2.1.251.452.603.502l-.603-.15h.151c-.452-.252-.904-.503-1.356-.855.251.151.402.1.552.1-.15-.1-.3-.25-.452-.4-.05.2-.15.3-.3.15-.403-.302-.704-.553-.855-.804-.2-.25-.301-.452-.351-.653-.05 0-.05-.05-.1-.05 0 .251-.754-.2-1.106-.251.151-.15-.25-.452-.401-.703-.251.05-.352.402-.251.803.602.352.401.1.853.151.302.2.603.402.904.552h-.301c.352.402.904.553.753.704-.301-.05-.653-.402-.954-.503.05.1.15.201.201.302-.653-.251-.1-.402-.804-.754.05.352-.05-.05-.401-.15.1.301 1.054.854.653 1.004-.201-.1-.402-.402-.603-.703-.201-.301-.402-.603-.753-.703h.05c-.503-.603-.804-.703-1.105-.854-.05-.15-.201-.301-.352-.452a3.243 3.243 0 01-.402-.452l.1-.05-.35-.402c.3.1.35.502.652.854l.1-.15c.151.552.603.602 1.005.753-.25-.151-.502-.503-.703-.754-.2-.25-.402-.502-.603-.402l-.05-.401-.15-.1c-.05-.302.3-.202.602.2 0 .1 0 .15-.05.15.2.151.452.252.753.704l-.25-.251c.451.552.903 1.004 1.205 1.004a56.67 56.67 0 01-1.758-2.31c-.503 0-.854-.15-1.256-.05-.402-.502-.904-1.256-1.055-1.808h.1c-.1-.251-.2-.502-.35-.653-.05-.301.25.1.25-.1-.15-.252-.351-.503-.502-.804.15 0 .502.703.653 1.004-.05-.05-.15-.15-.15-.1.1.452.753.954.602 1.256.15.15-.351-.302-.05.351.15.452.452.452.552.452.1-.05-.25-.703-.05-.552-.2-.302-.351-.402-.502-.854.2.301.603.653.552.904.553.502.854.15.703-.1-.1.15-.803-1.005-.502-.101-.351-.251-.753-.904-1.054-1.356h.05l-.352-.603c.1.05.201.251.302.201-.201-.251-.452-.502-.603-.753.351.401 0-.352 0-.603-.201-.05-.402-.352-.352 0 .05.402.151.201.302.502l-.402-.401v-.05l-.301-.202c-.201-.703.502.151.05-.652l-.201.2a8.623 8.623 0 01-.301-1.707c-.05-.302-.1-.553-.1-.804-.051-.25-.051-.452-.152-.653.201.201.452.201.553-.1 0 .15.05.402.1.653s.151.502.201.703c0 .1-.452-.452-.502-.954-.402.351.552 1.155.1 1.305.05.653.252.804.402 1.005.15.15.251.352.352.854.2-.05.2.25.402.25.15-.4-.503-1.305-.553-2.008.05.05.1.2.15.2-.05-.501-.15-.652-.3-1.004v.05c-.352-.552.05-.401.1-.753-.05-.15-.1-.602-.201-.502.05-.2.05-.452.1-.653l-.2.05c-.05-.351.1-.452-.1-.753H.642l.05.904c-.1-.452-.2-.1-.3-.603.25.553.05-.401.25-.502l-.15-.351c0 .05.05.05.05.1.1-.301-.1-.351-.05-.703-.1.402-.252.703-.05 1.205-.151-.351-.302-1.105-.302-1.306-.251-.3-.1-.602-.05-.954.05.703.552-.2.452 1.155-.05 0-.05-.15 0-.2-.251.2 0 .853.15 1.155.151-.1.201.2.252-.302-.1.201-.352-.452-.252-.954l.302.1c0-.25 0-.502.05-.703v.05c.2-.25 0-.753.15-1.255-.05-.351.202-1.758-.2-1.205.25-.402.15-.854.2-1.356l-.25.602c-.05-.803 0-.552-.151-1.205.1-.05.2-.15.251 0 .15-.502.402-1.055.603-1.607l.301-.753c.1-.201.15-.402.15-.603l.654-.653c.2-.15.401-.352.652-.804.1-.2-.351-.05.151-.552.05 0-.2.653.251.05.1-.25.302-.502.553-.703l.351-.352c.1-.1.251-.25.302-.401.3-.201.753-.653.803-.402-.452.351-1.004.904-1.004 1.105-.05-.15-.352.25-.15-.15-.704.552-.302.501-.855 1.004.05.1.402-.151.502-.352.1.1-.15.402-.3.653-.152.251-.202.452.1.251.502-.603.3-1.155.954-1.507-.1.302-.452.553-.502 1.005l.452-.352.15-.452v.05c.904-.502.452-.853 1.055-1.556-.553.2-.2-.402-.603-.252.452-.401.854-.652 1.005-.452-.754.854.1.252-.553 1.105.201-.05.05.452.553.1.402-.552-.302-.05.2-.552.05 0 .101 0 .101.05.15-.3.301-.2.553-.552l-.05.15c.451-.15.35-.451.753-.501-.251-.05.15-.302.301-.503-.402.151-.753.05-1.406.503 0 .2.1.2-.1.502.15-.1.25-.251.401-.352-.1.1-.15.15-.2.251l-.453.251c.452-.502.1-.452.251-.753.553-.301.402-.301.754-.502.1.2 1.155-.301 1.858-.452l-.301.15c-.352.352.401 0 .452.05l.25-.25c-.05.05-.1.15.05.1.403-.251.302-.452.704-.653.1.1-.2.402.1.352.151.05.553.2 1.055-.15 0-.051.15-.152.352-.252l-.05.05h.451c-.25.302-.703.15-.954.502l.05.201c-.25.1-.552.302-.652.503.401-.151.452-.201.853-.402.1.1-.15.301-.2.351v-.15c-.553.05-.704.452-1.306.753-.1.05-.05 0-.05-.05-.402.402-1.005.402-1.306.954l.1-.2c-.251.3-.753.752-1.155 1.355l.05.05c.1 0-.1.151-.25.201-.101.15-.202.302-.302.402-.1.15-.15.251-.251.402.1 0 .2-.05.301-.15 0-.152.552-.453.352-.553.3-.05.552-.503.753-.553-.402.1.1-.301.1-.452.201.05.503-.301.553-.15.1 0-.201 0-.302.2-.25.352.704-.25.352.151.452-.452 1.255-.753 1.758-1.255l-.352.1c.251-.15.904-.452.954-.352-.2.1-.452.201-.652.352.05.15.602-.301.703-.15l.602-.704-.351.15c.1-.1.301-.2.602-.25.252-.1.603-.15.854-.201-.2.351-.803.251-1.306.603-.351.25.352.15 0 .351.1 0 .352-.1.452-.2h.151c-.251.35-.954.602-1.356 1.004.05-.05.05-.1.05-.1-.401.1-.753.3-1.054.501.2 0 .25-.1.351-.2.05.05-.25.25-.351.351.351-.1.15.1.351.05-.15.151-.351.201-.603.352-.15 0 .05-.15-.05-.251-.2.2-.452.05-.753.402.502-.252 0 .3-.1.452l.1-.05c-.05.2-.2.3-.352.25.151-.2.352-.25.201-.351-.15.1-.25.15-.351.301l.05-.2-.552.502c0 .15-.05.452 0 .653-.201 0-.302.25-.402.401v-.1c-.302.15-.754.653-.703.803-.251.1.602-1.657-.452-.401-.402.452 0 .552-.1.853 0 0 0-.05-.051-.05-.2.201-.1.302-.15.502.15-.1.25-.25.25-.351.05.15-.351.402-.351.653-.05-.352-.352.351-.352.1-.402.352-.502.954-.502 1.256-.402.2-.2.552-.552 1.004.05-.1.05-.25.15-.351-.05-.352-.351.502-.301 0 0 .1.1.05.1-.05.05-.202.05-.402-.05-.352l-.351.351.05-.15c-.201.2-.352.401-.452.602.05.05.1 0 .15-.05-.1.201-.15.402-.25.603-.101.2-.101.452-.151.653-.05.2-.1.452-.1.653 0 .2-.051.401-.101.602.452.201.05 1.859.452 2.461-.15-.15-.402-.25-.553-.15-.05-.151-.25-.402-.2-.754.1-.05.2-.452.3-.2 0-.854-.25.1-.401-.151.05 1.004.352 1.557.552 2.109h-.05l.15.452c0-.351.302-.402.252.1v-.05c-.05.302.15.804.251 1.206l.251.25c.1.402-.2.503-.402.704.201.653.553.954.854 1.356-.05.251.302 1.205-.05.753.352.502.954.1 1.055 1.155l-.251-.1c.502.854 1.456 1.908 1.607 2.31-.302 0-.201.302-.1.703.15.352.35.804.2 1.005.05-.1.352.15.402.15 0 .1.05.252.251.252-.2-.352.553-.151-.1-.553.502.05 1.004.2 1.557.753l-.151.151-.402-.452c-.05.15-.301-.1-.402-.15.754.903-.452.25.452 1.054.151 0 .1 0 .352.15-.1-.1-.251 0-.05.151h.301c.15.503-.703-.25-.552.151-.452-.2-1.156-.753-1.206-.452.251.301.502.352.703.402.201.05.402.1.703.402v.15c.302.1.402 0 .603.05-.05.05 0 .151.15.252.553.05.855.2 1.357.15-.553-.15-.754-.401-.904-.552-.201-.15-.352-.352-.904-.653.2.05.904.502 1.105.301l-.1.15c.2.051.35.101.552.202.2.1.351.15.552.301l-.301-.05c.301.1.502.301.703.402.2.15.402.25.703.2a.802.802 0 00-.402-.15c.15 0 .352.1.502.15.151.05.352.151.503.201.25 0 .502-.05.753-.15-.05.1.402.2.15.301.453.251.754 0 1.055 0 .252.1.151.15-.05.15-.2 0-.452 0-.502.151.703.252 1.507.151 1.908-.05-.15-.05-.2-.05-.2-.1 0 .05.3.05.451.05l.1-.15c.252.05.252.15 0 .25.252 0 .553-.25.855-.1-.402.2-1.005.15-1.256.2.904-.15 1.005.352 2.16-.05.05.05-.15.202.1.151.502-.15.1-.3.201-.452-.402.151-.603.151-.854 0l.1-.1c.051.05.252 0 .352.05v-.2c0 .25.452.3.754.15-.352-.05-.252-.1-.402-.352.351-.351.552.1.954-.301 0 .1-.402.251-.05.2.301-.1.2-.25.351-.4-.15.25-.05.4-.2.702-.553.201-.201.05-.754.302h.502c-.452.2-.3.351-.3.401.903-.1.552-.452 1.054-.602.2-.201-.502.15-.15-.1.501-.151.05-.151.552-.453l-.05.1c.2.05.3-.15.451-.3.151-.151-.502-.503.251-.905v.151c0 .653 0 1.256-.05 1.858.904-.401 1.909-.954 2.913-1.557.402.1-.502.703-.402.804l-.502.251c0-.05.201-.251.402-.352.15-.15.251-.25 0-.2-.753.602-1.155.703-1.858 1.356.2.1.452-.05.753-.252.301-.2.603-.401.904-.451-.2.1-.402.25-.552.401a12.461 12.461 0 001.556-.904l.05-.15c-.35.2-.652.351-.652.401.502-.301.753-.753.653-.954l-.1.05.1-.2.552-.201zM19.326 4.068c.05 0 .05-.05.1-.05-.05 0 0 .05-.1.05zm-3.767 29.38c.402.05.804.1 1.156.1.2 0 .401 0 .602.051h.553c-.704-.15-1.256-.402-1.407-.552-.05-.05 0-.151.201-.151.201-.05.553-.05 1.055-.1l.15-.05c-.3-.051-.753 0-1.205.05-.1.05-.25.1-.402.2-.15.05-.351.151-.552.201l-.703.301c.1.151.351.05.603.101l-.05-.15zm-.401-.854c-.402-.1-.302 0-.402.101.15 0 .301 0 .452.05-.1-.05-.1-.1-.05-.15zm-.402.151c.05 0 .1 0 .1.05l-.1-.05zm8.086-1.205c-.05 0-.05 0 0 0s.15-.05.25-.1c-.05 0-.15.05-.25.1zm-.904.15v.201c.1-.05.2-.05.25-.1-.05-.05-.1-.1-.25-.1zm-2.712.302c-.1.251-.653.351-.653.602-.05.05.1.05.25.05.151 0 .302-.05.503-.05 0-.05.05-.05.05-.1-.15 0-.301-.05-.25-.2.501.2.3-.302.803-.352.05-.201-.603-.05-.703.05zM6.017 7.132h.2l-.15.351c-.2.201-.452.352-.653.502a1.1 1.1 0 00-.401.704c-.201.15-.402.2-.603.2.1-.1.15-.2.251-.25.251-.754.502-.854.703-.905.15-.05.352-.05.653-.602zm-3.566 5.926c0-.05-.05-.1-.05-.1 0 .351.05.703.1 1.004.05.301.05.603.05.854.05.552.05 1.004.05 1.356.152-.151.352-.754.403-1.055l.2.301-.15.151.15.452c.151-.1.151-.502.252-.703 0 0-.05-.201-.151-.452-.05-.251-.1-.502-.15-.603l-.252.603c.1-.15.15-1.005.15-1.356-.1-.05-.35.552-.15.653-.15.05-.05-.603-.25-.201-.051-.251 0-.603.1-.904.15-.301.25-.603.351-.753h.251c.201-.352-.2-.352.1-.754-.15.603.302 0 .151.452.151-.1.251.1.352-.351-.15-.503.402-.352.251-.804.2-.2.05.301.301-.1.05-.553 0-.603-.2-.754-.151.201-.151.402-.151.553 0 .15.05.301-.05.502 0-.301-.05-.653 0-.954-.151.1-.201.2-.201.301.05-.15.05-.352.05-.502v-.251c-.251.452-.402.853-.553.853l-.1-.1c-.15.1-.2.452-.2.603-.152.452-.152.904-.302.954l-.05-.2c-.151.552-.151.602-.302 1.305zm5.374 16.875c0-.251 0-.503-.1-.854-.1-.352-.402-.703-.904-1.306l.1.05c-.15-.401-.452-.602-.753-.904l-.452-.452a1.145 1.145 0 01-.302-.602c.402.301.352.301.955.502-.151-.1-.251-.201-.352-.352.251 0-.1-.351-.251-.653l.402.1c.05.202.301.704.351.654-.1-.1.151.803.503 1.105.1-.151-.503-.854 0-.703-.302-.252-.201-.352-.452-.653.3.25.25-.05.552.1-.15-.15-.301-.301-.402-.502 0 0 .15.15.302.251.15.1.25.15.2-.15-.2-.151-.452-.754-.652-.704l.05-.05c-.201-.402-.352-.05-.553-.603-.1.05-.1.151 0 .352.1.15.251.1.452.351-.05.201-.2-.351-.301-.05-.05.15.603.754.2.703l-.2-.401c-.15.1-.352-.201-.502-.1-.201-.202-.15-.604-.452-.754-.15-.05-.302.25-.452-.251.05-.252-.05-.603-.201-1.005-.15-.351-.302-.753-.402-.904-.1-.1-.15-.2-.251-.301-.1.05.301.653.05.502-.1-.2-.2-.352-.251-.552h.1c-.05-.201-.2-.352-.3-.503.2.151.25.553.451.402-.05-.301 0-.351-.1-.552-.05.1 0 .15 0 .1-.1-.552-.402-.452-.503-.552-.2-.251-.2-.1-.25.15 0 .201.05.503-.05.503-.101-.252-.202-.553-.302-.804-.1-.251-.201-.552-.251-.803.1.15.2.25.25.2 0-.401.151-.05.051-.602-.251.1-.301-.703-.502-1.105.1-.201.1-.251.15.15.201-.05.05-.602.05-.803-.05-.1-.1-.301-.15-.452-.1.15-.2.1-.301-.251h-.05c0 .15-.05.351-.05.502v.553c0 .351 0 .703.15.904l-.1-.1c0 .35.15.752.25 1.054.151.301.252.602.101.803-.15 0 0 .151-.2.201l.3.452-.1-.1.301.854h-.05c.301.351.553.602.753.803.1-.05.1-.05.201.05.1.1.151.201.151.302.05.2 0 .401.05.652a5.068 5.068 0 01-.351-.753c-.151 0-.302.1-.201.553-.05-.151-.201-.151-.15.05.05 0 .3.452.35.251.352.703.603 2.06 1.558 2.913-.603-.653.2.703-.352-.1.15.703.502.351.904.954-.05.1-.2-.302-.452-.352.301.502.653.854 1.055 1.155.351.302.753.603 1.105 1.005l-.1.15c.25 0 .451.151.652.302zm1.858 1.155c.201.1.402.2.553.301l-.05-.05c.2.1.401.15.602.2-.301-.25-.402-.552.1-.35-.1.05 0 .2-.15.15.251.251.904.753.854.402-.703-.1 0-.402-.553-.452.352-.05.553.2.804.2-.301.05-.1.352.301.553.201.05.653.251.954.251-.05-.2.252-.2-.2-.402.2 0 .452.05.703.252-.151 0-.352-.05-.352 0 .15.2.402.25.502.351.1 0 .201.05.302.05-.05 0-.05-.05-.05-.05l.351-.05c-.452-.05-.2-.15-.15-.201-.05.2.3.1.451.1-.1-.1-.2-.2-.301-.25.15-.05.553.25.502.05-.351-.1-.552-.151-.803-.201-.251-.05-.452-.05-.754-.151l.201.251c-.351-.05-.452-.15-.552-.301-.1-.1-.201-.251-.553-.402-.2 0-.452-.1-.703-.2-.25-.101-.452-.152-.552-.051.15-.05-.302-.452-.603-.502-.2.05-.502-.05-.753-.151-.201-.1-.402-.15-.302-.05.201.15.553.25.653.502l-.452-.251.201.301c-.1-.2-.15-.05-.2.15zm11.752 3.164s0-.05 0 0z" fill="#A9CCE0"/><path d="M12.044 2.46c.1-.1.452-.25.351-.35.05.15-.602.25-.351.35zM12.496 2.41c0-.05-.05-.1.15-.15-.15.05-.3.15-.401.2l.25-.05zM13.3 3.315c.15-.201.3-.302.652-.402.251.351-.502.301-.552.703.602-.15.703-.552 1.205-.753-.301-.1-1.406.15-1.306.452zM13.199 3.867l.301-.2h-.05l-.301.2h.05zM4.46 5.474c-.1-.05-.2.251-.301.352.1-.1.251-.201.301-.352zM28.366 3.767c-1.004-.402-2.009-.754-3.013-1.005.904.201 1.707.452 3.013 1.005zM1.095 15.318c-.1-.854-.2-1.256-.15-2.11-.201.553-.151.955-.1 1.306.05.352.15.704 0 1.155l.25-.351zM.09 14.966c.252-.1.252.704.403.553 0-.603-.201-.302-.151-.804l-.251.251zM4.51 12.254l.05.201v-.15l-.05-.05zM.442 18.884l-.05-.1v.451l.05-.351zM.292 18.683l.1.1-.1-.1zM4.912 12.606l.15-.251-.05-.15-.1.4zM3.154 15.067c0-.1-.05-.201-.05-.302 0 .05-.1.452.05.302zM.894 21.445c.05.15.151.251.201.352v-.05c-.05-.101-.15-.201-.2-.302zM3.807 17.277c.151-.201.1.552.201.15-.05-.351-.15-.2-.2-.15zM3.456 21.746c0 .05.05.1.05.151 0-.1 0-.1-.05-.15zM3.456 21.746c-.05-.15-.05-.351-.1-.401 0 .2.05.25.1.401zM4.159 23.454l-.05-.15c.15.1.1.05 0-.05-.05-.152-.1-.101-.151-.101-.05 0-.05-.05-.1-.05l.1.1c.1.2.15.301.2.251zM5.917 31.188c-.402-.502-.503-.653-.352-.703-.402-.452-.502-.251-.753-.452.452.452.502.603 1.105 1.155zM4.812 29.983zM4.862 20.993l.301.201-.05-.1-.25-.1zM6.57 31.891c-.101-.1-.252-.2-.252-.3-.1.05.352.35.251.3zM6.87 28.376c.051-.1-.25-.352-.3-.452.1.15.05.402.3.452zM8.377 32.594c-.1-.05-.2-.25-.05-.3-.2-.051-.502 0 .05.3zM7.524 29.079v-.05l-.302-.251.302.3zM8.177 26.819c-.352-.201.1.703-.452.301.401.754.15-.2.502.302-.15-.352-.1-.603-.05-.603zM8.277 27.422c.05.05.05.1.1.15-.05-.1-.05-.15-.1-.15zM9.784 28.677l-.603-.2c.201.05.452.25.703.401.251.15.452.2.502.1-.2-.2-.552-.401-.703-.401l.1.1zM14.806 35.658l-.351.05.401.1c-.1-.1.1-.2-.05-.15zM10.939 31.088c-.15-.1-.302-.201-.452-.251 0 .05.15.15.25.2.051.05.202.101.202.05zM17.116 35.407l-.552.05h.602l-.05-.05zM19.678 35.558l.1.05.402-.201h-.1c-.1.05-.252.1-.402.15zM16.463 31.038c-.25-.05-.451.15-.401.2.15 0 .351.05.502 0-.1-.2-.15 0-.402-.05l.302-.15zM32.987 24.509c.05.2-.352.803-.503.753 0-.1.151-.452-.05-.301v.653c-.552.552-.05-.704 0-1.055-.402.653-.351.954-.803 1.607.15-.2.301-.251.452-.352.2.1-.302.704-.603 1.156.301-.252.251 0 .15.25 0 .05-.05.05-.05.101l-.05.1.05-.05h.1c.252-.401.553-.602.754-.853-.25.05-.1-.201.1-.503.202-.301.453-.653.503-.803.05-.15.1-.251.2-.402l.051-.15c.05 0 .05.05 0 .3.05-.2.352-.803.251-.803.251-.452.452-.954.653-1.406.05-.05.05-.1.1-.1 0-.05 0-.05-.05-.101.452-1.055.804-2.16 1.055-3.265a25.49 25.49 0 00.552-3.415c-.05.352-.2.603-.25.955-.151-.553-.101.552-.352.351-.05-.251.05-.552.1-.753-.1-.1-.251.2-.351.15-.1.402-.05.653 0 .904.05.252.15.503 0 .904-.151-.05-.201-.351-.302.201v-.15c-.05.904-.452.552-.25 1.205l-.202-.05c0 .2 0 .502-.1.803-.1.302-.15.553-.201.754l.1-.05c-.1.602-.15.753-.2.954-.101.15-.151.351-.402 1.004 0-.2.05-.452.05-.653-.251.402-.1.603-.251.854 0-.05-.201-.05-.1-.352-.101.553-.252 1.055-.402 1.608-.05.452.15 0 .25 0z" fill="#A9CCE0"/><path d="M31.68 26.166c-.05.05-.1.15-.15.251.05-.1.1-.2.15-.251zM36 15.368c0 .15 0 .301-.05.502.05-.15.05-.301.05-.502zM30.626 28.326c.251-.151-.05.25 0 .351.201-.251.452-.552.653-.803-.05-.05-.05-.201-.15-.201-.151.2-.302.452-.503.653zM31.58 27.673c0-.05 0-.201.05-.302l-.35.452c.05.05.15.05.3-.15zM28.216 25.363l.1-.151.1-.201-.2.352zM29.873 23.504c-.201.1-.302.452-.352.553.201-.352.15-.201.352-.553zM28.517 23.303l.15-.351h-.05l-.1.351zM34.995 11.601c0-.1-.05-.15-.05-.25 0 .15 0 .2.05.25z" fill="#A9CCE0"/><path d="M35.397 15.77c.151-.553.201-.352.201-.1.05.3.05.652.201.502 0-.201 0-.402-.05-.603l.05.05v-.753c-.15.15-.15.251-.301.2.1-1.004.2-.3.351-1.054 0-.402 0-.803-.1-1.205l.05.1c0-.1-.05-.15-.05-.2-.201-1.407-.603-2.813-1.356-4.069-.502-.602 0 .503-.452.1.2.403.452.905.603 1.306.15.402.3.704.452.704-.05 0-.151-.05-.1.15l.35.452-.05-.502c.151.201.352.753.453 1.256.05.502.1 1.004 0 1.155-.101-.452-.201-.553-.252-.703-.1-.151-.1-.352-.2-1.005-.05.05-.101.302-.201.05.401 1.457.25 2.813.401 4.169zM28.868 4.269l.704.1c-.302-.15-.653-.351-.955-.452l-.1.1c.1 0 .452.051.552.202l-.2.05zM30.375 4.62c-.502-.25-.603 0-.402.201-.502-.15-.1-.351-.502-.301-.05.15.502.402.653.452l.251-.352zM33.489 7.584l-.2-.05.25.35-.05-.3zM33.288 7.533l-.251-.351c-.05.05-.05.15-.05.2l.3.151zM32.384 6.378c-.1-.15-.251-.25-.402-.402.15.101.301.252.402.402zM32.685 6.73l-.301-.352c.1.1.2.251.301.352zM33.087 7.182c.1-.15.15-.352-.301-.754l-.1.302c.15.15.25.301.401.452zM29.973 20.943l.05-.302-.05.352v-.05zM30.827 19.185c0-.1 0-.15-.05-.2 0 .05 0 .15.05.2zM30.124 17.528c.251-.352.1.552.301-.1.15-.05.251.35.1.652-.15-.05 0-.351-.2-.15.1.25-.05.3.2.3 0 .403.151.503.202.754.05-.452.502-1.406.351-2.009-.2-.351-.552-.2-.904-.301-.05 0-.1.2-.15.402 0 .2 0 .401.1.452zM29.672 18.03c-.05.15-.05.2-.05.301.1 0 0-.2.05-.301zM32.886 14.213c-.05-.05-.1-.402-.2-.301l.1.502c0-.15.05-.15.1-.201zM32.786 14.665v-.251c-.05.05-.05.15 0 .251zM32.936 14.163c-.05.05 0 .05 0 0zM31.179 5.223c.05-.05-.201-.2-.352-.25.1.05.201.2.352.25zM21.385 2.009l-.2-.1c.05.05.1.05.2.1zM17.669 4.37c-.151.05-.603-.05-.754.05v-.05l-.301.05c.251.05.854.05 1.055-.05z" fill="#A9CCE0"/></svg>