<svg width="232" height="150" fill="none" xmlns="http://www.w3.org/2000/svg"><path d="M20.476 126.005l.574.099c-.036-.094-.165-.151-.575-.099zM162.301 19.07c.15-.165.3-.331.228-.517-.208.294-.265.424-.228.517zM147.143 53.267s-.036-.093-.129-.057c0 0 .036.094.129.057zM27.579 126.896c-.13-.057-.223-.021-.259-.114-.02.223.202.244.259.114zM170.455 13.547s-.036-.093.057-.13l-.057.13zM49.804 130.824c.093-.037.186-.073.316-.016-.13-.057-.223-.021-.316.016zM135.15 54.702c-.057.13-.021.223.015.316.057-.13.115-.259-.015-.316z" fill="#EDB9A3"/><path d="M136.294 55.438c.612-1.739-.855.01-1.035-.456-.135.481-.758 1.366-.234 1.056-1.119.434-1.069 2.774-2.152 3.302.036.093.523-.31.367.393-.492.942-.787.735-1.088 1.066.052.41-.669 1.869-.612 1.74-.156.703 1.062-.305.828.75.103.82-.721 1.46-.97 2.2-.824.642.27-.962.311-1.407l-1.084 2.458c-.637.57-.31-.523.162-1.242-.788.734-1.229 2.085-1.012 2.645-.415.59-.493.942-.98 1.345.063-.668-.62-1.046-.221-1.952.851-1.403.196.782 1.026-.398l-.425-.264c.487-.404.493-.942.685-1.553.244-.202.072.186.052.409.549-1.072 1.15-1.734 1.198-2.718-1.145 1.196-1.763 3.473-2.603 3.799l-.96 3.054c.166.15 1.046-.62.834.213-.632.03-1.327.729-2.006 1.743.725-.066-.447 1.89.206 1.637-.03-.632.601-.663.694-.699-.549 1.072.368.394.046.948-1.151 1.733-.295-.208-1.482 1.433.006-.539.074-1.745.401-2.837-.259-.114-.586.978-1.016 1.252.581-.44.254.652.647.285-.555 1.61-1.095 3.536-1.987 5.383-.605-.73 1.111-3.22-.06-3.194-.399.906-.011 1.077-.483 1.796-.746.29-1.265 1.992-1.908 3.1l.487-.403c-.098.574-.7 1.236-1.057 1.697l.021-.223-.192.611-.094.036c-.062.668-1.171 1.957-1.685 3.121.388.171.679-1.014 1.037-1.475.186-.072.902-.993.839-.325-.793 1.273-.862 2.48-1.898 3.954l.393-.367c-.062.668-.606 1.2-.985 1.884-1.088 1.065.068-1.207-.569-.638.063-.667.886-1.309.519-1.703l-.989.491c-.12.798-1.016 1.253-1.244 1.77l.523-.31c.331.3-.285.647-.436.813l.761.026c.602-.662.405-1.444 1.022-1.79-.628 1.423.004 1.392-.997 2.96-.258-.114.078-.352.063-.668-.487.404-.348 1.315-1.172 1.957.228-.518.498-1.48-.211-1.098l.067.725c-.301.33-.41.051-.56.217-.451.496.482.135-.177.926-.186.073-.43.274-.502.088-.715.921-.192.61-.649 1.646.529-.849 1.249-.377.72.472-.923 1.216-1.193 2.179-2.312 2.613l-.156.704c-.123-.596-.73.605-1.031.936-.517-.228 1.374-1.713.748-2.22-.695.698-.56.216-.611-.193-.529.849.253.653.247 1.191-.165-.15-1.202 1.325-1.175.564-.602.662-.198 1.15-.778 1.589-.073-.187-.181-.466-.44-.58.072.186-.601.662-.788.734.187-.072.088.502.503-.088.144.373-1.203 1.325-.908 1.532-.424-.264-1.145 1.195-1.855 1.578.921.715.664-1.33 1.57-.931-.42 1.129-2.441 2.556-3.348 4.088-1.161.879-.331-.301-.813-.436.866-1.086 1.311-1.044 1.99-2.059-1.103.75-2.42 2.334-2.949 3.182-1.031.937-1.895.092-3.004 1.38.388.171.424.265.854-.009-.264.424-.73.605-1.124.972-.078.352.746-.289.331.301-.28.108-.71.382-.818.103l.057-.13c-1.145 1.195-1.429-.089-2.186 1.277.13.057.337-.238.617-.346.352.078-.084.89-.571 1.294-.015-.316-.523.31-.896.455-.482-.135.88-.771.865-1.087l-1.046.621.28-.109c-.301.331-.565.756-.96 1.123.731-.605.612.192.275.43-.896.455-1.735.78-1.916.314.18.466-.902.994-1.576 1.469.84-.325.332.301.124.596-.502.088-.911.139-1.413.227 1.233-.693-.425-.265-.254-.653.192-.611 1.068-.843 1.72-1.096-1.615-.017-1.611 1.376-2.932 1.566-.072-.186-.087-.502.415-.59-.222-.021-.845.864-1.756 1.003.223.021.927.177.196.782l-1.3-.032c-1.212.47-.155.704-1.109 1.289l.798.119c.087.503-1.435.45-1.218 1.009.653-.253.917-.678 1.606-.838.46.358-.73.606-1.031.937-1.507.263-1.228.154-2.398.179-.29-.746 1.446-1.526.805-2.35-.653.253-1.456.672-2.202.961-.745.29-1.491.579-1.936.537-1.176.564-.96 1.123-.592 1.517-.466.181-.782.196-1.098.211l.487-.403c-.746.289-1.362.635-1.922.852-.652.254-1.212.471-2.123.61-.932.361-.472.719-.14 1.02l-1.062.304.13.057c-.136.482-1.084.528-1.772.687-.073-.186.394-.367.357-.46-.668-.063-1.543.17-2.066.48-.072-.187.342-.777 1.104-.75.129.057.036.093.165.15l1.212-.47c-1.398.543-2.304.143-2.392-.359-1.398.542 1.186.291-.435.812-2.407-.675-4.205.774-5.623-.393-1.026.398-2.202.962-3.874 1.074.051.409-1.098.212-.88.771 1.573.462 2.925-1.028 4.162-.328.653-.253.415-.59.752-.828.595-.124 1.227-.154 1.336.126-1.435.449-.328 1.092-2.093 1.24.238.337 1.745.074 2.376.044-.15.165.052.409.533.544-.394.367-1.512.801-2 1.205.15-.166-.201-.244-.05-.409l-1.865.723c-.611-.192-.85-.529-.512-.767-1.077-.011-2.849.676-2.88.045-1.413.226.461.357.627.507l-.093.037 1.45-.134c.16.689-1.745-.074-1.901.63-.219 1.372-2.076-.374-3.138-.07l1.124-.972-.968.268c.58-.439.55-1.071 1.482-1.433-1.393.004-3.397-.184-4.308-.045-.331-.3-.569-.637-.362-.932-1.398.543-2.169-.338-3.375-.407-1.248.377 1.258.478.361.933-.424-.265-1.113-.105-1.486.04.373-.145 1.781.167 2.708.344-.761-.027-.673.476-.824.641l1.207.069c-.1.574-1.486.04-2.01.35.322-.554.135-.481.55-1.071-1.005.175-2.584.251-3.396-.184-.518-.229.43-.274.71-.383-.239-.337-1.005.175-1.186-.291.207-.295.631-.03 1.04-.082l-2.987-.235c.021-.223.746-.29 1.227-.155-.87-.306-1.558-.146-2.604.475-.963-.27-2.185-.655-1.755-.929-.502.088-.207.295-.228.518-1.372-.219-1.621.522-2.382.495l.59.415c-1.258-.478-.379.683-1.507.263.264-.425.213-.834.032-1.3-.265.424-.984-.047-1.43-.089.275.43-1.097.211-.342.776-1.19.248-1.666-.426-2.656.065.518.229-1.062.305-.601.663-1.113-.105-1.869-.67-1.511-1.13.352.078.999.363.984.047l-2.097-.152c-.518-.228-1.129-.42-1.123-.959-.71.383-1.869-.669-2.506-.1.746-.289 1.185.291 1.444.405l-.316.015.13.057-1.01.714c.812.436.228-.518 1.47-.356.994.902-2.59.79-1.482 1.433.906.399.803-.419 1.621-.522l-.424-.264a9.75 9.75 0 001.673-.113c.015.316-.487.404-.487.404 2.04.281 2.313.711 4.483 1.049-.166-.15-.491-.989.492-.942.69-.159.777.343 1.351.442-.409.051-.673.476-1.134.118l-.005.538c-1.75.465-.96 1.123-3.242 1.044-.172.388-1.88.407-3.066.116l.59.415c-1.398.542-.124-.596-1.91-.224-.548-.86-1.671-1.819-.682-2.31-1.092-.327-1.522-.053-2.542-.194-.476-.673.415-.59.384-1.222-.76-.026-1.708.02-1.212.471l-1.387-.535c-.036-.093.502-.087.668.063-.518-.228-1.652-.11-2.025.034.094-.036.503-.087.668.063-.632.031-1.766.149-1.823.278.912-.139.85.529 1.854.354-.15.165-.358.46-.746.289.72.472 1.423.628 1.697 1.058-.59-.415-1.077-.011-1.206-.068.518.228 1.724.296 2.133.245-.063.668 2.226.209 1.402.85.15-.166 1.041-.082 1.43.089-.115.259-1.192.248-1.751.465-2.283-.08.135-.482-.419-.803l-1.724-.297c.166.151-.745.29.31.524-.616.346-1.75.464-2.599-.065-.243.202.425.265.647.286-.243.201-1.455.672-.047.983-.352-.078.782-.196.099-.574.538.005 2.055.597 1.402.85.761.027 2.025-.035 2.657-.065.144.373-.503.087-.819.103l2.004.188-.497-.451c1.388.534 2.491-.216 3.661-.24-.228.517-1.212.47-2.03.573.605.73.523-.311 1.709-.02.165.151.201.244.051.409l1.062-.304c.259.114.072.186-.021.222 1.693-.335.026-.761 2.274-.774-1.258-.478-1.191.247-2.247.013-.59-.414 1.398-.542 1.735-.78 1.056.234 1.066 1.088 2.48.861-1.006.176-.136.482-1.472.356-.782.197.331.301.476.674.41-.051-.217-.559.803-.419l-.057.13 1.657-.429c1.48.499 3.532-.297 4.546.382l-.217-.559c.984.047 2.283.079 3.008.012-.207.295-.839.326-1.47.356 1.687.204 3.288-.095 4.442-.436-.812-.436-.905-.399-1.775-.706 1.104-.75 1.294.571 2.765.215-.006.538-.451.497-.14 1.02.616-.347 1.636-.206 2.345-.589.31.524-.27.963-1.756 1.004-1.071-.55-2.361.272-3.303-.221l.554.322c-1.134.118-1.838-.038-2.843.137l.057-.129-.544.533.538.005c-.43.274-1.548.708-1.864.724 1.615.017 1.828-.817 2.631-1.236 1.465.183 1.92 1.079 2.946.681.108.28.885.622.196.782-.818.103-1.372-.218-1.45.134.854-.01.517.228 1.817.26.264-.424 1.254-.915 2.186-1.277.969-.269 2.268-.236 2.972-.081-.947.046-1.937.537-1.699.874.544-.533 1.89.447 1.6-.299 1.114.105 3.045.106 3.169.702-1.098.211-2.097-.152-3.009-.013.223.021.482.135.332.3l-1.336-.125c.999.363.849.529 2.112.468-.13-.057-.259-.114-.166-.15.316-.016.762.026 1.077.011l-.005.538c.968-.268 2.93.365 4.68-.099l-.15.165c1.43.089 1.534-1.024 3.04-1.287-.43.274-.227.518-.119.798.746-.29 1.206.068 2.004.188-.963-.27.6-.663-.067-.725-.088-.503 1.549-.708 2.31-.682.569.637-2.569.568-1.239 1.231.855-.009 1.026-.397.451-.496.539.005 1.17-.025 1.838.037.632-.03 1.207.069 1.595.24 1.14-.657 1.75-.465 2.409-1.256-.69.16-.602.662-1.528.485l.823-.641c1.191-.248 2.19.116 3.045.106l-.84.325.058-.129c-.337.238-1.414.227-1.233.693.73-.605 1.45-.134 2.403-.718l-.057.129c1.735-.78 3.303.221 4.226-.995-.28.108-1.056-.234-.906-.4.482.135 1.543-.169 1.559.146l-.373.145c1.04-.082 1.73-.242 1.973-.444.17-.388-.124-.595.586-.978 1.822-.278-.586.978.807.974l1.605-.837.425.264c.595-.123 1.19-.247 1.75-.464.56-.217 1.083-.527 1.606-.838 1.046-.62 2.093-1.241 3.398-1.747.31.523-1.611 1.376-2.264 1.629 1.02.141 1.922-.853 3.185-.914 1.026-.398 1.59-1.153 1.296-1.36 1.103-.75 1.04-.082 1.17-.025.156-.704 1.777-1.226 2.637-1.774l.202.243 1.238-1.231c-.373.145-.202-.243-.274-.43l.373-.145c-.984-.047-1.585.615-2.352 1.127-.766.512-1.533 1.024-2.553.884.394-.368-.295-.208.099-.575.373-.145.502-.088.631-.031.078-.352.623-.885-.18-.466-.145-.373.192-.611.715-.921.523-.31 1.14-.657 1.627-1.06 1.04-.082-.514 1.165-.871 1.625.43-.274.6-.662 1.29-.822l.123.595c1.311-1.044.192-.61.255-1.278.12-.798 1.326-.729 1.663-.967l-.394.367c1.212-.47 1.181-1.102 2.264-1.629l.668.063c-1.47.356-1.13 1.511-2.005 1.743 2.123-.609.154 1.227-.225 1.91.767-.512 1.57-.93 2.109-.925.414-.59 1.03-.936 1.647-1.282.617-.347 1.233-.693 1.575-1.47.617-.346-.285.647.332.301.616-.346 1.196-.786 1.777-1.226.544-.533 1.088-1.065 1.503-1.655.58-.44.652-.254 1.004-.176a10.24 10.24 0 001.855-1.577c.451-.497.866-1.087 1.28-1.677.415-.59.773-1.05 1.281-1.676.508-.627 1.052-1.159 1.839-1.894l-.192.611c.638-.569 1.182-1.102 1.187-1.641.725-.066 1.161-.879 1.726-1.634.565-.756.964-1.662 1.746-1.858 1.239-1.231.67-1.868 1.406-3.012.166.15.253.653.704.156 1.208-1.863 2.323-3.69 3.531-5.553 1.114-1.827 2.322-3.69 3.515-5.869.036.093.015.316-.042.445 1.68-2.582 2.511-5.693 4.056-7.794.135-.481.705-1.775.11-1.652-.358.46-.839.326-1.005.176.784-2.128 1.14-.657 1.804-1.987.854-.01-.012 1.077.449 1.434l.69-2.09c.809-.958 1.064-2.237 1.944-3.008-.3.332.368.394-.27.963.057-.13-.036-.093.021-.222-1 1.568-.234 1.056-.825 2.572.534-1.387 1.369-3.105 2.142-4.156-.539-.005.363-.999.182-1.465l.093-.036c-.165-.15.084-.89.105-1.113l.668.063c.228-.518-.316.015-.124-.596.249-.74 1.613-3.307 2.224-3.115.435-.813.255-1.279.783-2.128.073.187.052.41.088.503 1.151-1.734 2.271-4.1 3.495-5.647.72-1.459 1.291-2.753 1.396-3.866-.172.388-.944 1.438-.86.548.005-.538.456-1.035.648-1.646.238.337 1.109-1.288.632-.03.761.026 1.364-2.568 1.918-2.246-.052-.41 1.078-1.92 1.068-2.775.316-.015-.363 1-.104 1.113l.342-.776.166.15c.98-1.345.374-2.075.774-2.981l.036.093.285-.647.046.947c.493-.942.297-1.724.846-2.795l.223.021.156-.704c-.057.13-.021.223.072.186-.103-.818.82-2.034.847-2.795.3-.331 1.061-.304 1.088-1.066l.496.451c-.793 1.273-.782.196-1.373 1.713.653-.253 1.497-1.117 2.306-2.074.772-1.05 1.544-2.101 2.26-3.022.306-.87 1.151-1.734 1.809-2.526.658-.791 1.223-1.547 1.099-2.142l.145.372 2.249-1.945c.808-.957 1.746-1.857 2.591-2.72.845-.865 1.725-1.636 2.254-2.484l.596-.124c.42-1.129 1.565-2.324 2.876-3.369 1.182-1.101 2.399-2.11 2.54-3.13 1.119-.434.031.632.046.948.709-.383 1.394-1.936 2.507-1.831.073.186-.88.77-.378.683.761.026.529-.849 1.29-.822-.482-.135.441-1.351 1.394-1.936l-.279.109c-.295-.208.414-.59.787-.735 0 0 .036.093-.057.13 4.471-3.13 10.2-5.78 15.782-6.874l-.953.584c.71-.382 2.217-.645 2.626-.697l-.093.037c1.594.24 1.533-1.024 2.827-.454l-.186.073c1.786-.372 2.951.142 4.665-.416 1.429.09 1.258.477 2.185.654 1.191-.247 1.585-.615 1.549-.708l-.352-.078c-.461-.357.839-.325 1.305-.506-.31-.523-.134-1.45-1.837-1.97-1.191.248-1.216-.922-2.63-.695-.751.828-2.075-.375-3.329.54.637-.568-1.486.041-.512-.766-.554-.321-2.647.92-3.703.686.15-.166.114-.26.264-.425-1.362.636-1.019-.14-2.081.164l.217.56c-.337.238-.575-.1-.912.139.223.02.891.083.684.378-.43.274-.767.512-1.233.693-.073-.186.264-.424.451-.497 0 0-1.062.305-1.264.061.337-.237.896-.454 1.067-.843-1.506.263-.165-.15-.999-.363.404.487-1.175.564-1.978.982-.202-.243.523-.31.673-.476-1.832-.576-2.201.962-4.174 1.405-.036-.093.243-.201.3-.33-.86.547-1.636.205-2.051.795-.875.232-.439-.58-1.745-.074.59.415-1.584.615-1.331 1.267-.409.052-.725.067-1.134.119-.659.791.713 1.01-.892 1.847-1.622.522-.434-1.118-1.475-1.036l-.228.517-.912.14.093-.037c-.393.367-1.233.693-1.305.506.021-.222.487-.403.508-.626-.601.663-3.408.893-3.533 2.23-.502.087-1.362.635-1.471.355-.099.575-1.942 1.075-2.357 1.665-.072-.186-.668-.062-1.026.398.653-.253.389.171.254.653-.725.067-1.835 1.355-2.388 1.034-.529.848-.048.983.097 1.356-.725.067-2.057 1.334-2.217.646.43-.274 1.384-.859.959-1.123-.896.455-.171.388-.808.957-.037-.093-.632.03-.704-.156-.301.331-.881.77-1.368 1.174.989-.49-.213.834.439.58l.327-1.092c.975-.806.482.135.948-.045-1.575 1.469-.835 1.718-2.058 3.265-.373.145-.99.491-1.14.657.451-.497-.01-.855-.382-.71-.421 1.128-1.684 1.19-2.415 1.795.674-.476.668.062.59.415-1.094 1.604-.71.382-1.512.8-.959 1.124-1.933 1.93-2.814 2.701-.881.771-1.633 1.599-2.218 2.577l1.175-.563-.217-.56c.896-.455.771.881.766 1.42-.223-.021-1.053 1.158-.954.584l-.7 1.237c.316-.016.752-.828.596-.124-.43.274-1.389 1.397-1.119.434-.415.59-.943 1.439-.591 1.517-.68 1.014-.497-.451-.305-1.062-.565.755-.932.362-.854.01-.265.424-.472.719-.737 1.143.078-.352-.18-.466-.066-.725-.638.57-.499 1.48-1.338 1.806l.217.56c-1.653 1.82-1.539 1.562-2.84 3.461l.466-.18c-.39 1.76-1.196.785-2.109 2.856-.514 1.165-.763 1.905-.282 2.04-.156.704-.565.755-.844.864-.063.668-.225 1.91-.955 2.515.192-.61.327-1.092.555-1.61-.481-.135-1.094 1.605-1.788 2.303-.156.704-.624 2.816-.785 4.059.652-.253 1.056.234.951 1.347-.238-.337-.995 1.03-1.539 1.562-.087-.502-1.44.988-.776-.342.337-.238.875-.232.974-.807-.466.18-1.29.822-1.984 1.52-.073-.186-.067-.724.197-1.149.109.28.259.114.482.135z" fill="#EDB9A3"/><path d="M27.579 126.896l.13.057-.166-.15c.13.057.13.057.036.093zM120.712 82.184c.037.094-.02.223.016.316.057-.129.021-.222-.016-.316zM109.017 99.593l.13.057-.13-.057zM26.728 123.043l.409-.051c-.093.036-.187.072-.41.051z" fill="#EDB9A3"/></svg>