<svg width="172" height="172" fill="none" xmlns="http://www.w3.org/2000/svg"><path d="M75.553 3.83c.957-.48 2.154 0 1.675.239 2.154-.958 2.154-.24 2.394-1.676 1.196-.957 2.872-.239 1.436.48l3.83-1.437-2.394.24C82.972.478 86.563 1.195 87.04 0l-4.547.957.24-.478c-.958.478-2.873.718-3.591.718 0-.24 0-.479.718-.718-5.505.957-1.197 2.154-5.505 3.35h1.197z" fill="#FBF7BD"/><path d="M70.287 2.393L68.851 4.07c-.957.24-2.154.24-3.111.478 0 .48-1.915 1.676-.479 1.436.24-.239.718-.478 1.197-.718 0 1.197-3.83 1.915-2.633 2.394 2.394-.958 2.633-.958 4.069-2.154 2.154-.479 3.83-.718 5.026-.479.718-.24.479-.957 1.436-1.197-.24 0-.24 0-.479.24L73.4 2.633c-.718.478-1.436.478-2.154.718l3.35-2.633c-1.436-1.197-5.026.718-6.462.479 1.915.718-1.436.957 2.154 1.196zM123.181 134.987c.479-.478.479-.957.479-1.196-1.915 1.914-4.069 3.59-6.223 5.265.479.239 2.633-.957 1.436.239.718 0 2.394-1.675 2.154-2.393v.957c.958-1.675 2.872-1.436 2.394-.239.718-1.915 1.436-3.829 1.914-5.744-1.675.957-.478 1.436-2.154 3.111zM86.802 20.344c1.197 0 1.197-.24 1.197-.479-.479.24-.958.24-1.197.479zM125.575 130.201l.478-1.915c-.239.718-.478 1.436-.478 1.915zM125.814 148.869c.24.239.24.239 0 0l.479-.718c0 .239-.239.479-.479.718zM142.329 98.368c0-.239 0-.239.239-.478 0 .24 0 .24-.239.478zM104.992 166.58l3.829-2.633c-.479.718 1.676-.239.957.479.24-.239 1.676-.957 1.197-.957l-.718.478c1.676-2.154.24-1.914 3.112-4.547-2.394.239-3.112 1.436-4.069 2.393-.24.24-.718.479-.958.718l-2.872 3.112-.478.957zM140.653 27.285l-.239.239c.239 0 1.197.24.239-.24zM125.575 131.158c-.239-.239-.239-.479-.239-.957l-.24 1.436c.24-.24.479-.24.479-.479z" fill="#FBF7BD"/><path d="M125.575 134.987l-2.154 2.154c-.24.479-.24.718-.479 1.197.718-.718 1.676-1.915 2.633-3.351zM139.935 102.198c2.394-5.505.718 1.915 2.154-.479.479-1.675.24-2.393.24-3.59-1.436 4.548-1.915-1.436-3.351 3.112-.957-1.197.239-3.59.957-5.027 1.915-1.196.24 1.915 1.197 2.633.479-1.915.239-1.675-.239-2.633.718-1.436.957-2.872 1.196-4.308.24-1.436.718-2.632 1.676-3.111.239-2.154-.24-2.154-.479-3.59-1.197-.479-1.436 2.872-2.633 3.35.24-.239.479-.239.479-.239-.239.479-.479 1.197-.718 1.676.957-1.437 1.197.718.957 1.436-.239.718-.478 1.914-.957 1.675v-.957c-.718 1.196 0 3.111-1.197 4.068-.239 0-.239-.478-.478-.718.239 1.676-.479 3.112-.718 5.505l-.719-1.675c.479 2.393-1.675 5.983-3.829 8.137.239-.239.718-.478.718-.239-.718 1.675-1.915 2.393-2.154 1.197 0 1.914-4.069 4.786-4.308 7.419-.239 2.154-.479 4.069-.718 6.223-.479 1.915-.718 4.069-1.197 6.223.24-.479.479-.718.718-1.197 1.436 0 1.676-.479 1.436 1.676.718-1.676-.478-1.915 1.436-3.83-.239 1.197.479 2.154 2.394.479 3.35-5.744 2.872-11.01 4.308-16.754.957.239 2.872-3.829 3.829-5.505.479 1.197 0 2.633-.718 4.308.479-.957 1.436-2.632 2.154-3.829l-1.436-1.436z" fill="#FBF7BD"/><path d="M135.388 116.08c.239 0 .239-.24.478-.24-.239 0-.239.24-.478.24zM138.978 107.703l.239-.479c0 .239-.239.479-.239.479zM128.208 131.397c0 .479-.24.718-.24 1.197 0-.239.24-.479.479-.718-.239-.239 0-.479-.239-.479zM126.054 131.397v-.478c-.24 0-.24.239-.24.239 0 .239 0 .239.24.239zM144.004 96.693c-.718 1.915 1.197.718 0 3.59l.479-.718c-.24 2.154-2.154 5.744-3.351 7.898-.239-.478-1.197 1.197-1.915.479-.718 1.675-1.436 3.111-1.196 4.547-.719.718-1.197 2.633-2.155 3.591.718-.24.24 2.632 1.676-.718v.478c1.915-1.436 1.197-2.872 2.154-4.547.957-.718-.239 1.914.479 1.196.957-2.154 4.068-6.462 2.393-6.94.718-1.676 1.197-1.676 1.675-1.915-.478-3.112 4.548-9.095 2.154-10.052-.239.957-.718 2.393-.718 4.068l-1.675-.957zM130.601 128.765l.239-.24-.239.24zM105.231 139.774v-1.915c3.829-2.632 5.505-3.35 8.856-5.744.478 0 0 .479 0 .718 2.154-1.914 5.744-4.547 6.701-6.701.718-.718 2.872-2.154 2.393-.958.24-.478.479-.957.958-1.196.478.239-.718.957-.24 1.436.24-.24.479-.24.479-.479-.239.957 1.915.718-.479 3.111-1.914 0 1.436-1.675 0-2.154-.718.718-.239 1.197-.239 1.197-.957.957-1.197.718-1.436.479 0 .718-1.675 1.436-1.915 2.393-1.914 1.915-.718-.957-1.914.24l.239 1.914-2.393 1.676c-3.112 3.111 2.154 1.675-1.436 5.504 0-.957-2.394-.957-4.548 0l1.915-1.914c.718-.718 1.436-1.436 2.393-1.915-1.436.239-.718-.239 0-.957s1.676-1.436.718-1.676c-.478 1.436-2.154 2.633-3.59 3.112l.239-.479c-1.436.957-1.675 2.872-4.068 3.59-.958.479-.958 0-.958-.239-.957.718-1.436 1.196-1.675.957zm2.154-1.436l1.436-.718c-.718 0-.957.479-1.436.718zM45.875 11.728c.24 0 .478 0 .478-.24 0 0-.239.24-.478.24zM44.678 154.374l-.957-.718c.479.239.718.479.957.718zM21.94 140.492l-1.196-.957c.24.478.718.718 1.197.957zM34.387 18.668l-.24.24.24-.24zM3.751 92.624c.24-.24.24-.718.24-.957-.24 0-.24.479-.24.957zM22.18 140.732l-.24-.24.24.24zM53.055 163.708c.24 0 .479 0 .718.239-.24-.239-.479-.239-.718-.239zM53.294 159.161c.24 0 .48.239.718.239l-.718-.239zM93.025 166.58c.478-.239.957-.239 1.436-.479-.718.24-1.197.24-1.436.479zM58.56 8.616c.478-.24.718-.24 1.197-.478-.48 0-.958.239-1.197.478zM5.187 70.366c.24-.479.718-1.197.718-.718 0-.718-.957-.718-.718.718zM54.012 23.455c0-.24.24-.478.479-.718-.479.24-.718.718-.479.718zM54.491 22.498c.24-.24.24-.479.479-.718-.24.24-.479.479-.479.718zM17.633 80.179s-.24.239-.24.478c.24-.239.24-.239.24-.478zM60.714 7.898c0-.479 5.026-2.872.718-1.675-.24-1.197 2.633-1.436 3.83-2.154-.958 0 .239-.718-.24-1.197-.718.718-1.197 1.197-2.154 1.436-.718-.24.718-1.197 1.915-1.436-1.676 0 1.675-1.436-.718-1.197-4.308 1.915-7.18 3.112-9.574 5.984 1.197-.718 2.394-1.436 3.59-1.915 1.197-.479 2.394-.957 3.59-.957l-.478 1.196c-1.197 0-2.154.24-3.112.48-.957.478-1.675.956-2.872 1.435l5.026-1.436c2.633 0 1.197.718-.718 1.436h1.197zM60.475 17.232c.239-.239.239-.239 0 0zM89.195 147.194l.24-.479c-.24.239-.48.479-.24.479zM76.75 168.974c.239.239.239 0 0 0zM80.1 147.912s.24-.24.479-.24c-.24 0-.24.24-.479.24zM25.531 123.02l.24.24v-.24h-.24zM23.616 117.994c.24 0 .24.24.479.24-.718-.718-1.197-1.915-1.915-2.872-.478-.958-1.196-1.915-1.675-1.676.24.479 1.197 3.83.479 3.59.957.958 1.196 3.112 1.675 3.59-.479-2.154.718-.718 1.675.479.479 1.197-.957.239-.478 1.197l1.675 2.632-1.436-2.393 1.197.239s-.24 0-.24-.239c-2.393-3.59 1.436-.957-1.436-4.787zM24.095 118.234l.479.478c-.24-.239-.24-.478-.479-.478zM18.35 100.762c0-.24-.239-.479-.478-.718.24.239.479.478.479.718zM121.027 139.774c-.239-.239-2.633.958-2.154 1.436.718-.478 1.436-.718 1.915-1.197l.239-.239zM15.24 51.458c-.24.24-.24.479-.48.718v.24c.48 0 .48-.719.48-.958z" fill="#FBF7BD"/><path d="M20.266 116.558c.239.479.478.479.718.479-.24 0-.479-.239-.718-.479zM17.154 51.937c.24-.24.957-.718 1.197-.48.24-.717.24-1.435.24-2.153-.24.957-.719 1.675-1.437 2.633z" fill="#FBF7BD"/><path d="M122.463 139.056l.479-.479-.239.479c.478-.239.957-.718 1.436-.957.239-.24.239-.479.478-.479v.239l.479-.239c.239-.718.957-1.915 1.675-2.872.719-.957 1.197-2.154 1.437-2.633.718-1.196 1.675-2.393 2.393-3.35-.718.718-1.436 1.675-.718 1.675 1.675-1.197 3.351-.957 4.547-4.308l-1.196 1.436 1.436-4.548c1.436-.718-.718 2.154-.718 3.112 1.436-3.112 5.026-4.308 4.786-6.462.958.239 2.155.718 3.591-1.197-1.676.957.239-1.436-1.436-.957 0-.958 1.675-1.915 1.196-2.394l.24.479c3.111-2.633 1.914-4.787 2.154-6.702.957-2.154 1.675-3.59 2.393-5.026.718-1.436 1.436-2.632 2.154-4.547.479 0 2.393-.24 2.872-1.676-.479-.957.239-4.308-.718-5.026-1.197 2.394 0 2.394-.239 4.07-1.436.956-.958-.24-2.154 1.196.957-1.197 1.675-6.462 3.111-7.66v.48c1.197-2.394 3.83-2.154 3.351-6.702 0-.718-.239-1.436-.239-2.154l.239.24c.718-3.351 1.675-2.155 1.197-6.223 0 .239.239.239.239.478.957-2.154-.239-4.308-.239-5.983.957-.958.718.24 1.436.957a5.842 5.842 0 000-2.872c-.24-.957-.24-1.915-.479-2.872-.479-1.675-1.197-3.35-1.915-4.308 0-.718.24-1.675.24-2.394.478 1.197 1.675 2.873 2.154 2.394-.479-1.197-.718-.958-.718-2.872.718.24 1.196.957 1.914 1.675.24-2.154-.478-2.154-.718-2.154-.478 0-.718.24-.239-1.436-.239-1.197-1.197-1.675-1.915-1.675v-2.394c-.478 0-.957-.718-1.436-1.436-.478-.718-.957-1.675-1.436-2.632-.479 0-.239 1.675.479 2.154-.718.239-1.676-1.436-2.154-2.394.718-.718-.479-2.154-1.436-3.59-.958-1.436-1.915-2.633-.718-2.633-1.915-1.914-4.548-4.068-6.941-5.983-1.197-.957-2.633-1.676-3.59-2.154-1.197-.479-2.154-.958-3.112-1.436-.718-.957-2.872-2.154-1.196-2.154-4.069-2.154-6.702-1.436-10.771-3.351-.239-.24 1.915.718 1.915 0-2.872-.479-4.787-2.633-9.095-3.35.718.239.958 0 1.197-.24 0 .24-1.915 0-3.111 0-.479-.24.957 0 .718-.24-4.069-1.435-7.899-1.914-11.967-2.153-3.83-.24-7.66 0-11.967-.48 2.393.24 3.59-.717 3.59-1.196l-2.394-.24c-.957.48-2.872.24-4.308.719-.718 0-1.436-.24-.718-.479-4.787-1.436-7.659 1.676-13.403 1.197 2.154-.957 4.787-1.675 7.18-2.393l-1.675-.958 3.111-.718c-1.914-.718-3.59.718-3.829-.24.479-.239 1.436-.239 1.436-.478-1.915-.479-1.915.24-3.35.479 3.59-1.915 10.77-1.436 14.838-1.436.718 0-.478.478-.718.478 1.676 0 2.394.718 4.548.718 1.196-.718-.958-.718-1.915-.957.24-.718.718-.479 1.675-.479.24.958 5.984.958 7.181 2.394 5.744.718-.479-2.394 5.026-.958l1.436 1.197c3.35 0 7.898.24 11.488 1.676l-.718-.24c-.718.24.239.718.479 1.197 2.632 1.197 5.504.957 6.701 2.633 3.59.239 8.856 1.914 12.685 3.35.239 1.676-5.026-1.675-6.941-1.436.958.479 2.154.958 3.112 1.676-1.915-.958-2.872-.958-4.308-.718 2.632 1.436 4.068.957 6.701 2.154-.479.239-.239.478.957 1.196l.718-.478s0 .24.479.478c1.676.718 3.112 1.676 4.548 2.633-.718-.957-.24-1.675-1.436-2.393 0 .718-.958 0-2.154-.718 1.436.24-.958-1.197-.718-1.436 1.196.718 2.393 1.436 3.59 2.393 1.196.718 2.393 1.436 3.111 2.154v.957c1.915 1.915 4.308 3.59 5.265 5.266l-.718-.24c.958 1.197 1.915 2.633 3.112 3.83.957 1.197 1.675 2.633 2.154 4.069 1.197.957 2.154 2.393 3.351 3.59.957 1.436 1.914 2.633 2.872 3.59.718.479.957 2.872 1.196 5.265.24 2.394.24 5.266 1.197 6.941 0 .24-.957-2.154-1.436-3.35 0 1.196.479 2.154.718 2.872s.239 1.436-.239 1.675c.239-5.026-.958.24-1.197-1.915 0 2.154.239 4.548.718 5.744 0-3.59 1.436 1.436.957-2.393.24.718.479 1.436.718 2.393 0 .718.24 1.676.24 2.633 0 1.675 0 3.59-.479 5.266-.479 0-.718.239-.957 1.436l.478 1.196c-.239 1.436-.478-3.111-.957 0 .479 1.676-.239 4.07-.718 6.223-.479 2.154-.957 4.069 0 5.026-1.436 2.154.239-4.787-1.675-1.436-.24-2.154 1.196-4.786.239-5.744 0 2.154-.957.479-1.197 1.915l.24 2.393.239-.478c.239 4.068-2.154 9.813-3.59 14.36-.479 4.308-.239 7.659-2.633 12.206.24-1.675-2.393 3.351-2.154 0-1.436 1.915-2.154 4.069-1.675 4.308 1.196-1.675.478-.478 1.675-1.914 0 1.196-1.436 3.59-2.393 4.308.239-.479 0-.24 0-.479-1.676 1.915-.24 1.197-.958 2.872-.957 0-2.393 3.112-3.59 4.308l-.478 2.633c.239-1.436-1.676 1.675-2.394 1.436-.718 1.675-.718 3.351-2.632 5.265.478-.957-1.915 1.436-2.633.958-1.676 1.436-2.633 3.111-3.59 4.547-.958 1.676-2.154 3.112-4.069 4.069 0-.239.239-1.197-.718-.479-.718.718-1.915 1.676-2.872 2.633-.479.239-.479.718-.479.718-.957 1.675-1.197 2.872-4.069 5.505.718.718 3.112-1.436 4.069-2.394l.479-1.436c1.675.479 2.393-2.154 3.351-2.393-.718 2.633-5.984 6.223-8.856 8.856 2.633-.24 7.18-2.872 10.531-5.984l-1.915.718 1.915-1.436-2.393.718c1.675-1.197 3.111-2.633 4.547-3.829-1.675 1.675-3.111 1.196-2.154.478 2.393-.957 1.675-2.154 3.111-3.35-.957.718-1.914 1.675-1.675.718 3.59-1.676 3.829-3.112 6.941-4.787-1.436-.718 2.872-3.351 2.154-4.548l-1.197 1.197c.479-.957.958-2.154 1.436-3.111 2.872-1.676-.718 2.872 2.872-.24 2.872-3.35 1.436-4.308 3.351-6.94 0 1.436-.957 4.068-2.633 6.222.479-.239.958-.718 1.436-1.196-.239.957-2.632 4.068-4.068 5.504 1.436-3.111-1.197.958-2.872 1.436.478.719 1.675-.957.478 1.437 1.436-1.676 1.676-1.915 3.83-4.069-4.308 4.547-1.676 6.223-5.984 9.813 1.676-2.154-1.436-.24-1.915-.24-.718.958-2.632 2.633-3.111 3.59l1.436.24c-2.154 2.632-4.787 1.436-6.941 4.547 0 .958 2.872-1.915 2.394-1.436-3.59 3.83-6.463 3.351-10.771 5.026 0 .479.479 1.197-.718 2.394 0-.958-1.196-.479.24-1.915-1.436.479-2.872 1.915-3.83 2.872 3.112-1.197-.718 1.675-.957 2.154-1.675.718.239-.957.957-1.436-1.196.479-3.351.239-3.351 1.436-.239-.718 2.633-3.351 4.548-4.787l-1.436.718c.718-.957.957-.957 2.633-1.675-1.676.239-1.915-.479-1.915-.957.239 0 0 .239.239.239 1.197-.479 1.915-1.197 1.436-1.436.479-1.436-1.914.239-2.872.239-.478.479-.957.718-1.675 1.197-1.436 1.915-3.112 4.069-4.787 5.983-2.633 1.436-4.069 1.197-6.462 1.436l-.239.958c-2.394.718-5.027.957-3.59-.479.239.239.478.239.957 0 0-.239.24-.239.24-.479v-.239c-2.634.957-4.309 1.436-4.309 1.675 4.308-2.393-.24-1.675.24-3.35l-4.309 1.436c2.872 0 .24.718-.718 1.196-.24-.478-1.196-.239-2.154 0-1.197.24-2.393.479-3.111.479v-.239c-1.436 0-4.069 0-5.984.239 0 .239-2.393 1.676-3.59 2.394 3.351.478 1.436.718 1.676 1.436-.24 0-.958-.24-.958 0-.478.239.718.478.718.718 3.59-.24 7.42-.479 8.856-1.915-1.197-.479-1.915.718-3.112.239 1.676-.957 4.07-.957 6.941-1.196l.958.478 2.872-.957c-1.197.479-.24 1.197-3.351 1.915.479.718 3.111-.718 5.026-.718l.718-1.197c-.24.718 3.83-.239 1.197 1.197-1.436.718-3.112 1.196-4.548 1.675l1.436.479-4.068.957.957-.718c-3.35.718-3.83.239-4.308 0-.479-.479-.958-.479-4.308 0-.958.718-2.154.957-3.59.957s-3.112 0-5.026-.478c3.11 0 .478-.718 1.675-1.436-2.872-.718-4.069 0-5.744.239-.718-.718-1.197-1.436 1.436-.718.478-1.197-3.59-.239-3.59-1.675-4.308-.958-6.223-.479-8.377-.24-1.197 0-2.154.24-3.59-.239s-3.112-1.197-5.266-2.633l.479-.239c-6.462-2.394-9.334-5.026-14.36-8.377-.958-1.436-1.915-2.633-2.872-4.069.957.479 3.829 1.436 3.11.239.958 2.394 3.112 3.591 4.788 5.505.478-.239-.24-.957-.479-1.436 1.197.718 1.436 1.676 3.35 2.633 0-.239-1.435-1.675 0-.957.719.718 1.197 1.436 1.915 2.154 3.351 1.436 2.633-.958 5.984 1.196-.957.479-2.872.718-4.548 0 1.676 1.197-2.632-.957-1.196.479 3.111.239 3.83 1.915 7.659 2.633-.479 0-.718.239-1.436-.24 1.675.718 3.111 1.676 4.786 2.394-.957-.958 4.548.718 4.309-.479-5.266-2.154-4.07-.957-9.574-4.069 1.675.479 4.308.479 5.505 0l.24.24c1.196-.718.478-1.197.956-2.872-1.436 0-2.632-.24-3.59-.718-1.196-.479-2.154-.958-3.829-1.436-.957.478 1.197 2.154 2.872 2.393l-2.872-.718h.718c-2.154-1.197-4.308-2.393-6.462-4.069 1.197.718 1.914.479 2.633.479-.719-.479-1.437-1.197-2.155-1.915-.239.958-.718 1.436-1.436.718-1.914-1.436-3.35-2.633-4.068-3.829-.958-1.197-1.436-2.154-1.676-3.112-.239 0-.239-.239-.478-.239 0 1.197-3.59-.957-5.266-1.197.718-.718-1.197-2.154-1.915-3.35-1.196.239-1.675 1.914-1.196 3.829 2.872 1.675 1.915.479 4.068.718 1.437.957 2.873 1.915 4.309 2.633h-1.436c1.675 1.914 4.308 2.632 3.59 3.35-1.436-.239-3.112-1.914-4.548-2.393.24.479.718.957.958 1.436-3.112-1.197-.48-1.915-3.83-3.59.24 1.675-.24-.239-1.915-.718.48 1.436 5.027 4.069 3.112 4.787-.957-.479-1.915-1.915-2.872-3.351-.958-1.436-1.915-2.872-3.59-3.351h.24c-2.394-2.872-3.83-3.35-5.266-4.068-.24-.718-.958-1.436-1.676-2.155-.718-.718-1.436-1.436-1.915-2.154l.48-.239-1.676-1.915c1.436.479 1.675 2.394 3.111 4.069l.479-.718c.718 2.633 2.872 2.872 4.787 3.59-1.197-.718-2.394-2.393-3.351-3.59-.957-1.197-1.915-2.393-2.872-1.915l-.24-1.914-1.914-1.197c-.24-1.436 1.436-.957 2.872.957 0 .479 0 .718-.24.718.958.718 2.155 1.197 3.59 3.351l-1.196-.718c2.154 2.633 4.308 4.787 5.744 4.787-3.111-3.83-5.744-7.42-8.377-11.01-2.393 0-4.069-.718-5.983-.239-1.915-2.393-4.308-5.984-5.026-8.616h.478c-.478-1.197-.957-2.394-1.675-3.112-.24-1.436 1.197.479 1.197-.478-.718-1.197-1.676-2.394-2.394-3.83.718 0 2.394 3.351 3.112 4.787-.24-.239-.718-.718-.718-.479.718 1.676 3.829 4.308 3.35 5.744.479.718-1.914-1.436-.239 1.676.718 2.154 2.154 2.154 2.633 2.154.478-.239-1.197-3.351-.24-2.633-.957-1.436-1.675-1.915-2.393-4.069.957 1.436 2.872 3.112 2.633 4.309 2.633 2.393 4.069.718 3.35-.479-.478.718-3.829-4.787-2.393-.479-1.675-1.197-3.59-4.308-5.026-6.462h.24l-1.676-2.872c.479.239.957 1.197 1.436.957-.957-1.196-2.154-2.393-2.872-3.59 1.675 1.915 0-1.675 0-2.872-.957-.239-1.915-1.675-1.675 0 .239 1.915.718.957 1.436 2.393l-1.915-1.914v-.24l-1.436-.957c-.958-3.351 2.393.718.24-3.111l-1.198.957c-.718-2.393-1.196-5.265-1.436-8.137-.239-1.437-.478-2.633-.478-3.83-.24-1.197-.24-2.154-.718-3.111.957.957 2.154.957 2.632-.479 0 .718.24 1.915.48 3.111.238 1.197.717 2.394.956 3.351 0 .479-2.154-2.154-2.393-4.547-1.915 1.675 2.633 5.505.479 6.223.24 3.111 1.196 3.829 1.914 4.786.718.718 1.197 1.676 1.676 4.069.718 0 .718 1.436 1.675 1.436.718-1.915-2.393-6.223-2.632-9.573.239.239.478.718.718.957-.24-2.393-.719-3.111-1.437-4.787v.24c-1.675-2.633.24-1.915.48-3.59-.24-.719-.48-2.873-.958-2.394.24-.957.24-2.154.478-3.111l-1.436.239c-.239-1.675.48-2.154-.478-3.59h-.958l.24 4.308c-.479-2.154-.958-.479-1.436-2.872 1.196 2.633.24-1.915 1.196-2.394l-.718-1.675c0 .24.24.24.24.479.478-1.436-.479-1.676-.24-3.351-.478 2.154-1.196 3.35-.239 5.744C.88 83.77.161 80.18.161 79.221c-.479-1.914.24-3.35.479-5.026.239 3.351 2.632-.957 2.154 5.505-.24 0-.24-.718 0-.957-1.197.957 0 4.068.718 5.505.718-.48.957.957 1.196-1.437-.478.958-1.675-2.154-1.196-4.547l1.436.479c0-1.197 0-2.394.24-3.351v.24c.957-1.198 0-3.59.717-5.984-.24-1.676.958-8.377-.957-5.744 1.196-1.915.718-4.07.957-6.463l-1.197 2.872c-.239-3.829 0-2.632-.718-5.744.48-.239.958-.718 1.197 0 .718-2.393 1.915-5.026 2.872-7.659l1.436-3.59c.479-.957.718-1.914.718-2.872.958-1.436 1.676-2.154 2.633-2.872.957-.718 1.915-1.675 3.111-3.83.48-.957-1.675-.239.718-2.632.24 0-.957 3.111 1.197.24.479-1.197 1.436-2.394 2.633-3.351l1.675-1.676c.479-.478 1.197-1.196 1.436-1.914 1.436-.958 3.59-3.112 3.83-1.915-2.154 1.675-4.787 4.308-4.787 5.265-.24-.718-1.675 1.197-.718-.718-3.35 2.633-1.436 2.394-4.069 4.787.24.479 1.915-.718 2.393-1.675.48.479-.718 1.915-1.436 3.111-.718 1.197-.957 2.154.48 1.197 2.393-2.872 1.435-5.505 4.547-7.18-.48 1.436-2.154 2.632-2.394 4.787l2.154-1.676.718-2.154v.24c4.308-2.394 2.154-4.07 5.026-7.42-2.632.957-.957-1.915-2.872-1.197 2.154-1.914 4.07-3.111 4.787-2.154-3.59 4.069.479 1.197-2.633 5.266.958-.24.24 2.154 2.633.478 1.915-2.632-1.436-.24.958-2.632.239 0 .478 0 .478.239.718-1.436 1.436-.957 2.633-2.633l-.24.479c2.155-.718 1.676-2.154 3.59-2.394-1.196-.239.719-1.436 1.437-2.393-1.915.718-3.59.24-6.702 2.393 0 .958.479.958-.479 2.394.718-.479 1.197-1.197 1.915-1.675-.479.478-.718.718-.957 1.196l-2.154 1.197c2.154-2.393.479-2.154 1.196-3.59 2.633-1.436 1.915-1.436 3.59-2.394.48.958 5.505-1.436 8.856-2.154l-1.436.718c-1.675 1.676 1.915 0 2.154.24l1.197-1.197c-.24.24-.479.718.24.479 1.914-1.197 1.435-2.154 3.35-3.112.957.479-.479 2.154.957 1.915.718.24 2.633.957 5.026-.718 0-.24.718-.718 1.676-1.197l-.24.24h2.154c-1.196 1.436-3.35.718-4.547 2.393l.24.957c-1.197.479-2.633 1.436-3.112 2.394 1.915-.718 2.154-.958 4.069-1.915.478.479-.718 1.436-.958 1.675v-.718c-2.632.24-3.35 2.154-6.222 3.59-.48.24-.24 0-.24-.239-1.915 1.915-4.787 1.915-6.223 4.548l.48-.958c-1.198 1.436-3.591 3.59-5.506 6.462l.24.24c.478 0-.479.718-1.197.957-.479.718-.957 1.436-1.436 1.915-.479.718-.718 1.197-1.197 1.915.479 0 .958-.24 1.436-.719 0-.718 2.633-2.154 1.676-2.632 1.436-.24 2.632-2.394 3.59-2.633-1.915.479.478-1.436.478-2.154.958.24 2.394-1.436 2.633-.718.479 0-.957 0-1.436.957-1.197 1.676 3.35-1.196 1.675.718 2.154-2.154 5.984-3.59 8.377-5.983l-1.675.479c1.197-.718 4.308-2.154 4.547-1.676-.957.479-2.154.958-3.111 1.676.24.718 2.872-1.436 3.35-.718l2.873-2.873-1.676.718c.48-.478 1.437-.957 2.873-1.196 1.196-.479 2.872-.718 4.068-.958-.957 1.676-3.83 1.197-6.223 2.873-1.675 1.196 1.676.718 0 1.675.48 0 1.676-.479 2.154-.957h.719c-1.197 1.675-4.548 2.872-6.463 4.786.24-.24.24-.478.24-.478-1.915.478-3.59 1.436-5.026 2.393.957 0 1.196-.479 1.675-.957.24.239-1.197 1.196-1.675 1.675 1.675-.479.718.479 1.675.24-.718.717-1.675.957-2.872 1.675-.718 0 .24-.718-.24-1.197-.957.957-2.154.24-3.59 1.915 2.394-1.197 0 1.436-.478 2.154l.478-.24c-.239.24-.718.48-1.675.48.718-.958 1.675-1.198.957-1.676-.718.478-1.196.718-1.675 1.436l.24-.958-2.633 2.394c0 .718-.24 2.154 0 3.111-.958 0-1.436 1.197-1.915 1.915v-.479c-1.436.718-3.59 3.112-3.35 3.83-1.197.478 2.871-7.898-2.155-1.915-1.915 2.154 0 2.633-.478 4.069 0 0 0-.24-.24-.24-.957.958-.478 1.436-.718 2.394.718-.479 1.197-1.197 1.197-1.676.24.718-1.676 1.915-1.676 3.112-.239-1.675-1.675 1.675-1.675.479-1.915 1.675-2.393 4.547-2.393 5.983-1.915.957-.958 2.633-2.633 4.787.24-.479.24-1.197.718-1.676-.24-1.675-1.675 2.394-1.436 0 0 .48.479.24.479-.239.239-.957.239-1.915-.24-1.675l-1.675 1.675.24-.718c-.958.957-1.676 1.915-2.155 2.872.24.24.479 0 .718-.24-.479.958-.718 1.915-1.197 2.873-.478.957-.478 2.154-.718 3.111-.239.958-.478 2.154-.478 3.112 0 .957-.24 1.914-.479 2.872 2.393.957.479 8.855 2.154 11.727-.718-.718-1.915-1.196-2.633-.718-.239-.718-1.196-1.914-.957-3.59.479-.24.957-2.154 1.436-.957 0-4.069-1.197.479-1.915-.718.24 4.787 1.676 7.42 2.633 10.052h-.24l.719 2.154c0-1.436 1.436-1.436 1.197.958v-.24c-.24 1.436.718 3.83 1.196 5.744l1.197 1.197c.479 1.915-.957 2.393-1.915 3.35.958 3.112 2.633 4.548 4.069 6.463-.24 1.197 1.436 5.744-.24 3.59 1.676 2.393 4.548.479 5.027 5.505l-1.197-.718c2.393 4.069 6.94 9.095 7.659 11.009-1.436 0-.957 1.436-.479 3.351.718 1.676 1.676 3.83.958 4.787.239-.479 1.675.718 1.914.718 0 .479.24 1.197 1.197 1.197-.957-1.676 2.633-.718-.479-2.633 2.394.239 4.787.957 7.42 3.59l-.718.718-1.915-2.154c-.24.718-1.436-.479-1.915-.718 3.59 4.308-2.154 1.197 2.154 5.026.718 0 .48 0 1.676.718-.479-.479-1.197 0-.24.718h1.437c.717 2.394-3.351-1.197-2.633.718-2.154-.957-5.505-3.59-5.744-2.154 1.196 1.436 2.393 1.675 3.35 1.915.958.239 1.915.479 3.351 1.915v.718c1.436.478 1.915 0 2.872.239-.24.239 0 .718.718 1.197 2.633.239 4.069.957 6.462.718-2.632-.718-3.59-1.915-4.308-2.633-.957-.718-1.675-1.675-4.308-3.112.957.24 4.308 2.394 5.266 1.437l-.24.478c.958.24 1.676.479 2.633.958.957.478 1.675.718 2.633 1.436l-1.436-.24c1.436.479 2.393 1.436 3.35 1.915.958.718 1.915 1.197 3.351.957-.718-.478-1.436-.718-1.915-.718.719 0 1.676.479 2.394.718.718.24 1.675.718 2.393.958 1.197 0 2.394-.24 3.59-.718-.239.478 1.915.957.718 1.436 2.154 1.196 3.59 0 5.026 0 1.197.478.719.718-.239.718-.957 0-2.154 0-2.393.718 3.35 1.196 7.18.718 9.095-.24-.718-.239-.958-.239-.958-.478 0 .239 1.436.239 2.154.239l.718-.479c1.197.24 1.197.718 0 1.197 1.197 0 2.633-1.197 4.07-.479-1.916.958-4.788.718-5.984.958 4.308-.718 4.786 1.675 10.291-.24.24.24-.718.958.479.718 2.393-.718.479-1.436.957-2.154-1.914.718-2.872.718-4.068 0l.478-.478c.24.239 1.197 0 1.676.239v-.957c0 1.196 2.154 1.436 3.59.718-1.676-.24-1.197-.479-1.915-1.676 1.675-1.675 2.633.479 4.547-1.436 0 .479-1.914 1.197-.239.958 1.436-.479.957-1.197 1.675-1.915-.718 1.197-.239 1.915-.957 3.351-2.633.957-.957.239-3.59 1.436h2.393c-2.154.957-1.436 1.675-1.436 1.914 4.309-.478 2.633-2.154 5.027-2.872.957-.957-2.394.718-.718-.478 2.393-.718.239-.718 2.632-2.154l-.239.478c.957.24 1.436-.718 2.154-1.436s-2.393-2.393 1.197-4.308v.718c0 3.112 0 5.984-.24 8.856 4.308-1.915 9.095-4.548 13.882-7.42 1.915.479-2.393 3.351-1.915 3.83l-2.393 1.196c0-.239.957-1.196 1.915-1.675.718-.718 1.196-1.197 0-.957-3.591 2.872-5.505 3.35-8.856 6.462.957.478 2.154-.24 3.59-1.197 1.436-.957 2.872-1.915 4.308-2.154a10.663 10.663 0 00-2.633 1.915c2.394-1.197 5.027-2.633 7.42-4.308l.239-.718c-1.675.957-3.111 1.675-3.111 1.914 2.393-1.436 3.59-3.59 3.111-4.547l-.478.239.478-.957 2.154-1.197zM92.307 19.147c.239 0 .239-.24.478-.24-.239.24 0 .24-.478.24zm-17.95 140.014c1.914.239 3.829.478 5.504.478.957 0 1.915 0 2.872.24h2.633c-3.35-.718-5.984-1.915-6.702-2.633-.239-.239 0-.718.958-.718.957-.239 2.632-.239 5.026-.479l.718-.239c-1.436-.239-3.59 0-5.744.239-.479.24-1.197.479-1.915.958-.718.239-1.675.718-2.633.957l-3.35 1.436c.478.718 1.675.239 2.871.479l-.239-.718zm-2.155-4.069c-1.915-.479-1.436 0-1.915.479.718 0 1.436 0 2.154.239-.239-.239-.239-.479-.239-.718zm-1.675.957c.24 0 .478 0 .478.24l-.478-.24zm38.294-5.983c0 .239 0 .239 0 0 .239 0 .718-.24 1.197-.479-.24.239-.479.239-1.197.479zm-4.069.957v.957c.479-.239.958-.239 1.197-.478-.239-.479-.718-.718-1.197-.479zm-13.163 1.436c-.48 1.197-3.112 1.676-3.112 2.872-.24.24.479.24 1.197.24.718 0 1.436-.24 2.393-.24 0-.239.24-.239.24-.478-.718 0-1.436-.24-1.197-.958 2.393.958 1.436-1.436 3.83-1.675.239-.958-2.633-.24-3.351.239zM28.882 33.747h.957l-.718 1.675c-.957.958-2.154 1.676-3.111 2.394-.958.718-1.676 1.914-1.915 3.35a4.6 4.6 0 01-2.872.958c.479-.479.718-.958 1.197-1.197 1.196-3.59 2.393-4.069 3.35-4.308.718-.24 1.676-.24 3.112-2.872zM11.889 62.228c0-.24-.24-.478-.24-.478 0 1.675.24 3.35.479 4.786.24 1.436.24 2.872.24 4.07.239 2.632.239 4.786.239 6.461.718-.718 1.675-3.59 1.914-5.026l.718 1.436-.718.718.718 2.154c.718-.478.718-2.393 1.197-3.35 0 0-.24-.958-.718-2.154-.24-1.197-.479-2.394-.718-2.873l-.957 2.873c.478-.719.718-4.787.718-6.463-.479-.239-1.676 2.633-.718 3.112-.479.239-.24-3.112-1.197-1.197-.24-1.197 0-2.872.479-4.308.478-1.436.957-2.872 1.436-3.59h1.196c1.197-1.676-.718-1.676.48-3.59-.719 2.872 1.435 0 .717 2.154.718-.479 1.197.478 1.675-1.676-.718-2.393 1.915-1.675 1.197-3.829.957-.957.24 1.436 1.436-.479.24-2.632 0-2.872-.957-3.59-.718.958-.718 1.915-.718 2.633s.24 1.436-.24 2.393c0-1.436-.239-3.111 0-4.547-.718.479-.957.957-.957 1.436.24-.718.24-1.675.24-2.394v-1.196c-1.197 2.154-1.915 4.069-2.633 4.069l-.24-.24c-.718.479-.957 2.154-.957 2.872-.718 1.915-.718 4.308-1.436 4.548l-.24-.958c-.717 2.633-.717 2.872-1.435 6.223zm25.609 80.179c0-1.197 0-2.393-.479-4.069-.478-1.675-1.914-3.351-4.308-6.223l.479.24c-.718-1.915-2.154-2.872-3.59-4.308l-2.154-2.155c-.718-.718-1.197-1.675-1.436-2.872 1.914 1.436 1.675 1.436 4.547 2.394a5.598 5.598 0 01-1.675-1.676c1.196 0-.479-1.675-1.197-3.111l1.915.479c.24.957 1.436 3.35 1.675 3.111-.479-.479.718 3.83 2.394 5.266.478-.718-2.394-4.069 0-3.351-1.436-1.197-.958-1.676-2.154-3.112 1.435 1.197 1.196-.239 2.632.479-.718-.718-1.436-1.436-1.914-2.393 0 0 .718.718 1.436 1.196.718.479 1.196.718.957-.718-.957-.718-2.154-3.59-3.111-3.35l.239-.24c-.958-1.914-1.676-.239-2.633-2.872-.479.24-.479.718 0 1.676.479.718 1.197.478 2.154 1.675-.24.957-.957-1.675-1.436-.239-.24.718 2.872 3.59.957 3.35l-.957-1.914c-.718.478-1.675-.958-2.393-.479-.958-.957-.718-2.872-2.154-3.59-.718-.239-1.436 1.197-2.154-1.197.239-1.197-.24-2.872-.958-4.787-.718-1.675-1.436-3.59-1.915-4.308-.478-.478-.718-.957-1.196-1.436-.479.24 1.436 3.112.24 2.394-.48-.958-.958-1.676-1.198-2.633h.48c-.24-.957-.958-1.675-1.437-2.393.957.718 1.197 2.632 2.154 1.914-.24-1.436 0-1.675-.479-2.632.24.239.24.478.48.239-.48-2.633-1.916-2.154-2.394-2.633-.958-1.197-.958-.479-1.197.718 0 .958.24 2.394-.24 2.394-.478-1.197-.957-2.633-1.435-3.83-.479-1.197-.958-2.633-1.197-3.83.479.719.957 1.197 1.197.958 0-1.915.718-.24.239-2.872-1.197.479-1.436-3.35-2.393-5.266.478-.957.478-1.196.718.719.957-.24.239-2.873.239-3.83-.24-.479-.479-1.436-.718-2.154-.479.718-.957.479-1.436-1.197h-.24c0 .718-.239 1.676-.239 2.394v2.633c0 1.675 0 3.35.718 4.308l-.478-.48c0 1.676.718 3.591 1.196 5.027.718 1.436 1.197 2.872.479 3.83-.718 0 0 .718-.957.957l1.436 2.154-.479-.479 1.436 4.069h-.24c1.437 1.675 2.633 2.872 3.59 3.829.48-.239.48-.239.958.24.479.478.479.957.718 1.436.24.957 0 1.914.24 3.111-.48-1.197-1.197-2.393-1.676-3.59-.718 0-1.436.479-.957 2.633-.24-.718-.958-.718-.718.239.24 0 1.436 2.154 1.675 1.197 1.675 3.351 2.872 9.813 7.42 13.882-2.872-3.112.957 3.35-1.676-.479.718 3.351 2.394 1.675 4.308 4.547-.239.479-.957-1.436-2.154-1.675 1.436 2.393 3.112 4.069 5.026 5.505 1.676 1.436 3.59 2.872 5.266 4.787l-.479.478c.718.718 1.676 1.197 2.633 1.915zm8.855 5.744c.958.479 1.915.957 2.633 1.436l-.24-.239c.958.478 1.916.718 2.873.957-1.436-1.197-1.915-2.633.479-1.675-.479.239 0 .957-.718.718 1.196 1.196 4.308 3.59 4.068 1.914-3.35-.478 0-1.914-2.632-2.154 1.675-.239 2.632.958 3.83.958-1.437.239-.48 1.675 1.435 2.632.957.24 3.111 1.197 4.548 1.197-.24-.957 1.196-.957-.958-1.915.958 0 2.154.24 3.351 1.197-.718 0-1.675-.239-1.675 0 .718.958 1.914 1.197 2.393 1.676.479 0 .957.239 1.436.239-.24 0-.24-.239-.24-.239l1.676-.24c-2.154-.239-.957-.718-.718-.957-.24.957 1.436.479 2.154.479-.479-.479-.957-.958-1.436-1.197.718-.24 2.633 1.197 2.393.239-1.675-.479-2.632-.718-3.829-.957-1.197-.24-2.154-.24-3.59-.718l.957 1.196c-1.675-.239-2.154-.718-2.632-1.436-.48-.478-.958-1.196-2.633-1.914-.957 0-2.154-.479-3.35-.958-1.198-.478-2.155-.718-2.634-.239.718-.239-1.436-2.154-2.872-2.393-.957.239-2.393-.24-3.59-.718-.957-.479-1.915-.718-1.436-.24.957.718 2.633 1.197 3.112 2.394l-2.155-1.197.958 1.436c-.479-.957-.718-.479-.958.718z" fill="#FBF7BD"/><path d="M57.602 11.488c.48-.478 2.155-1.196 1.676-1.675.24.718-3.111 1.436-1.675 1.675zM59.757 11.488c0-.24-.24-.478.718-.718-.718.24-1.436.479-2.154.958l1.436-.24zM63.586 15.557c.718-.957 1.436-1.436 3.111-1.915 1.197 1.676-2.393 1.436-2.633 3.351 2.873-.718 3.351-2.633 5.745-3.59-1.436-.24-6.702.957-6.223 2.154zM63.108 18.43l1.435-.958-.239-.24-1.436.958.24.24zM21.462 25.849c-.478-.24-.957 1.196-1.436 1.675.479-.479 1.197-.957 1.436-1.675zM135.388 17.711c-4.787-1.915-9.574-3.59-14.361-4.787 4.308 1.197 7.899 2.154 14.361 4.787zM5.187 72.76c-.479-4.07-.957-5.984-.718-10.053-.957 2.633-.718 4.547-.479 6.223.24 1.675.718 3.35 0 5.505l1.197-1.676zM.64 71.084c1.197-.479 1.197 3.35 1.915 2.632 0-2.871-.958-1.435-.718-3.829L.64 71.084zM21.701 58.16l.24 1.196V58.4l-.24-.24zM2.315 89.752l-.24-.24v1.916l.24-1.676zM1.597 89.034l.24.479-.24-.479zM23.616 60.074l.718-1.197-.478-.957-.24 2.154zM15.24 71.562c0-.478-.24-.957-.24-1.436 0 .48-.478 2.154.24 1.436zM4.47 102.198c.239.718.717 1.197.957 1.675v-.239c-.24-.479-.718-1.197-.958-1.436zM18.35 82.333c.719-.958.48 2.632.958.718-.24-1.676-.718-.958-.957-.718zM16.675 103.395c0 .239.24.478.24.718 0-.24 0-.479-.24-.718zM16.675 103.395c-.239-.718-.239-1.676-.478-1.915 0 .957.24 1.197.479 1.915zM20.026 111.532l-.239-.718c.718.479.479.239 0-.239-.24-.718-.479-.479-.718-.479-.24 0-.24-.239-.479-.239l.479.478c.479.958.718 1.676.957 1.197zM28.403 148.39c-1.915-2.393-2.393-3.111-1.675-3.35-1.915-2.154-2.394-1.197-3.59-2.154 2.153 2.154 2.393 2.872 5.265 5.504zM23.138 142.886l-.718-.718.718.718zM23.377 99.805L24.813 101l-.479-.478-.957-.718zM31.515 151.741c-.48-.479-1.197-.957-1.197-1.436-.718.239 1.675 1.915 1.197 1.436zM32.95 134.987c.24-.478-1.196-1.675-1.436-2.154.48.718.24 2.154 1.436 2.154zM40.13 155.092c-.478-.24-.957-1.197-.239-1.436-.957-.24-2.393 0 .24 1.436zM36.062 138.577v-.478l-1.675-.958 1.675 1.436zM39.173 127.568c-1.675-.957.479 3.351-2.154 1.436 1.915 3.59.718-.957 2.394 1.436-.718-1.436-.479-2.872-.24-2.872zM39.652 130.44c.24.239.24.479.478.718-.239-.239-.478-.479-.478-.718zM46.832 136.663l-2.872-.958c.958.24 2.154 1.197 3.351 1.915s2.154.957 2.393.479c-.957-.958-2.632-1.915-3.35-1.915l.478.479zM70.527 169.692l-1.675.239 1.914.479c-.478-.24.718-.958-.24-.718zM52.337 147.912c-.718-.479-1.436-.958-2.154-1.197 0 .239.718.718 1.197.957.239.479.718.479.957.24zM81.776 168.734l-2.633.24 2.872-.24h-.24zM93.982 169.452l.479.24 1.915-.958h-.48c-.717 0-1.196.24-1.914.718zM78.664 147.672c-1.196-.239-2.154.718-1.914.958.718 0 1.675.239 2.393 0-.479-.958-.718 0-1.915-.24l1.436-.718zM157.407 116.798c.239.957-1.675 3.829-2.393 3.59 0-.479.718-2.154-.24-1.436v3.111c-2.632 2.633-.239-3.351 0-5.026-1.914 3.111-1.675 4.547-3.829 7.659.718-.958 1.436-1.197 2.154-1.676.957.479-1.436 3.351-2.872 5.505 1.436-1.196 1.197 0 .718 1.197 0 .239-.24.239-.24.479l-.239.478.239-.239h.479c1.197-1.915 2.633-2.872 3.59-4.069-1.196.239-.478-.957.479-2.393s2.154-3.112 2.393-3.83c.24-.718.479-1.196.958-1.914l.239-.718c.239 0 .239.239 0 1.436.239-.958 1.675-3.83 1.197-3.83 1.196-2.154 2.154-4.547 3.111-6.701.239-.24.239-.479.479-.479 0-.239 0-.239-.24-.479 2.155-5.026 3.83-10.291 5.027-15.557 1.196-5.265 2.154-10.77 2.632-16.275-.239 1.676-.957 2.872-1.196 4.548-.718-2.633-.479 2.632-1.676 1.675.24-1.197.718-2.633.958-3.59-.479-.479-1.197.957-1.676.718-.478 1.915-.239 3.111 0 4.308.24 1.197.718 2.393 0 4.308-.718-.24-.957-1.675-1.436.957v-.718c-.239 4.309-2.154 2.633-1.197 5.745l-.957-.24c0 .958 0 2.394-.479 3.83-.478 1.436-.718 2.633-.957 3.59l-.239-.239c-.479 2.872-.718 3.59-.958 4.547-.478.718-.718 1.675-1.914 4.787 0-.958.239-2.154.239-3.112-1.197 1.915-.479 2.872-1.197 4.069 0-.239-.957-.239-.478-1.675-.479 2.632-1.197 5.026-1.915 7.659 0 1.914.957 0 1.436 0z" fill="#FBF7BD"/><path d="M151.184 124.456c-.239.24-.479.718-.718 1.197.239-.479.479-.718.718-1.197zM171.767 73.238c0 .718 0 1.436-.239 2.393.239-.957.239-1.675.239-2.393zM146.158 134.748c1.197-.718-.239 1.197 0 1.675.957-1.196 2.154-2.632 3.111-3.829-.239-.239-.239-.957-.718-.957-.718 1.196-1.675 2.154-2.393 3.111zM150.706 131.876c0-.239 0-.957.239-1.436l-1.675 2.154c.239.239.478 0 1.436-.718zM134.67 120.627l.479-.479.478-1.196-.957 1.675zM142.329 111.771c-.958.479-1.436 2.155-1.676 2.633 1.197-1.675.958-.718 1.676-2.633zM136.106 110.814l.718-1.675h-.24l-.478 1.675zM166.98 55.287c0-.478-.239-.718-.239-1.196 0 .478 0 .957.239 1.196z" fill="#FBF7BD"/><path d="M168.656 74.913c.718-2.632.957-1.675.957-.478.239 1.436.239 3.11.958 2.393 0-.957 0-1.915-.24-2.872l.24.24v-3.59c-.719.717-.719 1.196-1.437.956.479-4.786.958-1.436 1.676-5.026 0-1.914 0-3.83-.479-5.744l.24.479c0-.479-.24-.718-.24-.958-.957-6.701-2.872-13.403-6.462-19.386-2.393-2.872 0 2.393-2.154.479.957 1.914 2.154 4.308 2.872 6.223.718 1.914 1.436 3.35 2.154 3.35-.239 0-.718-.24-.479.718l1.676 2.154-.24-2.393c.718.957 1.676 3.59 2.155 5.983.239 2.394.478 4.787 0 5.505-.479-2.154-.958-2.633-1.197-3.35-.479-.718-.479-1.676-.958-4.787-.239.239-.478 1.436-.957.239 2.154 6.94 1.436 13.403 1.915 19.865zM137.781 20.105l3.351.478c-1.436-.718-3.111-1.675-4.548-2.154l-.718.718c.479 0 2.155.24 2.633.958h-.718zM144.961 22.02c-2.393-1.197-2.872 0-1.914.957-2.394-.718-.479-1.676-2.394-1.436-.239.718 2.394 1.914 3.112 2.154l1.196-1.676zM159.8 36.14l-.957-.479 1.197 1.676-.24-1.197zM158.843 35.662l-1.197-1.676c-.239.24-.239.718-.239.958l1.436.718zM154.535 30.157c-.479-.718-1.197-1.197-1.915-1.915.718.479 1.197 1.197 1.915 1.915zM155.971 32.072l-1.436-1.676c.479.479.957.957 1.436 1.675zM157.885 34.225c.479-.718.718-1.675-1.436-3.59l-.478 1.197c.718.718 1.196 1.436 1.914 2.393zM143.046 99.805l.24-1.676h-.24l-.239 1.675h.239zM146.876 91.188c0-.478 0-.718-.239-.957.239.24.239.718.239.957zM143.765 83.29c1.196-1.675.478 2.633 1.436-.479.718-.239 1.196 1.676.478 3.112-.718-.24 0-1.676-.957-.718.479 1.197-.239 1.436.957 1.436 0 1.914.718 2.393.958 3.59.239-2.154 2.393-6.702 1.675-9.574-.957-1.675-2.633-.957-4.308-1.436-.239 0-.479.958-.718 1.915 0 .957 0 1.915.479 2.154zM141.61 85.683c-.239.718-.239.958-.239 1.436.479.24 0-.718.239-1.436zM156.928 67.494c-.239-.24-.479-1.915-.957-1.436l.478 2.393c0-.479.24-.718.479-.957zM156.45 69.648V68.45c-.24.479-.24.718 0 1.197zM148.791 24.652c.239-.24-.958-.957-1.676-1.197.479.479.958.958 1.676 1.197zM102.12 9.334l-1.197-.478c.479.239.718.478 1.197.478zM84.17 20.823c-.719.239-2.873-.24-3.59.239v-.24l-1.437.24c1.436 0 4.308.24 5.026-.24z" fill="#FBF7BD"/></svg>