<svg width="19" height="18" fill="none" xmlns="http://www.w3.org/2000/svg"><path d="M6.417 6.644c-.049.05-.049.05 0 0-.049.05-.049.05 0 0zM17.521 14.85c.053-.005.049-.05 0 0z" fill="#EDB9A3"/><path d="M4.391 9.042c-.216-.025-.196.199-.35.258.052-.005.114.08.159-.015-.192.244.33.105.241.294.053-.005.045-.095.151-.105.11.035-.04.14-.036.184.102-.055.27.02.22.07.107-.01.192-.244.351-.259.209-.064.115.08.225.115-.04.139-.159.015-.212.02l.282.154c-.04.139-.15.104-.212.02-.04.138.176.163.33.104.01.09.062.084.066.129-.106.01-.355.213-.465.179-.119-.125.204-.11.139-.239l-.151.104c.044-.094-.11-.034-.168-.074-.004-.045.049-.05.102-.055-.115-.08-.07-.174-.278-.109-.032.228.344.238.197.387l.433.05c.049-.05.09-.189.249-.204-.147.15-.135.284-.073.368.147-.149.27.02.36-.169-.103.055-.01-.09-.013-.134.114.08.15-.104.208-.064.123.168-.098.099-.028.273-.102.054-.364.124-.527.094-.049.05.114.08.07.174.04-.14.204-.11.2-.154.216.025.486.045.707.114-.25.204-.434-.05-.674.244.11.034.208-.065.265-.025-.089.188.176.164.238.248l.045-.094c.106-.01.114.08.171.119l-.053.005.107-.01.004.045c.106-.01.176.164.34.193.097-.099-.115-.08-.12-.124-.004-.045-.012-.134.09-.189.115.08.323.015.495.135l-.005-.045c.103-.055.164.03.221.07.017.178-.261.07-.249.203-.155.06-.118-.124-.265.025l-.09.189c.156-.06.066.129.123.168l.045-.094c.151-.104.106-.01.11.035l.143-.194c-.061-.084-.265.025-.172-.119.164.03.31-.12.43.005-.05.05-.054.005-.103.055.009.09.213-.02.225.114-.106.01-.212.02-.253.159l.204-.11c.004.045-.045.095-.045.095.009.09.147-.149.156-.06.004.045.008.09-.045.095.114.08.106-.01.27.02-.062-.085.134-.283.248-.204.119.124.274.065.189.298l.155-.06c-.151.105.008.09.066.13-.147.149-.172-.12-.421.084.061.085-.04.14-.147.149.11.035.2-.154.302-.208-.049.05.119.124-.032.228.061.084.208-.065.265-.025-.049.05-.15.104-.195.199.049-.05.061.084.061.084-.004-.044.151-.104.045-.094.098-.1.172.119.27.02-.094.144.118.124.127.213.293-.298-.213.02-.021-.223.212-.02.286.198.605.169.065.129-.098.1-.192.243-.163-.03-.119-.124-.282-.154.066.13.29.244.446.184.114.08-.18.377.037.402.098-.1.094-.144.09-.188.053-.006.057.04.114.079.102-.055-.012-.134.094-.144.004.045.061.084-.04.139.216.025-.13.328.18.209.048-.05-.054.005-.062-.085.045-.094.2-.154.31-.119-.049.05.057.04.062.085-.094.143-.11-.035-.213.02l.115.079-.004-.045.212-.02c-.11-.034.094-.144.147-.149.061.085.123.17.025.268.15-.104.208-.064.319-.03-.062-.084.097-.099.146-.148l.017.179c-.164-.03-.094.144-.196.198-.15.104-.163-.03-.22-.07-.078.323.318-.03.339.194-.36.17-.408.219-.465.179.004.045.208-.065.22.07-.004-.045.09-.19.196-.199l-.032.228c.119.125.147-.149.31-.119l.04-.139c.099-.099.115.08.262-.07-.057-.039-.155.06-.217-.024.094-.144.16-.015.262-.07.065.13.065.13.029.313-.196.199-.36.17-.6.462.164.03.385.1.397.233.164.03.306-.163.4-.307.053-.005.057.04.061.084l-.102.055c.217.025.372-.035.49.09.107-.01.2-.155.245-.249l.11.035-.004-.045c.147-.149.16-.015.217.025-.049.05-.102.055-.098.1.009.089.119.123.221.069-.049.05-.196.198-.204.109l.049-.05-.16.015c.16-.015.128.214.034.358.212-.02.032-.229.196-.199-.016.407.441.14.27.606.16-.015.364-.124.532-.05.093-.143.106-.01.2-.153-.021-.224-.421.084-.393-.19-.106.01-.147.15-.249.204-.057-.04-.114-.08-.066-.129.16-.015.24-.293.409-.218.044-.095-.123-.169-.127-.214.048-.05.093-.144.089-.188.102-.055.257-.115.36-.17-.013-.133-.005-.044-.058-.039l.314-.074a.245.245 0 01-.138.238c.061.084.323.015.233.204.164.03.04-.14.09-.189l-.11-.035c.138-.238.118.124.26-.07.286-.387.075.22.234.204l-.298.254.16-.015c-.151.104-.241.293-.396.352.114.08.237.248.397.234-.045.094-.086.233-.135.283.258-.114.123.169.238.248.208-.064-.021-.223.13-.328.008.09.114.08.163.03-.049.05-.118-.124-.18-.208.057.04.151-.105.2-.154l-.114-.08c.142-.194.163.03.265-.025-.147.15-.094.144-.24.293.159-.014.27.02.286.199.008.09-.102.055-.151.104-.04.14.16-.015.066.13-.098.099-.058-.04-.107.01l.12.123c-.05.05-.103.055-.16.015.065.13.119.124.367-.079.066.13.132.258.03.313.053-.005.097-.1.093-.144.115.08.257-.114.364-.124l-.013-.134c.07.173.143-.194.208-.065a1.14 1.14 0 00-.228.427c.098-.1.11.035.164.03.04-.139.155-.06.138-.238.155-.06.119.124.323.015-.004-.045.151-.105.196-.199.11.035.127.214.033.358-.057-.04-.061-.085-.106.01l.216.024c.009.09.066.13.026.269.146-.15.122.168.27.02-.152.104-.115-.08-.12-.125l.054-.005.191-.243c-.012-.134-.093.144-.204.11.028-.274.4-.309.383-.487-.061-.085-.147.149-.249.203l-.208.065a.566.566 0 01.094-.144c-.22-.07-.18-.209-.352-.328.004.045-.077.323-.188.288-.102.054-.012-.134-.065-.13.053-.004.147-.148.155-.059l.09-.188c.253-.16.289-.343.501-.363.094-.144.253-.159.368-.08l-.013-.133c.196-.199-.09.188.168.074-.028.273-.052.591-.252.745.062.085.16-.015.27.02-.032.228-.143.194-.18.377.107-.01.209-.064.197-.198l.118.124c.004.045-.053.005-.106.01.057.04.16-.015.261-.07l-.053.005c.102-.054.204-.109.253-.159-.102.055-.012-.134-.167-.074.049-.05.093-.144.098-.1-.013-.133-.12-.124-.079-.263.013.134.107-.01.16-.014-.058-.04-.168-.075-.217-.025.085-.234-.217-.025-.02-.224-.045.095-.103.055-.164-.03.044-.094.15-.104.249-.203.265-.025-.094.144-.086.233l.164.03c-.005-.045.146-.149.04-.14.098-.098.25-.203.262-.069.049-.05-.009-.089-.009-.089.05-.05.245-.248.13-.328.058.04-.098.1-.09.189-.052.005-.17-.12-.02-.223-.053.005-.208.064-.261.069.044-.094.053-.005.102-.055l-.213.02.013.134c-.066-.129-.31.12-.412.174.093-.144.2-.154.301-.208.033-.229-.097.099-.159.014-.004-.044-.008-.089.04-.139l-.15.105c-.004-.045-.004-.045.049-.05-.253.159-.139.238-.351.258.065.13.15-.104.265-.025.013.134-.248.204-.297.254-.062-.085.023-.318-.132-.259.102-.054.094-.144.204-.109.102-.054-.008-.09.037-.184-.053.005-.09.19-.147.15l-.004-.045-.257.114c-.066-.13-.421.084-.389-.144l-.09.188c-.11-.034-.22-.07-.273-.064.098-.1.155-.06.204-.11-.115-.079-.327-.06-.531.05l.025.268c-.249.204-.02-.223-.23-.159.09-.188.148-.149.188-.288-.098.1-.212.02-.31.12.09-.19.187-.289.35-.259.018.18.266-.024.283.154l-.012-.134c.106-.01.163.03.27.02l.146-.149-.057-.04c.098-.099.249-.203.302-.208-.164-.03-.298.253-.449.357-.115-.08.015-.407-.131-.258.044-.094.036-.184.138-.238.106-.01.066.129.16-.015-.058-.04-.009-.09-.12-.124-.093.144-.297.253-.448.357-.155.06-.217-.025-.274-.064.11.034.261-.07.302-.209-.147.15-.07-.174-.212.02-.058-.04-.225-.114-.136-.303.16-.015.119.124.225.114 0 0-.008-.09.045-.094l-.04.139c-.013-.134.036-.184-.075-.219 0 0 .005.045-.048.05-.054.005-.058-.04-.11-.035l.089-.188c-.102.054-.127-.214-.393-.19l.049-.049c-.114-.08-.35.258-.461.224.102-.055.094-.144.196-.2-.102.056-.062-.084-.07-.173.012.134-.147.15-.139.239-.093.143-.257.114-.265.024.138-.238.265-.024.35-.258-.057-.04-.155.06-.15.104-.062-.084-.176-.164-.136-.303-.204.11-.16.015-.412.174.057.04.15-.104.16-.015l-.205.11c-.11-.035-.074-.22-.131-.259l.106-.01c.102-.054.11.035.204-.109-.15.104-.11-.035-.265.025-.213.02-.087-.353-.384-.1.053-.005.012.134-.09.19.045-.095-.066-.13-.017-.18l.053-.005c-.061-.084-.118-.124-.167-.074-.098.1-.143.194-.25.203-.065-.129.25-.203.237-.337l-.212.02.045-.095c-.127-.213-.482 0-.707-.114.146-.149.31-.12.363-.124.036-.184-.164-.03-.18-.209-.062-.084-.213.02-.31.12-.16.014-.013-.135.036-.184-.2.153-.266.024-.376-.01l.261-.07-.212.02c.004.045-.098.1-.147.149l-.004-.045c-.126.373.376.01.25.383-.053.005-.045.094-.151.104l-.008-.09c-.102.055-.204.11-.147.15-.196.198-.261.069-.42.084.036-.184.252-.16.354-.214-.053.005-.155.06-.163-.03l.146-.148c-.212.02-.15.104-.297.253-.2.154-.115-.08-.168-.075l.053-.005c-.065-.129-.212.02-.274-.064l.04-.14c-.031.23.311-.118.324.016-.021-.224.293-.298.449-.358-.11-.035-.115-.08-.123-.169-.258.114-.127-.213-.434-.05-.004-.044.155-.059.098-.099-.061-.084-.225-.114-.388-.144-.057-.04.045-.094.09-.189-.185-.253-.589.01-.83-.283l.101-.054c-.057-.04-.065-.13-.216-.025.187-.288-.38-.055-.25-.383-.066-.129-.314.075-.425.04.05-.05.2-.154.196-.199-.389-.144-.675-.342-1.072-.576l.107-.01c-.18-.208-.659-.164-.732-.382-.054.005-.217-.025-.315.074.004.045-.09.189-.191.243-.27-.02.138-.238-.03-.313.196-.198.209-.064.408-.218l-.27-.02c-.012-.134-.224-.114-.184-.253.005.045.151-.104.16-.015l-.053.005c.118.124.159-.015.322.015-.163-.03-.33-.104-.396-.234-.147.15-.11-.034-.266.025-.049.05-.155.06-.212.02l.147-.149c-.054.005-.098.1-.156.06-.11-.035-.286-.2-.14-.348-.056-.04-.212.02-.22-.07.049-.05.102-.054.102-.054-.123-.17-.348-.283-.364-.462a.84.84 0 00-.49-.09c.052-.005.065.13-.095.144-.102.055-.11-.034-.22-.07.102-.054-.017-.178.147-.148.195-.199-.23-.16-.03-.313-.106.01-.171-.12-.33-.104.097-.1.11.034.212-.02l-.11-.035.048-.05c-.065-.129-.318.03-.429-.005l.053-.005-.057-.04.208-.064c-.11-.035-.265.025-.376-.01l.05-.05-.107.01s.053-.005.049-.05c-.208.065-.22-.069-.429-.004-.004-.045.192-.244-.017-.18l.2-.153c.115.08-.093.144.074.219.188-.288-.046-.492-.218-.611-.27-.02-.196-.388-.556-.219l.156-.06-.079-.263c-.229-.159-.303-.377-.572-.397l.098-.1c-.474.09-.573-.397-1.092-.213.04-.14.209-.065.257-.114-.008-.09-.375-.01-.233-.204.05-.05.11.035.16-.015.093-.144-.16.015-.066-.129-.098.1-.363.124-.425.04l.004.044c-.102.055-.106.01-.163-.03l.053-.004c-.507-.269-.92-.681-1.126-1.158l.164.03c-.11-.035-.176-.164-.127-.213.138-.239-.323-.015-.127-.214l.053-.005c-.12-.124.077-.323-.144-.392-.013-.134.142-.194.183-.333-.057-.04-.216-.025-.212.02l.004.044c-.098.1-.16.015-.217-.024-.2.154-.51.273-.595.506.11.035-.245.248-.13.328.314-.075-.082.278.233.203-.208.065-.037.184-.249.204-.098.1.331.104.189.298-.054.005-.102.055-.107.01.164.03-.093.144-.032.228l.204-.109c.106-.01-.045.094.009.09-.005-.045.04-.14.146-.15.053-.004.16-.014.164.03-.05.05-.102.055-.16.015 0 0 .062.085-.04.14-.106.01-.11-.035-.213.02.013.133-.048.049-.142.193.2-.154.163.03.274.064-.102.055-.058-.04-.16.015-.289.343.172.12.246.338l-.106.01c.11.035-.036.184.123.169.008.09-.253.159-.139.238.2-.154.066.13.27.02L.6 4.572c.16-.015.404-.263.523-.139.017.179-.408.219-.449.358l.156-.06-.045.094c.053-.005.061.085.012.134l-.159.015c.16-.015-.122.417.295.288-.045.095.012.134-.09.19.155-.06.07.173.23.158-.05.05-.094.144-.041.14-.009-.09.098-.1.204-.11-.098.1.123.169-.024.318.16-.015.257-.115.412-.174-.098.1.074.218-.183.333-.004-.045-.017-.18-.164-.03-.04.139.107-.01.164.03-.053.005-.094.144-.147.149.053-.005.115.079.119.124.04-.14.208-.065.253-.16l-.213.02c-.061-.084.098-.099.147-.148.172.119.372-.035.593.035.004.044-.04.139-.04.139-.058-.04-.258.114-.254.159.213-.02.021.223.03.312-.009-.089.146-.149.2-.154.22.07-.046.095-.086.234.176.164.099.487.373.551l.09-.189-.205.11c.094-.144.351-.258.51-.273-.049.05.066.129-.04.139l.163.03c.05-.05-.008-.09.098-.1-.049.05.017.179-.143.194.058.04.168.074.266-.025.061.085-.2.154-.306.164.061.084-.094.144-.143.194l.115.08c-.053.004-.155.059-.208.064.008.089.216.024.122.168l.156-.06c.02.224.02.224.143.393l.098-.1c.266-.024-.09.19.136.304.163.03.22.07.367-.08.106-.01.008.09-.04.14.106-.01.367-.08.327.06-.107.01-.16.014-.217-.026-.147.15.123.17.078.264.106-.01.43.005.69-.065.094-.144.298-.253.51-.273-.101.055.017.179-.028.273-.102.055-.134.283-.248.204-.005-.045.142-.194.036-.184a.467.467 0 00-.126.372.186.186 0 01-.212.02c-.058-.04-.062-.084-.013-.134z" fill="#EDB9A3"/><path d="M6.569 11.138l.053-.005c-.004-.044-.004-.044-.053.005zM8.344 12.37c.05-.05 0 0 0 0zM17.098 16.062l-.053.005c.004.044.053-.005.053-.005z" fill="#EDB9A3"/></svg>