<svg width="96" height="118" fill="none" xmlns="http://www.w3.org/2000/svg"><path d="M17.643 5.912c-.113 0-.34 0-.453-.113l.34.34a.35.35 0 00.113-.227z" fill="#29383F"/><path d="M17.304 5.799c-1.585-.226-3.284-.34-4.869-.68 0-.226.113-.565.113-.679-.792-.34-1.698-.226-2.604-.34 0-.113.114-.452-.34-.452-.679-.227-1.132-.34-1.471-.34-.453.113-.68.227-.906.34 4.868 1.585 6.34 3.623 10.077 2.151zM20.7 6.818c-1.019-.226-2.038-.453-3.057-.566.68.566 1.472.906 2.83 1.472l.227-.906zM5.19 41.01c-.793 1.359.226 2.491 1.81 3.51-.452-1.019-.792-2.151-1.132-3.17l-.679-.34zM34.287 87.883a4.07 4.07 0 00-1.359-.905c-.566-.227-1.132-.453-1.811-.566.453 1.132 1.585 1.471 2.264 2.377.226-.113.34-.226.113.227 0-.114-.113-.114-.113-.227-.227.114-.566.34-.68.34.793.453 1.812.906 2.492 1.585l1.358-.68c-.792-.679-1.585-1.584-2.264-2.15zM35.985 74.184v.453l.566.453v-.34l-.566-.566zM40.627 2.402h-.453c.113.227.227.34.453.453v-.453zM45.835 3.648h-.34c.114 0 .227.113.34.113v-.113zM40.174 2.402c-1.585-.113-3.283 0-4.868-.34 0-.226.113-.792.113-1.131-.906-.34-1.812-.114-2.604-.227 0-.226 0-.566-.34-.566-1.132-.34-1.925 0-2.264.453 4.755 1.585 6.34 4.642 9.963 1.811zM43.684 3.308c-1.02-.226-2.038-.453-3.057-.453.68.793 1.472 1.246 2.944 1.812l.113-1.359zM46.062 110.075c.452 1.698 1.585 2.604 2.49 4.302.227-.113.34-.113.114.34 0-.114-.114-.227-.114-.34-.226.113-.566.226-.792.226.906.906 2.038 2.038 3.17 3.397a28.647 28.647 0 001.472-.34c-2.604-3.057-3.284-5.887-6.34-7.585zM54.666 116.188l.227.227c.113-.453 0-.34-.227-.227zM75.16 95.243c-5.322-.453.792 1.245 0 0zM46.401 90.6l.34.68v-.226l-.34-.453zM52.289 94.11c.68 1.02 1.245 2.152 1.925 3.17.679.793 1.358 1.586 2.15 2.265 1.473 1.812 2.265 3.85 2.944 5.661.68 1.925 1.472 3.736 2.491 4.529 1.132-.566 2.265-1.245 3.51-2.038.227-.453.113-1.019-.226-1.698-.227-.68-.68-1.472-1.02-2.378-.792-1.811-1.584-3.85-1.471-6.114l-.113-.113c-2.944-1.472-2.378-4.869-4.756-7.133-2.83-2.264-3.962-4.868-6.227-7.36 0 3.964 1.132 7.473.793 11.21z" fill="#29383F"/><path d="M51.61 93.092v.792c.226.227.339.566.566.793l.113-.566-.68-1.02zM62.478 84.826c-.34-.792-.566-1.584-.792-2.377a18.808 18.808 0 01-2.151-3.397c.566 2.265 1.245 4.303 2.944 5.774zM93.388 82.789c-.906-.567-1.699-1.02-2.491-1.585-.566-.227-1.246-.34-2.038-.453a2.326 2.326 0 000 1.245c1.358.453 1.925.793 2.15.906.68 0 1.473 0 2.379-.113z" fill="#29383F"/><path d="M91.123 82.902c-5.435-.113.68.68 0 0zM72.555 71.24c.906.227 1.812.566 1.925 1.02a4.943 4.943 0 001.132 1.697c-.566-1.132-1.132-2.377-2.604-3.283-.113.226-.453.453-.453.566z" fill="#29383F"/><path d="M87.727 78.26c-.793-.793-1.472-1.472-2.152-2.265.453.227.793.34 1.246.566.226.114.453.114.68.227 1.697.68 1.81 1.811 1.697 2.944a11.434 11.434 0 001.812 1.472h.113c-.113-.68.113-1.472.227-2.265-1.36-1.132-2.491-2.377-3.623-3.623.452.227.792.34 1.245.566 2.378.68 2.49 1.812 2.378 3.17 1.245 1.132 2.604 2.151 4.302 3.057-.113-.792-.34-1.698-.793-2.377-1.358-1.472-2.604-2.83-3.962-4.19-1.359-1.471-2.718-2.83-3.963-4.189-1.019-.226-1.925-.566-2.264-.905-1.02-.793-1.02-1.812-1.585-2.718-.906.227-.906-.226-1.36-.226-1.81-.793-1.471-1.812-1.584-2.83 0-.114.453-.227.792-.34-4.189-1.133-3.85-3.057-3.736-4.982-.113-.453-.226-.906-.113-1.472.113.453.113.906.113 1.472.34 1.019 1.359 2.038 2.378 3.057-1.699-2.49-2.604-4.868-3.057-7.36-.453-2.377-2.378-4.641-4.076-6.906-.68-.906-.566-1.925-.34-2.83.227.113.566.113.906.226.34-1.132.226-2.264-.227-3.51l-.113-.34c-1.245-2.49-1.698-4.641-1.585-7.132 0-.566-.34-1.246-.34-1.812-.452-.453-3.056.114-3.51-.679-.112 0-.226.113-.452.113.566.68 1.358 1.132.34 1.359-1.812.113-2.831-1.02-4.643-1.812-.34 0-.679-.113-1.019-.113v-.226l-.34-.114c-.565 0-1.245-.113-1.81-.113v.906a14.246 14.246 0 01-1.133-.34c.113-.566.113-1.019.227-1.585.226.114.566.34.792.453.453-1.925.453-3.85 0-5.887l-.113-.566c-1.132-4.19-1.359-7.813-1.02-12.002.114-1.019-.339-2.15-.226-3.17-.34-.792-3.17.34-3.51-1.019-.113.113-.226.113-.452.113.453 1.02 1.245 1.925.34 2.152-1.812.226-2.718-1.699-4.53-3.057-.679-.34-1.018-.34-1.358-.453v-.34l-.34-.113c-.566 0-1.245-.113-1.811-.227l-.113 1.36c-1.36-.567-2.265-1.02-2.944-1.812-.113-.114-.227-.34-.453-.453-3.623 2.83-5.208-.227-10.077-1.699a1.42 1.42 0 00-.113 1.02c-.453 0-1.359-.114-1.359-.114-1.018 2.151-2.717 3.623-4.868 5.435h-.113c-.34-.114-.68-.114-1.02-.227V9.31l-.339-.113a5.128 5.128 0 01-1.811-.34l-.114.906c-1.358-.453-2.264-.793-2.943-1.359l-.34-.34c-3.623 1.472-5.208-.566-9.963-2.038-.114.114-.227.34-.114.68-.452-.113-1.358-.227-1.358-.227C7 7.95 5.189 8.743 2.812 9.875c-.453.34-2.265.113-2.265.566-.113 1.359-.792 2.717-.453 4.19 1.132 3.17 1.812 6 2.151 8.944h.34c0 .679.113 1.358.113 2.15 0 .68 1.246 1.36 1.246 2.039-.34 4.642.453 9.284 2.038 14.039.792.34 1.472.793 2.15 1.132 0-.226.114-.566.227-.906.906.34 1.699.793 2.378 1.246 0 .906.113 1.698.226 2.604a10.361 10.361 0 00-2.943-2.944c0 1.132 1.358 2.151 2.943 3.057.114.68.227 1.245.34 1.925-.793-1.02-2.717-1.925-4.19-2.944.34.68.567 1.359.907 2.151 1.132 1.925 2.49 3.623 4.189 5.435-.114-.68-.34-1.359-.34-1.925.226.68.34 1.472.566 2.151l-.226-.226c.113.453.226.906.34 1.472-.114-.114-.227-.114-.454-.227-.792 1.246.114 2.265 1.472 3.284.114.453.34.792.453 1.245.114.227.34.453.453.68 0 .113.113.226.113.339 1.133 1.925 2.491 3.623 4.19 5.435v-.114c.792.793 1.585 1.699 2.49 2.491.34.34.567.566.793.906-.227-1.472-.453-2.83-.68-4.302.114 0 .114.113.227.113-.226-.906-.226-1.699-.34-2.604a3.444 3.444 0 00-.566-.793c-.226-1.019-.68-2.038-1.132-3.057 2.264 2.378 2.717 4.982 4.982 6.794.226 1.019.34 2.15.566 3.283a14.344 14.344 0 00-3.17-3.284c-.114-.113-.227-.226-.34-.226.453 2.378 1.245 4.642 2.264 6.906a64.751 64.751 0 00-3.623-4.642c-.453-.452-1.019-.905-1.471-1.358.452 1.925 1.132 3.85 1.924 5.774 1.699 2.264 3.284 4.642 5.322 6.793-.114.114-.227.114-.34.114.34.113.566.34.906.452.453.453.905.906 1.472 1.359.34.34.566.566.792.906-.113-.453-.113-1.02-.226-1.472.226-.113.566-.227.792-.34L28.4 77.467c-.453-3.057-1.019-5.887-2.49-8.491 1.018 1.585 1.698 3.283 3.17 4.642.566.226.905.68 1.698.566l.113.113v-.113l-.113-.113v.113c.906.68 1.811 1.472 2.717 2.151.453.34.906.793 1.359 1.132v.34c-.566-.34-1.132-.793-1.699-1.246-.792-.679-1.585-1.471-2.377-2.264.453 1.812.68 3.736 1.019 5.774 1.585 1.812 2.264 3.963 3.962 5.661.453.227.793.566 1.246.566 1.812 4.19 3.623 8.492 6.227 12.568.34.566.566 1.019.793 1.585-.453-5.661-.566-11.096-1.925-16.077.453-.227.906-.566 1.359-.793-.567-1.585-1.812-3.283-3.624-5.095-.226-.34-.34-.68-.566-1.019l1.02.34c1.471.792 2.15 1.698 2.83 2.604.34.453.68.906 1.019 1.245 1.245 3.17 1.925 6.454 2.264 9.85a101.644 101.644 0 014.982 7.926c-1.925-2.378-3.51-4.868-4.982-7.812.34 2.944.453 6 .793 9.171 1.585 3.283 1.924 6.68 3.85 9.963.678.679 1.018 1.472 2.037 1.698 1.246-.113 2.378-.226 3.51-.453-.566-.792-1.359-1.472-2.038-2.151.227.113.566-.113.793-.113-.566-1.245-1.472-2.038-1.925-3.397 2.717 1.472 3.396 3.737 4.642 5.435.566-.113 1.019-.34 1.585-.566a31.122 31.122 0 00-1.019-2.944 25.343 25.343 0 00-1.359-3.283c-1.019-2.265-2.15-4.642-3.51-7.133a22.105 22.105 0 01-1.924-2.604c.226-.113.226.453 0 .906l-.227-1.585v-.793a68.333 68.333 0 01-2.83-4.868c.906 1.358 1.925 2.717 2.717 4.189 0-2.944.453-6.114-1.132-8.945-1.02-1.132-1.585-2.604-2.49-3.963.225-.226.565-.34.792-.566 1.019.793 1.132 1.925 1.132 3.057.906-.34.453.453 1.358.453 1.812 1.472 3.737 2.944 5.095 4.076 1.925 1.925 1.246 3.963 3.963 5.435.453.226.566.453.68.906-.114 0-.114-.114-.227-.114.113.34.226.68.453.906 0 .113.113.227.226.453.114 0 .114.113.227.113.226.227.34.453.453.793.226 0 .452-.114 0 .113v-.113c-.227 0-.567.113-.793.113.566.453 1.132 1.019 1.472 1.585h1.472c-.34-.906-.566-1.812-1.246-2.49 0-.114.114-.227.114-.34.226-.114 1.019 1.245 2.15 2.604 1.02 1.358 2.265 2.49 3.17 2.264.227 0-.339-1.02-1.131-2.604-.453-.906-.793-1.925-1.132-3.057.34.34.566.68 1.358.906h3.51c-.227-.566-.793-1.133-1.472-1.585.227 0 .566 0 .793-.114-.227-.792-1.02-1.245-1.246-1.924.227 0 .453 0 .566.113 1.925.906 2.265 2.151 2.718 3.51.566 0 1.132 0 1.585-.114.679.453 1.019.68 1.132.906.566.114 1.358.113 2.377.227v-.114a6.483 6.483 0 01-1.245-1.245c.793-.113 1.698-.226 2.604-.453.227.227.566.566.906.793 0-.34-.113-.68-.113-1.02.113 0 .226-.112.453-.112.905-2.944-1.925-5.322-1.586-8.266h-.113c-2.83-.792-2.264-2.83-4.642-4.075-.34-.567-.566-1.133-.906-1.699 1.699 1.02 1.133 2.265 3.737 2.944.906.226.566.793 1.019 1.245.453.114.792.227 1.245.453.113-.226.227-.453.453-.68.453-.225 3.283 3.284 4.982 2.831.453-.113-2.151-2.83-2.491-5.094 1.245-.567 6.567-.453 7.02-.227h.34c0-.34.112-.68.112-1.019-.566-.793-1.019-1.245-1.471-1.698zm-13.02-20.72c-.34 1.586.678 3.284 2.603 4.756-4.981.792-5.321-1.02-5.547-3.284-.227-2.264-.34-4.755-5.209-5.321 5.322-.793 8.152 2.604 8.152 3.85zM73.12 90.035c0-.114-.113-.227-.113-.227-.453-1.019-1.132-2.038-1.925-3.057-.113-.34-.34-.566-.453-.906.453.34.906.567 1.359.906.34.34.68.566.906.906.34.793.34 1.585.226 2.378zm-33.74-6.454c.114 0 .114 0 0 0 .114 0 0 0 0 0zm-.226-1.132c-.34-.227-.68-.453-.906-.906.227 0 .453 0 .68.113.113.227.226.566.226.793zm-2.604-7.36c-.113.34-.113.68-.226.906l-.227-.905c0-.114 0-.34-.113-.453-.453-.34-.793-.68-1.245-1.133v-.34c.452.34.905.68 1.245 1.02 0-.906 0-1.812-.113-2.717.113 0 .226-.114.34-.114.34 1.133.566 2.151.452 3.397.453.34.906.793 1.359 1.132v.113c-.566-.226-1.02-.566-1.472-.905zM15.492 35.464c.793.792.793 1.585 1.132 2.49.114.114.227.227.227.34-1.246-.906-1.359-2.151-2.378-3.283.566.113 1.02.34 1.02.453zm14.04 28.078c0 .113 0 .113-.114.227v-.34c0 .113 0 .113.113.113zM13.113 33.198h.34c.113.34.113.566.227.906-.227-.113-.34-.34-.566-.453v-.453zM37.23 69.315c-.113-.226-.226-.34-.34-.566.34.114.567.227.907.34.113.113.34.226.452.34.114.226.227.453.227.679-.453-.227-.793-.453-1.246-.793zm5.775 2.944l.113.113c.68.906 1.472 1.699 2.151 2.491-.566-.226-1.019-.68-1.359-1.019-.226-.34-.452-.566-.792-.906 0-.34-.113-.566-.113-.679zm24.908-3.057c-.226-.113-.226-.34-.226-.566.113.227.226.453.226.566zM41.306 11.234c-.113 0-.226.113-.34.113-.226-.34-.452-.566-.566-.906.567.226.906.566.906.792zm-2.604-1.246h.34c.566 2.378 1.358 4.869.566 6.567-.453-2.151-1.359-4.642-.906-6.567zm-20.38 1.585h-.339l-.566-.566c.566.113.906.34.906.566zm-2.603-1.019h.34c.452 1.585 1.358 3.17.452 4.19-.453-1.36-1.358-3.058-.792-4.19zM7.114 18.48H7h.113zm-.793 2.49h.34c.113.453.113.906.34 1.246.113.113.226.226.453.34 0 .226-.114.452-.114.566-.226-.34-.453-.793-.792-1.133-.227-.34-.227-.679-.227-1.018zm10.87 37.137c-.34-.34-.567-.793-.906-1.133.226.114.34.227.566.34.113.227.226.453.34.793zm-.906-2.038c-.453-.453-.906-.906-1.472-1.246v.227c-.113-.113-.227-.34-.34-.453.113.113.227.113.34.226 0-.226.113-.566.226-.906.227.114.34.227.566.227.227.566.453 1.245.68 1.925zm42.684 30.116c.226.227.453.34.566.566.226.227.453.453.566.68-.453-.34-.906-.793-1.132-1.246zm1.471 1.472s-.113 0 0 0c-.452-5.208-.566-10.19-5.774-14.153-.34-.679-.792-1.471-1.358-2.15 0-.34-.114-.567-.114-.906.34 0 .68-.114 1.02-.114.792 1.133 1.471 2.152 2.717 2.83 0 0 .113 0 .113.114 0 .226-.453.453-.453.793.906.453 1.812 1.245 1.812 2.038.226 1.019.566 2.038 1.019 2.943-.567-2.038-1.02-3.962-2.378-5.66 2.717 2.83 3.51 6 4.416 9.057.226.226.452.566.679.793.34.566.34 1.132.113 1.584l.113.227.113-.113c-.34.792-1.019 1.472-1.132 2.377l.453.227-1.358.113zm14.606 4.982a5.292 5.292 0 00-1.132-.566c-.114-.566-.34-1.246-.566-1.812a9.062 9.062 0 001.698 2.378c.113-.114.113-.34.113-.453.113.34.226.792.453 1.132-.227-.226-.453-.453-.566-.68zm3.623-15.285l-.113-.113c-.34.453-1.02 1.019-1.132 1.585l.452.113-1.358.113c-3.284-1.019-1.246-2.943-2.718-4.302-.905-.793-1.585-1.698-2.264-2.604-.34-1.02-.906-2.038-1.698-3.057 1.132.566 2.264 1.019 3.057 1.585 2.943 1.472 3.85 3.283 4.755 5.095.226.113.453.34.68.453.339.34.339.566.226.906l.113.226z" fill="#29383F"/><path d="M75.499 74.07c.68 1.246 1.245 2.492 3.057 3.284v-.113c-.34-.453-.566-.906-.793-1.359-.906-.566-1.698-1.132-2.264-1.811zM88.632 72.146c0-.113 0-.453-.113-.566-.226-.113-.566-.113-.792-.227v.453l.905.34zM80.82 64.107a120.52 120.52 0 005.888 7.02c.34.113.679.113 1.019.226.113-1.585-.567-3.17-3.17-4.415-.454-.227-1.812-.566-1.812-.906-.566-1.359-2.038-2.604-3.397-3.85.453.68.906 1.246 1.472 1.925z" fill="#29383F"/></svg>