<svg width="566" height="486" viewBox="0 0 566 486" fill="none" xmlns="http://www.w3.org/2000/svg">
<g id="portrait">
<path id="neck" d="M197.935 352.043C197.935 352.043 210.863 357.465 227.823 352.043C244.851 346.622 325.686 315.345 325.686 315.345C325.686 315.345 326.381 345.232 331.803 360.176C337.224 375.119 347.441 388.673 345.356 393.469C343.271 398.265 341.95 398.195 335.834 400.28C329.717 402.296 307.615 416.544 282.871 430.168C266.05 439.412 230.464 442.4 219.343 437.674C208.222 432.948 206.137 432.253 207.527 422.73C208.917 413.208 208.917 390.132 203.426 371.088C197.935 352.043 197.935 352.043 197.935 352.043Z" fill="#BC9B8C"/>
<path id="face" d="M185.702 69.7821C185.702 69.7821 180.281 71.7978 174.859 78.6093C169.438 85.4208 142.957 123.649 135.45 140.4C127.943 157.15 130.029 155.343 129.333 163.475C128.638 171.607 132.948 181.338 131.349 188.358C129.75 195.378 121.827 197.394 115.015 217.134C108.204 236.804 119.116 301.374 128.569 317.013C138.091 332.651 143.513 352.322 157.761 357.743C172.01 363.164 195.155 357.743 195.155 357.743C195.155 357.743 267.788 341.27 297.745 333.972C327.702 326.674 336.738 328.898 368.432 214.77C372.811 198.923 396.165 86.5329 286.902 54.908C268.136 49.4865 245.616 45.5247 229.352 48.2354C203.357 52.7533 185.702 69.7821 185.702 69.7821Z" fill="#E3B59F"/>
<path id="eye-left" d="M137.744 171.329C137.813 171.886 138.578 171.955 138.786 171.468C140.246 167.437 142.609 157.359 154.564 158.818C167.631 160.417 169.647 185.37 164.503 201.981C159.36 218.593 131.002 247.299 130.654 249.106C130.376 250.913 134.616 251.886 136.075 252.025C138.022 252.234 139.134 252.72 139.481 252.025C140.107 250.913 136.701 249.732 135.519 249.106C134.338 248.48 160.611 222.833 167.075 204.692C173.539 186.551 175.207 154.231 157.275 153.814C142.609 153.467 138.925 162.641 138.23 165.283C137.952 166.256 137.605 170.078 137.744 171.329Z" fill="#343434"/>
<g id="eye-right">
<path id="eye" d="M238.735 202.051C242.343 202.051 245.268 199.126 245.268 195.517C245.268 191.909 242.343 188.984 238.735 188.984C235.127 188.984 232.201 191.909 232.201 195.517C232.201 199.126 235.127 202.051 238.735 202.051Z" fill="#615B5B"/>
<path id="brow" d="M283.218 206.291C283.149 207.264 281.967 207.82 281.203 207.264C276.337 203.927 261.811 195.309 239.499 193.363C211.697 190.93 201.689 202.676 194.738 202.12C190.915 201.842 191.263 199.966 193 199.132C194.738 198.298 192.236 197.046 194.112 196.421C195.989 195.795 194.182 194.266 196.198 194.127C197.171 194.058 199.395 194.405 201.967 194.058C204.677 193.71 207.736 192.737 208.57 192.529C210.168 191.973 211.836 191.555 212.323 191.347C212.879 191.138 210.516 190.582 210.377 188.358C210.238 186.134 211.072 184.813 212.045 184.744C213.018 184.674 211.697 186.829 212.253 188.219C212.809 189.609 214.13 190.582 214.13 190.582C214.13 190.582 217.049 189.192 219.204 188.636C221.289 188.011 223.791 187.941 223.791 187.941C223.791 187.941 220.872 186.273 220.177 182.728C219.551 179.462 219.968 176.612 221.776 176.334C224.764 175.847 222.54 180.087 224.208 182.381C225.876 184.674 228.031 186.968 228.031 186.968C228.031 186.968 231.993 185.995 236.163 186.204C239.291 186.343 242.071 186.69 242.071 186.69C242.071 186.69 241.585 185.091 242.349 182.52C243.044 180.018 243.6 179.114 245.129 179.323C246.798 179.531 246.45 181.269 245.963 183.562C245.477 185.856 246.311 187.038 246.311 187.038C246.311 187.038 250.134 187.872 251.315 188.219C252.497 188.567 254.374 189.192 254.374 189.192C254.374 189.192 255.764 187.455 255.972 185.926C256.181 184.396 255.486 182.242 256.667 182.172C257.849 182.103 259.1 183.84 258.544 186.899C257.988 189.957 257.015 190.304 257.015 190.304C257.015 190.304 267.649 195.1 272.654 198.576C276.198 201.008 279.882 203.649 281.967 204.623C282.593 205.04 283.218 206.291 283.218 206.291Z" fill="#615B5B"/>
</g>
<g id="hair">
<path id="hair-full" d="M203.079 74.0914C203.079 74.0914 191.541 61.8585 203.079 33.9868C214.617 6.11518 236.372 -2.712 247.215 0.693765C258.057 4.09953 265.564 10.216 272.375 25.1597C279.187 40.1033 282.593 36.6976 292.115 31.9712C301.637 27.2448 311.09 16.3325 319.917 23.144C328.744 29.9555 327.424 44.2041 337.572 47.6099C347.789 51.0157 360.022 34.6819 381.082 46.2198C402.142 57.7577 391.299 72.7013 404.158 80.8335C417.086 88.9656 460.527 97.1672 459.831 116.837C459.136 136.507 436.756 142.624 442.177 160.973C447.599 179.323 480.892 179.323 488.398 200.383C495.905 221.443 478.181 228.88 482.977 240.487C487.703 252.025 524.402 263.355 522.386 287.264C520.371 311.174 503.342 311.174 512.864 326.744C521.205 340.436 559.155 349.958 564.437 368.03C565.202 370.601 565.271 373.382 564.507 376.37C564.507 376.37 549.076 396.735 553.177 409.455C557.278 422.105 560.823 425.302 562.699 439.342C563.951 448.586 563.186 462.418 546.852 474.651C530.518 486.884 501.535 489.803 474.636 479.377C447.738 468.952 453.089 457.831 444.54 454.703C435.922 451.506 437.729 463.113 432.099 464.225C426.469 465.337 419.171 463.322 415.765 451.297C412.359 439.273 412.846 460.333 407.355 466.032C402.003 471.593 380.178 470.133 378.371 451.992C376.564 433.851 383.167 431.141 376.564 433.851C371.49 435.936 362.037 457.831 337.154 438.161C311.298 417.657 345.078 398.126 339.865 388.603C334.652 379.081 322.836 386.657 318.805 374.911C314.704 363.164 342.159 361.218 336.251 351.487C330.343 341.757 300.942 344.189 300.942 323.199C300.942 290.809 338.336 294.284 342.576 275.449C347.094 255.5 319.014 256.404 319.917 240.14C320.89 222.485 336.668 232.425 336.668 217.064C336.668 204.692 314.148 212.963 309.074 202.676C296.841 177.793 331.733 173.693 330.204 159.166C328.049 139.148 300.456 163.614 295.034 147.281C289.96 132.059 308.171 134.144 304.974 123.301C301.776 112.458 286.972 124.483 277.38 120.104C267.163 115.447 263.548 102.936 267.163 82.9881C270.221 66.3069 270.429 26.7583 226.502 44.4126C202.106 54.2129 210.377 75.2035 210.377 75.2035C210.377 75.2035 211.419 77.4972 208.987 77.5667C206.554 77.6362 203.079 74.0914 203.079 74.0914Z" fill="#BDA69B"/>
<path id="hair-5" d="M103.547 242.433C103.547 242.433 103.269 242.851 103.199 243.268C103.06 249.871 123.912 348.221 55.9357 363.164C-25.9416 381.236 -17.3925 477.362 78.0384 470.55C92.4955 469.508 106.744 447.266 114.876 453.104C134.755 467.353 155.467 482.019 168.673 457.553C171.94 451.506 164.503 447.752 166.519 452.687C168.534 457.622 163.043 464.642 159.846 466.727C142.956 477.918 125.511 456.927 119.325 450.394C109.524 440.107 93.1906 464.92 70.9489 465.824C48.7767 466.727 6.79541 467.839 7.07344 425.719C7.42096 375.05 56.4223 369.072 72.756 362.261C122.522 341.479 103.547 242.433 103.547 242.433Z" fill="black"/>
<path id="hair-4" d="M358.91 98.4183C358.91 98.4183 362.316 109.678 372.046 113.223C388.102 118.992 413.541 127.75 413.889 140.121C414.167 152.493 389.423 169.731 389.701 175.778C389.979 181.825 403.88 170.912 406.312 175.778C408.745 180.643 389.423 187.246 396.026 193.293C402.629 199.34 411.456 192.807 412.012 199.132C412.637 205.387 403.532 215.952 413.819 218.663C424.106 221.373 431.265 204.275 426.538 202.12C417.711 198.019 419.657 210.322 418.476 210.322C417.294 210.322 415.557 205.248 418.476 200.522C421.951 194.892 430.917 197.185 431.334 204.761C431.89 214.075 425.287 221.304 420.144 222.555C414.097 224.014 400.613 217.342 406.868 206.569C414.027 194.197 403.324 200.73 397.624 197.672C391.925 194.614 391.021 191.486 392.967 187.455C394.635 184.049 406.66 178.836 405.131 176.334C403.393 173.554 391.716 181.13 389.075 179.253C386.642 177.515 388.38 173.484 391.299 169.661C393.106 167.298 414.236 147.976 412.22 139.774C408.606 125.108 378.858 119.826 367.667 113.223C356.547 106.62 358.91 98.4183 358.91 98.4183Z" fill="#F4F4F4"/>
<path id="hair-2" d="M330.621 271C331.455 270.375 330.691 269.124 329.787 269.471C323.254 272.112 314.843 267.733 313.453 262.66C311.09 253.902 315.955 245.631 319.431 244.866C331.942 242.086 341.95 245.909 341.464 238.194C339.657 209.488 302.332 223.111 301.985 200.452C301.637 180.226 329.092 187.941 330.552 180.921C333.054 168.48 313.314 163.406 314.565 155.274C316.72 141.234 348.275 143.527 351.681 137.341C368.223 107.246 282.593 88.34 257.918 66.1678C249.856 58.9393 236.302 23.561 219.412 31.9712C201.828 40.6594 209.265 59.2868 214.408 69.1566C214.686 69.7126 215.59 69.3651 215.381 68.7395C212.601 58.8698 208.778 38.5047 223.652 34.8904C238.735 31.2761 245.477 62.7621 259.378 71.3112C273.279 79.8604 335.556 108.358 342.02 117.602C342.02 117.602 356.269 132.545 343.063 136.09C329.857 139.635 311.785 138.314 308.171 153.675C305.391 165.63 327.424 167.09 324.922 177.098C322.419 187.038 298.857 180.157 297.745 195.587C295.868 221.026 313.523 215.674 323.879 221.095C334.235 226.586 338.823 230.479 337.78 237.568C336.738 244.658 323.393 238.194 317.485 241.113C309.561 245.144 306.92 255.014 310.395 263.216C313.662 271 326.312 273.711 330.204 271.209C330.204 271.278 330.413 271.139 330.621 271Z" fill="#343434"/>
<path id="hair-1" d="M191.819 75.3426C192.375 74.9255 205.859 60.3989 184.104 49.9731C162.349 39.5473 144.277 54.4909 143.374 80.3469C142.47 106.133 135.172 115.864 130.654 120.869C126.136 125.873 111.123 139.635 98.6121 137.758C87.4913 136.09 94.7893 130.391 99.3072 131.781C103.825 133.171 109.177 137.689 103.756 143.11C98.3341 148.532 82.8344 161.321 84.9891 171.538C87.1437 181.755 90.619 187.941 102.226 189.053C113.834 190.165 114.459 176.403 106.049 175.708C97.639 175.013 84.155 180.782 84.7805 195.1C85.4061 209.349 97.639 211.087 101.392 211.156C105.146 211.295 106.953 207.82 106.883 206.152C106.744 204.484 105.632 200.869 100.419 201.773C95.2063 202.676 79.9152 210.6 83.8075 225.196C87.6303 239.792 101.531 237.082 102.504 232.703C103.756 227.003 97.5695 222.763 92.0786 226.378C84.7805 231.104 70.8795 242.781 82.6954 265.231L83.8075 264.258C83.8075 264.258 78.8726 254.944 81.4443 245.283C84.016 235.622 91.8701 229.227 95.2759 228.324C99.6547 227.142 102.713 230.062 99.5852 233.676C97.4305 236.108 86.1012 231.382 87.4913 221.86C88.8814 212.338 92.5652 206.013 101.392 205.248C107.3 204.692 104.312 209.001 101.879 208.515C99.3767 208.028 86.7962 204.762 88.3253 193.988C89.8544 183.284 95.4844 179.462 101.462 179.184C107.439 178.836 108.968 181.755 107.995 184.188C107.022 186.621 98.9596 187.941 94.1638 183.493C89.3679 179.045 87.6303 173.554 90.202 165.283C92.7737 157.011 109.107 146.725 109.594 141.025C110.011 135.812 107.578 126.081 96.3184 128.375C85.0586 130.669 89.7849 138.245 92.8432 139.566C95.9014 140.956 107.717 140.747 117.309 135.951C124.538 132.337 136.562 123.371 142.331 111.138C148.1 98.9049 145.945 77.6362 149.49 70.0601C149.49 70.0601 153.938 52.0582 166.588 50.9462C179.238 49.8341 190.151 52.3363 192.305 60.2599C194.46 68.1835 192.514 70.8942 191.193 74.856C190.776 75.273 191.124 75.8986 191.819 75.3426Z" fill="black"/>
<path id="hair-3" d="M356.268 225.891C367.111 227.976 381.638 231.938 379.831 242.781C378.024 253.624 352.793 263.285 359.952 273.572C367.111 283.859 371.977 287.751 379.97 283.233C387.963 278.715 382.82 272.39 377.398 274.197C371.977 276.005 363.845 289.906 374.062 296.856C384.349 303.807 390.882 308.047 402.837 306.795C414.792 305.614 412.985 295.953 405.131 294.702C397.277 293.52 374.965 311.939 388.519 321.114C402.073 330.288 405.756 323.685 409.023 332.095C412.359 340.575 409.649 351.696 404.783 353.225C399.918 354.754 402.768 356.561 402.768 356.561C402.768 356.561 416.252 348.985 412.915 334.25C409.579 319.515 400.821 328.829 391.508 318.82C382.125 308.881 396.721 301.096 402.768 297.968C406.66 295.953 409.579 299.497 407.146 301.583C404.714 303.668 397.833 309.228 376.634 295.536C364.887 287.959 375.104 275.518 379.414 277.395C383.723 279.271 377.885 288.238 365.513 277.395C353.141 266.552 370.656 258.698 375.174 253.902C379.692 249.036 390.465 235.483 376.634 229.436C362.802 223.389 357.103 227.837 349.109 220.261C345.009 216.299 342.089 212.477 340.699 210.322C340.63 210.183 340.352 210.322 340.421 210.461C342.298 214.353 347.58 224.154 356.268 225.891Z" fill="#343434"/>
</g>
<g id="necklace">
<path id="necklace-bottom" d="M209.473 412.791C209.612 413.278 213.018 425.024 230.047 426.275C253.609 428.082 297.537 416.962 325.617 394.094C353.697 371.227 355.713 369.42 357.798 369.837C359.813 370.323 314.843 404.868 296.702 413.347C270.568 425.58 255.694 429.89 231.159 427.665C210.863 425.858 208.292 414.042 208.431 413.556C208.639 413.208 209.265 412.305 209.473 412.791Z" fill="black"/>
<path id="necklace-top" d="M205.511 401.323C205.65 401.809 199.325 410.984 222.888 413.069C246.45 415.154 290.377 403.755 318.458 380.888C346.538 358.021 348.553 356.214 350.639 356.631C352.654 357.117 317.832 389.715 291.073 400.558C264.382 411.401 248.952 418.699 224.486 415.988C200.02 413.278 204.33 402.643 204.469 402.157C204.677 401.74 205.372 400.836 205.511 401.323Z" fill="black"/>
<path id="necklace-pendant" d="M247.91 433.643C247.91 433.643 244.017 434.685 243.253 442.122C242.766 447.196 252.706 448.169 254.582 442.539C255.972 438.3 253.957 434.268 252.01 433.643C250.064 433.017 247.91 433.643 247.91 433.643Z" fill="black"/>
</g>
</g>
</svg>
